<svg xmlns="http://www.w3.org/2000/svg" width="416.336" height="523.182" viewBox="0 0 416.336 523.182">
  <g id="Group_1956" data-name="Group 1956" transform="translate(16838.961 4311.462)">
    <g id="data" transform="translate(-17600 -5274)">
      <path id="內文p" d="M11.96,8.78v.2c0,1.04-.48,2.4-5.66,3.1a4.844,4.844,0,0,1,.8,1.1c3.52-.54,5.1-1.46,5.76-2.44a9.625,9.625,0,0,0,5.44,2.34,5.493,5.493,0,0,1,.84-1.18c-2.62-.22-4.8-1-5.86-2.2a4.04,4.04,0,0,0,.06-.66V8.78h3.18a11.369,11.369,0,0,1-.94,1.58l1.18.42A18.9,18.9,0,0,0,18.44,7.9l-1-.34-.24.06H10.5c.14-.36.3-.72.42-1.1l-1.34-.3a8.547,8.547,0,0,1-2.3,3.8,6.473,6.473,0,0,1,1.12.76,9.855,9.855,0,0,0,1.5-2ZM5.1,18.96H15.12v1.4H5.1Zm0-2.32H15.12V18H5.1Zm0-2.32H15.12v1.36H5.1ZM3.66,21.34H16.6V13.32H3.66ZM6.26,7.46H1.48V8.62H6.26Zm.5,3.1H1.04v1.2H6.76ZM7,21.48A23.707,23.707,0,0,1,1.14,23.4a9.667,9.667,0,0,1,1.1,1.12,27.177,27.177,0,0,0,6.1-2.44Zm4.88.78a47.906,47.906,0,0,1,5.6,2.22l1.3-.86a54.987,54.987,0,0,0-5.88-2.16ZM34.22,10.12a15.417,15.417,0,0,0-3.14-2.44l-.76,1a16.523,16.523,0,0,1,3.14,2.58Zm-.86,4.78A15.557,15.557,0,0,0,30,12.66l-.7,1.04a14.97,14.97,0,0,1,3.32,2.4ZM27.58,7.48a33.42,33.42,0,0,1-1.34,4.48l.98.32A40.5,40.5,0,0,0,28.86,7.8Zm-4.16,4.46a18.174,18.174,0,0,0-1.18-4.38l-1.08.26a19.525,19.525,0,0,1,1.1,4.42Zm-.68,3.56a15.271,15.271,0,0,1-1.98,5.16,9.413,9.413,0,0,1,.76,1.64,18.632,18.632,0,0,0,2.3-6.46Zm6.14-1.16v-1.4H25.6V6.28H24.22v6.66h-3.2v1.4h3.2v10.2H25.6V14.34ZM25.7,16.1c.42.86,1.52,3.4,1.88,4.5l1.06-1.1c-.3-.68-1.74-3.4-2.12-3.98Zm13.54,2.34-.22-1.36-2.36.42V6.28h-1.4V17.76L28.82,18.9l.24,1.38,6.2-1.12v5.36h1.4V18.9ZM54.4,10.96a9.482,9.482,0,0,1-2.84,5.4,7.755,7.755,0,0,1,1.24.8,9.32,9.32,0,0,0,1.76-2.36,33.736,33.736,0,0,1,3.12,2.86l1.06-1.02a41.977,41.977,0,0,0-3.6-3.08,14.083,14.083,0,0,0,.68-2.36Zm-9.42,0a10.2,10.2,0,0,1-3.64,6.08,9.474,9.474,0,0,1,1.18.96,10.7,10.7,0,0,0,2.52-3.14A25.756,25.756,0,0,1,46.9,16.8l1.02-1.02a26.9,26.9,0,0,0-2.26-2.2,16.319,16.319,0,0,0,.78-2.36Zm5.72-.46h7.94V9.04H50.7V6.28H49.18V9.04H41.52V10.5h7.66v4.88a19.244,19.244,0,0,1-8.36,6.98,6.713,6.713,0,0,1,1.04,1.24,20.859,20.859,0,0,0,7.32-5.94v6.86H50.7V17.6a19.562,19.562,0,0,0,7.42,6.06,5.682,5.682,0,0,1,1.1-1.32,17.825,17.825,0,0,1-8.52-7.1ZM66,8.62A37.79,37.79,0,0,0,62.66,6.5L61.8,7.52c1.08.7,2.56,1.68,3.32,2.28Zm-.94,5.2c-.78-.54-2.3-1.38-3.38-1.98l-.86,1.04a33.039,33.039,0,0,1,3.36,2.14Zm-.78,3.2a63.087,63.087,0,0,1-3.04,6.4l1.32.82c.94-1.84,2.06-4.3,2.88-6.4ZM68.24,8.6h10.7V7.24H66.78V12.7c0,3.28-.2,7.78-2.46,10.98a4.539,4.539,0,0,1,1.22.78c2.36-3.34,2.7-8.28,2.7-11.76Zm1.84,10.28a13.505,13.505,0,0,1-2.38,3.7,11.266,11.266,0,0,1,1.2.76,19.822,19.822,0,0,0,2.52-4.1Zm.64-4.02H76.8v1.76H70.72Zm0-2.82H76.8v1.74H70.72Zm7.46,5.72V10.9H73.82c.26-.52.54-1.1.82-1.68l-1.66-.34a19.872,19.872,0,0,1-.58,2.02H69.38v6.86h3.58v5.2c0,.22-.08.28-.34.3-.22,0-1.1.02-2.06-.02a5.325,5.325,0,0,1,.42,1.28,8,8,0,0,0,2.72-.2c.56-.22.68-.6.68-1.34V17.76Zm-2.46,1.46a39.658,39.658,0,0,1,2.2,3.92l1.36-.6c-.5-.96-1.5-2.6-2.28-3.82ZM99.32,6.68l-.6-.6L80.68,24.12l.6.6Zm11.46,15.74V17.5h6.28V16.08h-6.28V11.7h7.1V10.24h-6.46l.94-.68a22.935,22.935,0,0,0-3.66-3.22l-1.2.84a22.457,22.457,0,0,1,3.4,3.06h-8.78V11.7h7.08v4.38h-6.16V17.5h6.16v4.92h-8v1.46h17.68V22.42Zm15.6-13.66a15.213,15.213,0,0,0-1.54-2.56l-1.12.58a21.183,21.183,0,0,1,1.46,2.66Zm3.18.9h-8.22v1.22h8.22Zm-.88,5.22h-6.46v1.18h6.46Zm-1.28,3.9v3.3h-3.72v-3.3Zm1.3-1.24h-6.32v6.72h1.3v-.94h5.02Zm-6.48-4.08h6.5V12.28h-6.5Zm16.82-.3h-4.1V6.64h-1.5v6.52h-3.92v1.46h3.92v9.92h1.5V14.62h4.1Zm17.34,1.72a12.983,12.983,0,0,0-1.4-1.74,13.31,13.31,0,0,0,1.52-2.22l-1.04-.16a11.405,11.405,0,0,1-1.1,1.68c-.3-.3-.6-.6-.9-.88a11.611,11.611,0,0,0,1.14-1.72l-1.02-.18a7.771,7.771,0,0,1-.82,1.24c-.34-.3-.7-.62-1.06-.9l-.82.54a12.543,12.543,0,0,1,1.24,1.12,10.416,10.416,0,0,1-1.74,1.44,3.049,3.049,0,0,1,.68.66,11.49,11.49,0,0,0,1.74-1.44,12.1,12.1,0,0,1,.86.9,13.041,13.041,0,0,1-2.52,2.04,2.441,2.441,0,0,1,.66.7,13.461,13.461,0,0,0,2.5-2.06,19.054,19.054,0,0,1,1.22,1.62Zm.4,1.3H150.1V9.4h6.68Zm1.36-8.02h-5.28c.28-.5.58-1.12.86-1.72l-1.48-.3a18.985,18.985,0,0,1-.72,2.02h-2.74v9.26h9.36ZM155.42,20.8a29.315,29.315,0,0,0-1.92-3.06l-.98.46a35.191,35.191,0,0,1,1.88,3.2Zm-7.5-3a24.357,24.357,0,0,0-1.26-3.84l-1.06.3c.22.52.42,1.12.6,1.7l-3.08.52a38.054,38.054,0,0,0,4.34-6.6l-1.24-.62a26.663,26.663,0,0,1-1.42,2.7l-2.08.2a30.251,30.251,0,0,0,2.8-5.38l-1.34-.54a25.42,25.42,0,0,1-2.36,5.04c-.36.6-.7,1.02-1.02,1.1a13.2,13.2,0,0,1,.46,1.32,9.842,9.842,0,0,1,2.78-.5,21.872,21.872,0,0,1-1.68,2.38c-.56.72-1.02,1.24-1.42,1.34a8.312,8.312,0,0,1,.44,1.3c.38-.24.96-.38,5.16-1.18a11.161,11.161,0,0,1,.26,1.14ZM142,19.04a18.676,18.676,0,0,1-1.12,4.6,5.27,5.27,0,0,1,1.08.4,24.851,24.851,0,0,0,1.16-4.8Zm1.82.2a34.663,34.663,0,0,1,.5,4.24l1.12-.24c-.08-1.16-.32-2.88-.56-4.24Zm1.84-.38c.32,1.1.7,2.52.86,3.46l1.02-.32a22.141,22.141,0,0,0-.88-3.42Zm2.82,4.64a19.262,19.262,0,0,0,1.34-4.26l-1.06-.38a17.182,17.182,0,0,1-1.36,4.12Zm3.88-.58c-.76,0-.88-.08-.88-.54V18.86H150.2V22.4c0,1.3.42,1.64,2.04,1.64h2.88c1.32,0,1.68-.54,1.82-2.72a3.516,3.516,0,0,1-1.12-.48c-.08,1.84-.2,2.08-.82,2.08Zm4.02-3.72a36.821,36.821,0,0,1,1.7,3.96l1.12-.52c-.38-1.02-1.12-2.62-1.76-3.88Zm12.68-1.4a8.6,8.6,0,0,1-1.42,2.84,7.369,7.369,0,0,1-1.16-2.42,4.231,4.231,0,0,1,.22-.42Zm.68-1.12-.24.04h-2.24c.2-.44.36-.86.52-1.32l-1.18-.3a10.39,10.39,0,0,1-3.02,4.66,31.664,31.664,0,0,0,.36-4.92V11.12h5.1v1.3l-4.02.26.06,1.02,3.96-.26v.36c0,1.3.4,1.82,2.08,1.82h4.9a11.311,11.311,0,0,0,2.06-.1c-.06-.32-.08-.72-.12-1.1a15.884,15.884,0,0,1-2.06.12h-4.64c-.68,0-.8-.18-.8-.74v-.46l5.12-.34-.06-1-5.06.32v-1.2h6.5a13.6,13.6,0,0,1-.8,1.9l1.22.38a21.891,21.891,0,0,0,1.38-3.24l-1.04-.28-.24.06H170.5V8.66h6.84V7.54H170.5V6.28h-1.46V9.94h-6.52v4.88c0,2.62-.16,6.26-1.72,8.86a4.9,4.9,0,0,1,1.16.9,13.251,13.251,0,0,0,1.58-4.66,8.3,8.3,0,0,1,.84.8,8.371,8.371,0,0,0,1.32-1.44,9.959,9.959,0,0,0,1.16,2.22,8.573,8.573,0,0,1-3.6,2.08,3.962,3.962,0,0,1,.7,1.04,10.347,10.347,0,0,0,3.7-2.2c1.58,1.46,3.7,1.82,6.42,1.82h4.74a3.972,3.972,0,0,1,.46-1.26c-.82.02-4.52.02-5.14.02-2.32,0-4.24-.28-5.66-1.48a10.788,10.788,0,0,0,2.02-4.64Zm7.62,5.22c.74,0,1.04-.38,1.12-1.74a2.681,2.681,0,0,1-.92-.36c-.06,1.06-.12,1.28-.36,1.28h-.78c-.26,0-.3-.06-.3-.44V16.7H171.7v1.56a3.712,3.712,0,0,1-1.58,3.24,5.336,5.336,0,0,1,.92.86,4.8,4.8,0,0,0,1.88-4.06v-.46h2.04v2.8c0,1,.28,1.26,1.28,1.26Z" transform="translate(760 1461)" fill="#ba4141"/>
      <path id="內文p-2" data-name="內文p" d="M4.725,6.38A8.694,8.694,0,0,0,3.27,4.445l-.84.495A9.8,9.8,0,0,1,3.84,6.935ZM6.39,12.65c-.33-.33-1.47-1.5-2.07-2.07A13.047,13.047,0,0,0,6.2,7.415L5.6,6.98l-.21.045H.855v1.02H4.8A12.35,12.35,0,0,1,.45,12.68a4.235,4.235,0,0,1,.51,1.08,13.281,13.281,0,0,0,2.07-1.725v6.1H4.125V11.7c.57.63,1.245,1.425,1.56,1.86Zm4.44,3.825V10.2h3.195V9.125H10.83V4.43H9.72v4.7H6.48V10.2H9.72v6.27H5.775V17.57H14.34V16.475ZM25.665,14v1.02h-6.21V14Zm-6.21,2.835v-1.02h6.21v1.02Zm-1.095,1.29h1.095v-.5h6.21v.45H26.79V13.2H18.36Zm6.285-6.45a16.436,16.436,0,0,0,1.02-1.77l-.945-.3a12.868,12.868,0,0,1-.825,1.8ZM19.35,9.92a6.392,6.392,0,0,1,.84,1.755l.855-.315a6.03,6.03,0,0,0-.9-1.7Zm-.9-.42h3.54v2.235H18.45Zm8.055,2.235h-3.57V9.5h3.57ZM17.49,12.5H27.51V8.72H17.49Zm3.135-5.325a10.846,10.846,0,0,0,1.95-1.5,12.557,12.557,0,0,0,1.965,1.5ZM22.41,4.4C21,6.215,18.345,7.535,15.63,8.255a6.232,6.232,0,0,1,.63.855,18.867,18.867,0,0,0,3.675-1.545v.42h5.2V7.52a17.134,17.134,0,0,0,3.675,1.515,4.37,4.37,0,0,1,.7-.87,14.663,14.663,0,0,1-6.345-3.12c.075-.09.135-.195.21-.285Zm11.76.09a16.843,16.843,0,0,1-3.78,5.91,9.109,9.109,0,0,1,.63,1.08,16.464,16.464,0,0,0,1.56-1.86v8.49h1.065V8A22.558,22.558,0,0,0,35.22,4.8Zm2.745,8.94A16.306,16.306,0,0,1,34.5,16.775a7.689,7.689,0,0,1,.87.645A23.638,23.638,0,0,0,37.9,13.745Zm-.15-7.275H42.33V8.9H36.765Zm7.545,6.54v-1.02H40.065V9.89H43.44V5.15H35.715V9.89h3.24v1.785H34.62v1.02h4.335v5.46h1.11v-5.46ZM40.9,13.88a23.483,23.483,0,0,1,2.55,3.45l.9-.555a25.869,25.869,0,0,0-2.595-3.36ZM52.2,8.72h4.47v-.9H52.245a13.111,13.111,0,0,0,2.055-1.9,18.12,18.12,0,0,0,4.575,2.88,4.233,4.233,0,0,1,.51-1,14.264,14.264,0,0,1-4.53-2.61c.12-.165.225-.33.33-.495L54.1,4.34a11.344,11.344,0,0,1-4.26,3.825,4.358,4.358,0,0,1,.75.735,14.046,14.046,0,0,0,1.6-1.05Zm3.585,1.905H57.45V12.59H55.785ZM54.93,13.4h3.42V9.8H54.93Zm-3.435-2.775h1.6V12.59h-1.6ZM50.64,13.4H54V9.8H50.64ZM49.515,5l-.15.06h-3.15V18.11h.96V6.065H48.96c-.285,1-.69,2.31-1.095,3.375a4.652,4.652,0,0,1,1.245,3.03,1.319,1.319,0,0,1-.3,1.035.684.684,0,0,1-.435.135,5.4,5.4,0,0,1-.84-.015,2.258,2.258,0,0,1,.285.99,6.59,6.59,0,0,0,.945-.015,1.67,1.67,0,0,0,.75-.285,2.2,2.2,0,0,0,.555-1.755,4.847,4.847,0,0,0-1.26-3.225c.48-1.2.99-2.685,1.41-3.9Zm2.4,8.745a6.312,6.312,0,0,1-2.865,3.72,5.133,5.133,0,0,1,.765.735,7.98,7.98,0,0,0,2.25-2.385A10.957,10.957,0,0,1,53.58,17.12l.585-.75a9.223,9.223,0,0,0-1.68-1.305,8.975,8.975,0,0,0,.435-1.11Zm4.17-.015a5.567,5.567,0,0,1-2.34,3.69,4.993,4.993,0,0,1,.75.735,5.982,5.982,0,0,0,1.815-2.13,17.818,17.818,0,0,1,2.325,1.905l.66-.75a15.6,15.6,0,0,0-2.58-2,7.286,7.286,0,0,0,.375-1.3ZM61.32,17h6.03V15.86h-2.2V5.99H64.1a6.624,6.624,0,0,1-2.28.795v.87h1.95v8.2H61.32Zm11.19.195c2.07,0,3.45-1.245,3.45-2.85a3.209,3.209,0,0,0-1.86-2.88V11.39a3.605,3.605,0,0,0,1.47-2.655,3.021,3.021,0,0,0-6.03-.105,3.057,3.057,0,0,0,1.485,2.535v.075A3.522,3.522,0,0,0,69,14.27C69,15.965,70.485,17.195,72.51,17.195Zm.75-6.165c-1.29-.51-2.475-1.08-2.475-2.4A1.693,1.693,0,0,1,72.54,6.845,1.823,1.823,0,0,1,74.4,8.81,2.95,2.95,0,0,1,73.26,11.03Zm-.72,5.145a2.108,2.108,0,0,1-2.295-2.025,2.989,2.989,0,0,1,1.5-2.49c1.56.63,2.91,1.185,2.91,2.655A1.9,1.9,0,0,1,72.54,16.175Zm6.195,1.02a.991.991,0,0,0,.99-1.035.993.993,0,1,0-1.98,0A.991.991,0,0,0,78.735,17.195ZM82.14,17h6.03V15.86h-2.2V5.99h-1.05a6.624,6.624,0,0,1-2.28.795v.87h1.95v8.2H82.14Zm10.08-4.26c1.515,0,2.505-1.275,2.505-3.495s-.99-3.45-2.505-3.45-2.49,1.245-2.49,3.45S90.72,12.74,92.22,12.74Zm0-.855c-.855,0-1.455-.885-1.455-2.64s.6-2.61,1.455-2.61c.87,0,1.47.855,1.47,2.61S93.09,11.885,92.22,11.885Zm.33,5.31h.915l6.075-11.4h-.93Zm7.335,0c1.5,0,2.49-1.26,2.49-3.48s-.99-3.45-2.49-3.45-2.5,1.245-2.5,3.45S98.385,17.195,99.885,17.195Zm0-.84c-.87,0-1.455-.885-1.455-2.64s.585-2.61,1.455-2.61,1.455.855,1.455,2.61S100.74,16.355,99.885,16.355Z" transform="translate(1075 996)" fill="#f2e6e6"/>
      <path id="內文p-3" data-name="內文p" d="M11.505,7.37a6.394,6.394,0,0,0-1.62-1.02L9.36,6.9a6.07,6.07,0,0,1,1.6,1.05ZM7.5,13.43c-1.68.3-3.345.6-4.485.78l.15.84c1.23-.225,2.82-.54,4.38-.84ZM6.2,12.11H4.47v-1.5H6.2ZM3.69,9.9v2.91H7.005V9.9Zm6.66-.255a10.32,10.32,0,0,1-1.11,2.76,21.86,21.86,0,0,1-.555-3.45h3.2V8.12H8.61c-.03-.525-.06-1.05-.09-1.59H7.56c.03.54.075,1.065.12,1.59H3.165v.84h4.59A20.777,20.777,0,0,0,8.58,13.4a8.1,8.1,0,0,1-2.265,1.95,5.758,5.758,0,0,1,.66.7,9.407,9.407,0,0,0,1.98-1.725,2.448,2.448,0,0,0,1.56,1.455c.78.3,1.29-.3,1.485-1.935a2.807,2.807,0,0,1-.72-.5c-.1.96-.255,1.605-.465,1.545-.495-.075-.9-.585-1.215-1.38a11.641,11.641,0,0,0,1.665-3.675ZM2.34,16.49V6.155H12.63V16.49ZM1.275,5.135v13.05H2.34V17.5H12.63v.69h1.095V5.135Zm18.855-.09-.165.045h-3.69V18.155h1.05V6.095h2.2C19.2,7.145,18.7,8.57,18.255,9.68a4.374,4.374,0,0,1,1.425,3.075,1.284,1.284,0,0,1-.315,1.035,1.074,1.074,0,0,1-.51.15c-.27,0-.57,0-.945-.03a2.38,2.38,0,0,1,.285,1.02,8.852,8.852,0,0,0,1.1-.015,1.82,1.82,0,0,0,.81-.3,2.047,2.047,0,0,0,.615-1.755A4.73,4.73,0,0,0,19.29,9.545c.525-1.215,1.125-2.79,1.59-4.05ZM24,4.715a21.64,21.64,0,0,1,.69,2.25l1.065-.33c-.135-.54-.48-1.47-.735-2.16Zm5.22,3.3V6.965H20.6v1.05h2.37c-.09,3.99-.39,7.485-3.7,9.27a3.531,3.531,0,0,1,.75.825c2.58-1.455,3.5-3.9,3.84-6.81h3.375c-.15,3.825-.315,5.265-.63,5.6a.624.624,0,0,1-.555.195c-.3,0-1.08-.015-1.89-.09a2.712,2.712,0,0,1,.33,1.11,15.161,15.161,0,0,0,2.04,0,1.244,1.244,0,0,0,1.02-.51c.465-.525.615-2.19.8-6.81v-.51h-4.4c.06-.735.105-1.485.12-2.265ZM31.32,17h6.03V15.86h-2.2V5.99H34.1a6.624,6.624,0,0,1-2.28.795v.87h1.95v8.2H31.32Zm11.4-5.805c1.335,0,1.995.945,1.995,2.43s-.825,2.5-1.875,2.5c-1.38,0-2.2-1.245-2.37-3.525A2.843,2.843,0,0,1,42.72,11.195Zm.12,6a3.3,3.3,0,0,0,3.15-3.57c0-2.3-1.185-3.45-3.045-3.45a3.42,3.42,0,0,0-2.5,1.335c.06-3.42,1.335-4.575,2.835-4.575a2.325,2.325,0,0,1,1.77.84l.75-.855A3.378,3.378,0,0,0,43.23,5.795c-2.13,0-4.065,1.65-4.065,5.955C39.165,15.38,40.725,17.195,42.84,17.195Zm5.9,0a.991.991,0,0,0,.99-1.035.993.993,0,1,0-1.98,0A.991.991,0,0,0,48.735,17.195ZM51.48,17H58.4V15.815H55.35c-.555,0-1.23.06-1.8.105,2.58-2.445,4.305-4.68,4.305-6.87A3.016,3.016,0,0,0,54.66,5.795a4.205,4.205,0,0,0-3.24,1.62l.8.78a3.079,3.079,0,0,1,2.28-1.275A1.933,1.933,0,0,1,56.52,9.095c0,1.89-1.59,4.08-5.04,7.1Zm10.74-4.26c1.515,0,2.5-1.275,2.5-3.495s-.99-3.45-2.5-3.45-2.49,1.245-2.49,3.45S60.72,12.74,62.22,12.74Zm0-.855c-.855,0-1.455-.885-1.455-2.64s.6-2.61,1.455-2.61,1.47.855,1.47,2.61S63.09,11.885,62.22,11.885Zm.33,5.31h.915l6.075-11.4h-.93Zm7.335,0c1.5,0,2.49-1.26,2.49-3.48s-.99-3.45-2.49-3.45-2.5,1.245-2.5,3.45S68.385,17.195,69.885,17.195Zm0-.84c-.87,0-1.455-.885-1.455-2.64s.585-2.61,1.455-2.61,1.455.855,1.455,2.61S70.74,16.355,69.885,16.355Z" transform="translate(1042 1023)" fill="#f2e6e6"/>
      <path id="內文p-4" data-name="內文p" d="M9.645,8.27H12.27a17.091,17.091,0,0,1-1.305,4.74A20.635,20.635,0,0,1,9.645,8.27ZM4.29,6.98H5.805A14.859,14.859,0,0,1,4.74,8.465H4.29ZM14.355,8.27V7.22H9.975a26.294,26.294,0,0,0,.6-2.6l-1.11-.18a16.05,16.05,0,0,1-2.34,6.435L6.6,10.49l-.21.06H4.2c.375-.345.72-.72,1.065-1.095h2.61v-.99H6.06A16.568,16.568,0,0,0,7.935,5.1L6.9,4.8a14.855,14.855,0,0,1-1.065,2.13V6.02H4.29V4.445H3.255V6.02H1.29v.96H3.255V8.465H.66v.99H3.825a12.852,12.852,0,0,1-3.27,2.37,10.341,10.341,0,0,1,.8.855,16.083,16.083,0,0,0,1.815-1.23h2.34A9.573,9.573,0,0,1,3.8,12.785V13.82c-1.185.135-2.265.27-3.12.375l.135,1.02c.855-.105,1.875-.255,2.985-.405v2.145c0,.165-.045.21-.255.225s-.825.015-1.575-.015a4.279,4.279,0,0,1,.36.975,6.188,6.188,0,0,0,2-.165c.42-.165.54-.435.54-1.005V14.675c.975-.15,1.965-.285,2.955-.42L7.8,13.28c-.99.135-1.98.27-2.94.39v-.6a11.926,11.926,0,0,0,2.265-1.98,5.682,5.682,0,0,1,.81.7,10.487,10.487,0,0,0,1.005-1.77,19.57,19.57,0,0,0,1.365,4.155,8.439,8.439,0,0,1-3.57,3.015A4.72,4.72,0,0,1,7.41,18.2a10.012,10.012,0,0,0,3.5-2.91,8.149,8.149,0,0,0,2.79,2.835,3.645,3.645,0,0,1,.78-.945,7.382,7.382,0,0,1-2.9-2.94,17.077,17.077,0,0,0,1.83-5.97ZM27.5,10.4h-9.69v2.67a5.99,5.99,0,0,1-1.53,4.5,3.064,3.064,0,0,1,.885.69,7.143,7.143,0,0,0,1.725-5.16V11.345h7.44V14.09c-2.61.465-5.34.9-7.035,1.155l.36,1.005c1.845-.33,4.305-.84,6.675-1.32v1.92c0,.21-.09.3-.36.3-.225.015-1.23.015-2.16-.015a3.789,3.789,0,0,1,.315.96,12.055,12.055,0,0,0,2.685-.135c.51-.15.69-.435.69-1.11Zm-8.13,2.28a26.25,26.25,0,0,1,5.49,1.47l.345-.825a26.753,26.753,0,0,0-5.475-1.365ZM19.1,8.72c.69-.555,1.395-1.155,2.085-1.815H24.6l-.63.4c.495.33,1,.735,1.5,1.125Zm9.96-2.82h-6.87c.36-.375.72-.78,1.065-1.17l-1.11-.465C21.7,4.82,21.21,5.39,20.73,5.9H15.96V6.9h3.765A17.074,17.074,0,0,1,18.42,8.03a3.208,3.208,0,0,1-1.26.78c.12.3.27.825.33,1.05.51-.18,1.275-.2,8.955-.585.405.39.765.765,1.035,1.08l.945-.645A22.156,22.156,0,0,0,25.1,6.9h3.96ZM31.32,17h6.03V15.86h-2.2V5.99H34.1a6.624,6.624,0,0,1-2.28.795v.87h1.95v8.2H31.32Zm11.4-5.805c1.335,0,1.995.945,1.995,2.43s-.825,2.5-1.875,2.5c-1.38,0-2.2-1.245-2.37-3.525A2.843,2.843,0,0,1,42.72,11.195Zm.12,6a3.3,3.3,0,0,0,3.15-3.57c0-2.3-1.185-3.45-3.045-3.45a3.42,3.42,0,0,0-2.5,1.335c.06-3.42,1.335-4.575,2.835-4.575a2.325,2.325,0,0,1,1.77.84l.75-.855A3.378,3.378,0,0,0,43.23,5.795c-2.13,0-4.065,1.65-4.065,5.955C39.165,15.38,40.725,17.195,42.84,17.195Zm5.9,0a.991.991,0,0,0,.99-1.035.993.993,0,1,0-1.98,0A.991.991,0,0,0,48.735,17.195Zm6.27,0c2.07,0,3.45-1.245,3.45-2.85a3.209,3.209,0,0,0-1.86-2.88V11.39a3.605,3.605,0,0,0,1.47-2.655,3.021,3.021,0,0,0-6.03-.105,3.057,3.057,0,0,0,1.485,2.535v.075a3.522,3.522,0,0,0-2.025,3.03C51.495,15.965,52.98,17.195,55.005,17.195Zm.75-6.165c-1.29-.51-2.475-1.08-2.475-2.4a1.693,1.693,0,0,1,1.755-1.785A1.823,1.823,0,0,1,56.9,8.81,2.95,2.95,0,0,1,55.755,11.03Zm-.72,5.145a2.108,2.108,0,0,1-2.3-2.025,2.989,2.989,0,0,1,1.5-2.49c1.56.63,2.91,1.185,2.91,2.655A1.9,1.9,0,0,1,55.035,16.175ZM62.22,12.74c1.515,0,2.5-1.275,2.5-3.495s-.99-3.45-2.5-3.45-2.49,1.245-2.49,3.45S60.72,12.74,62.22,12.74Zm0-.855c-.855,0-1.455-.885-1.455-2.64s.6-2.61,1.455-2.61,1.47.855,1.47,2.61S63.09,11.885,62.22,11.885Zm.33,5.31h.915l6.075-11.4h-.93Zm7.335,0c1.5,0,2.49-1.26,2.49-3.48s-.99-3.45-2.49-3.45-2.5,1.245-2.5,3.45S68.385,17.195,69.885,17.195Zm0-.84c-.87,0-1.455-.885-1.455-2.64s.585-2.61,1.455-2.61,1.455.855,1.455,2.61S70.74,16.355,69.885,16.355Z" transform="translate(1001 1049)" fill="#f2e6e6"/>
      <path id="內文p-5" data-name="內文p" d="M8.34,11.825a27.531,27.531,0,0,1,4.515,4.11l.84-.645a19.572,19.572,0,0,0-2.235-2.175A20.871,20.871,0,0,0,14,11.4l-.855-.675a17.364,17.364,0,0,1-2.385,1.8c-.555-.465-1.125-.9-1.65-1.275Zm3.09-5.76v1.41h-4.3V6.065Zm-4.3,3.72V8.315h4.3v1.47Zm0,4.77v-3.84H12.48V5.135H6.075v9.15a.969.969,0,0,1-.51.945A3.375,3.375,0,0,1,6,16.1c.3-.21.75-.375,3.9-1.35a8.926,8.926,0,0,1-.075-.96Zm-3-7.815A25.068,25.068,0,0,0,2.2,4.46l-.84.495A24.9,24.9,0,0,1,3.27,7.34Zm.105,4.83-.195.03h-1.8c.87-1.005,2.01-2.55,2.67-3.42L4.14,7.8l-.255.105H.765v.915H3.21A26.078,26.078,0,0,1,1.32,11.24a1.482,1.482,0,0,1-.735.435,8.125,8.125,0,0,1,.435,1.05,1.484,1.484,0,0,1,.885-.21H3.63A7.164,7.164,0,0,1,.48,17.42a3.313,3.313,0,0,1,.735.78,6.815,6.815,0,0,0,2.07-2.16C4.44,17.63,6.3,17.93,9.24,17.93c1.62,0,3.48-.045,4.86-.12a3.45,3.45,0,0,1,.375-1.065c-1.515.12-3.675.195-5.22.195-2.67,0-4.515-.225-5.52-1.725a11.93,11.93,0,0,0,1.05-3.42ZM19.425,4.55a15.414,15.414,0,0,1-4.065,6.015,6.383,6.383,0,0,1,.675,1.125,15.219,15.219,0,0,0,1.77-1.98v8.415H18.9V8.1a22.284,22.284,0,0,0,1.635-3.21ZM29.25,9.335V8.255H24.915v-3.6h-1.1v3.6H19.6v1.08h3.63A15.238,15.238,0,0,1,19.08,15.47a6.472,6.472,0,0,1,.84.855,16.748,16.748,0,0,0,3.9-5.775v7.605h1.1v-7.92a18.21,18.21,0,0,0,3.885,6.03,4,4,0,0,1,.84-.9,15.827,15.827,0,0,1-4.08-6.03Zm8.985,1.7v2.385H37.17V11.03Zm1.995,0v2.385H39.135V11.03Zm2.01,0v2.385H41.13V11.03Zm-5.955-.99h-1.56v.99h1.56v2.385h-1.35v.975H44.25v-.975H43.14V11.03h1.2v-.99h-1.2V8.06h-.9v1.98H41.13V8.06h-.9v1.98H39.135V8.06h-.9v1.98H37.17V8.045h-.855c.12-.18.255-.375.375-.585h7.425V6.47H37.23a14.956,14.956,0,0,0,.735-1.755l-.93-.27a11.075,11.075,0,0,1-2.445,4.14,4.858,4.858,0,0,1,.735.735,10.842,10.842,0,0,0,.96-1.245Zm-1.53,1.92-.21-1-1.17.435V8.495H34.5V7.46H33.375v-3H32.34v3H30.8V8.495H32.34v3.27c-.645.225-1.215.435-1.71.6l.315,1.065,1.4-.54v3.825c0,.195-.06.24-.24.24-.165.015-.69.015-1.29,0A4.048,4.048,0,0,1,31.14,18,4.157,4.157,0,0,0,32.9,17.78c.345-.18.48-.465.48-1.065v-4.23Zm.7,6.15a21.978,21.978,0,0,0,1.335-2.745l-.84-.39a13.142,13.142,0,0,1-1.38,2.655Zm2.355-2.97c.12.93.225,2.16.255,2.88l1.02-.15c-.045-.675-.165-1.86-.315-2.79Zm2.19.03c.285.93.63,2.16.78,2.88l.96-.24c-.15-.675-.51-1.89-.825-2.8Zm2.235.03c.45.93.99,2.175,1.245,2.895l.96-.36c-.27-.7-.825-1.905-1.305-2.82Zm5.01-7.545h.915V15.2l-.915.18Zm2.6,7.185-.975.21v-7.4h.975Zm1.74-.375-1.035.225V7.655h1.035Zm.885-.2V6.77H49.245c.225-.63.48-1.38.69-2.085l-1.155-.24a21.951,21.951,0,0,1-.66,2.325H46.38v8.79l-.87.165.2,1.095c1.965-.435,4.77-1.05,7.395-1.665l-.09-1.005Zm6.27-8.925H53.49V18.14h1.08V6.395h3.09v7.8c0,.195-.06.27-.27.27s-.945.015-1.755-.015a4.423,4.423,0,0,1,.375,1.17,5.671,5.671,0,0,0,2.175-.225c.45-.195.555-.57.555-1.185ZM62.97,17h1.425c.165-4.305.645-6.87,3.225-10.17V5.99H60.735V7.175H66.06C63.915,10.175,63.15,12.83,62.97,17Zm7.44.195a.991.991,0,0,0,.99-1.035.993.993,0,1,0-1.98,0A.991.991,0,0,0,70.41,17.195Zm6.255,0c2.085,0,3.42-1.9,3.42-5.73s-1.335-5.67-3.42-5.67S73.23,7.64,73.23,11.465,74.565,17.195,76.665,17.195Zm0-1.095c-1.26,0-2.1-1.4-2.1-4.635,0-3.21.84-4.575,2.1-4.575s2.085,1.365,2.085,4.575C78.75,14.7,77.91,16.1,76.665,16.1Zm7.23-3.36c1.515,0,2.505-1.275,2.505-3.495s-.99-3.45-2.505-3.45S81.4,7.04,81.4,9.245,82.395,12.74,83.895,12.74Zm0-.855c-.855,0-1.455-.885-1.455-2.64s.6-2.61,1.455-2.61c.87,0,1.47.855,1.47,2.61S84.765,11.885,83.895,11.885Zm.33,5.31h.915l6.075-11.4h-.93Zm7.335,0c1.5,0,2.49-1.26,2.49-3.48s-.99-3.45-2.49-3.45-2.5,1.245-2.5,3.45S90.06,17.195,91.56,17.195Zm0-.84c-.87,0-1.455-.885-1.455-2.64s.585-2.61,1.455-2.61,1.455.855,1.455,2.61S92.415,16.355,91.56,16.355Z" transform="translate(889 1075)" fill="#f2e6e6"/>
      <path id="內文p-6" data-name="內文p" d="M4.1,6.65A14.111,14.111,0,0,0,2.91,4.55l-.87.36A22.29,22.29,0,0,1,3.18,7.1ZM9.51,12.5v1.545H7.245V12.5Zm3.39,1.545H10.515V12.5H12.9ZM10.515,16.52V14.915H12.9V16.52Zm-3.27-1.605H9.51V16.52H7.245ZM6.21,12.47c-.345-.33-1.4-1.275-1.905-1.695A13.814,13.814,0,0,0,6.03,7.61L5.415,7.2,5.2,7.25H.885V8.27H4.65A13.141,13.141,0,0,1,.345,13.19a5,5,0,0,1,.57,1.005,14.286,14.286,0,0,0,2.01-1.77v5.7h1.08V11.69c.54.555,1.26,1.32,1.575,1.725l.63-.87v5.61H7.245v-.7H12.9v.66h1.08V11.555H6.21Zm6.03-2.76H8V8.06H12.24ZM6.99,7.16v3.435h6.3V7.16ZM6.15,5.18v.96h7.92V5.18ZM20.01,6.185a18.3,18.3,0,0,0,2.7-.8l-.825-.855A29.276,29.276,0,0,1,15.69,5.99a3.192,3.192,0,0,1,.345.885c.93-.135,1.92-.285,2.9-.465V8.945H15.8v1.02H18.7a15.6,15.6,0,0,1-3.24,5.07,7.234,7.234,0,0,1,.615,1.035,16.092,16.092,0,0,0,2.85-4.425V18.11h1.08V12.2c.765.7,1.725,1.665,2.175,2.16l.645-.915c-.435-.39-2.145-1.86-2.82-2.385V9.965h2.865V8.945H20.01Zm4.95.045H23.88v8.2h1.08Zm2.58-1.485V16.67c0,.285-.12.375-.39.375-.285.015-1.23.015-2.28-.015a4.435,4.435,0,0,1,.405,1.125,10.192,10.192,0,0,0,2.7-.2c.465-.195.675-.54.675-1.3V4.745Zm5.115,7.3c.015-.6.03-1.185.03-1.695V9.53H34.95v2.52Zm2.3-6.015v2.46H32.685V6.035ZM35.985,5h-4.32v5.355c0,2.2-.075,5.175-1.11,7.275a3.681,3.681,0,0,1,.915.54A14.865,14.865,0,0,0,32.6,13.115H34.95v3.69c0,.21-.075.27-.285.285-.18.015-.81.015-1.5,0a3.2,3.2,0,0,1,.315,1.065,4.908,4.908,0,0,0,1.995-.21c.39-.195.51-.525.51-1.125Zm6.855,6.135a11.28,11.28,0,0,1-1.5,3.36,12.946,12.946,0,0,1-1.635-3.36Zm.57-1.065-.195.03h-4.86V6.08h4.2V7.91c0,.18-.06.24-.3.24s-1.005.015-1.92,0a3.153,3.153,0,0,1,.36.945,9.377,9.377,0,0,0,2.355-.15c.45-.165.585-.45.585-1.02V5.045h-6.33v13.11h1.05v-7.02h.375a15.977,15.977,0,0,0,1.995,4.2,8.224,8.224,0,0,1-2.295,1.9,3.892,3.892,0,0,1,.66.825,8.772,8.772,0,0,0,2.265-1.92,9.111,9.111,0,0,0,2.43,2.025,3.894,3.894,0,0,1,.72-.855A8.083,8.083,0,0,1,42,15.35,12.831,12.831,0,0,0,44.055,10.3ZM56.82,6.965A5.632,5.632,0,0,1,55.365,8.9a6.656,6.656,0,0,1-1.7-1.935Zm-6,6.51a12.988,12.988,0,0,0,.885-2.34,4.2,4.2,0,0,1,.4.585,11.724,11.724,0,0,0,3.27-1.53,10.767,10.767,0,0,0,3.4,1.59,4.946,4.946,0,0,1,.705-.96,9.948,9.948,0,0,1-3.255-1.305,6.965,6.965,0,0,0,1.8-2.55H59.19V6.02H54.21a11.9,11.9,0,0,0,.69-1.29l-1.065-.285a9.218,9.218,0,0,1-2.85,3.66,7.078,7.078,0,0,1,.915.645,11.967,11.967,0,0,0,1.08-1.065,8.554,8.554,0,0,0,1.545,1.83A9.938,9.938,0,0,1,51.84,10.67c.075-.27.15-.54.225-.8l-.675-.24-.165.06h-1.11l.57-.645a8.617,8.617,0,0,0-1.26-.9A11.23,11.23,0,0,0,51.87,5.6l-.72-.45-.195.045h-5.04V6.17H50.16a10.551,10.551,0,0,1-1.575,1.485c-.48-.255-.99-.495-1.455-.69l-.69.72a15.309,15.309,0,0,1,3.33,2.01H45.75v.975h2.265A11.3,11.3,0,0,1,45.6,14.69a5.9,5.9,0,0,1,.585,1.035,12.013,12.013,0,0,0,2.19-3.69V16.85c0,.165-.06.21-.24.225-.195,0-.78,0-1.425-.015a4.1,4.1,0,0,1,.345,1.02,5.886,5.886,0,0,0,1.875-.165c.375-.2.495-.5.495-1.065V10.67h1.44a15.634,15.634,0,0,1-.81,2.415Zm4.53-.66c.09-.48.165-.975.21-1.485H54.435c-.045.51-.1,1-.195,1.485H51.66v.93H54a5.142,5.142,0,0,1-3.48,3.54,3.624,3.624,0,0,1,.66.855,6.086,6.086,0,0,0,3.975-4.395h2.52c-.225,2.055-.45,2.895-.735,3.18a.635.635,0,0,1-.51.15c-.24,0-.84-.015-1.485-.075a2.916,2.916,0,0,1,.3,1.035,15.852,15.852,0,0,0,1.665.015,1.353,1.353,0,0,0,.93-.39c.435-.435.72-1.575.99-4.365.015-.18.03-.48.03-.48Zm8.565,4.38a3.571,3.571,0,0,0,3.6-3.78A3.138,3.138,0,0,0,64.2,9.92a3.2,3.2,0,0,0-1.635.435l.27-3.18H66.99V5.99H61.635l-.345,5.16.735.45a2.992,2.992,0,0,1,1.83-.645,2.225,2.225,0,0,1,2.28,2.505,2.376,2.376,0,0,1-2.34,2.6,3.617,3.617,0,0,1-2.7-1.215l-.675.9A4.671,4.671,0,0,0,63.915,17.195Zm6.495,0a.991.991,0,0,0,.99-1.035.993.993,0,1,0-1.98,0A.991.991,0,0,0,70.41,17.195Zm6.27,0c2.07,0,3.45-1.245,3.45-2.85a3.209,3.209,0,0,0-1.86-2.88V11.39a3.605,3.605,0,0,0,1.47-2.655,3.021,3.021,0,0,0-6.03-.105,3.057,3.057,0,0,0,1.485,2.535v.075a3.522,3.522,0,0,0-2.025,3.03C73.17,15.965,74.655,17.195,76.68,17.195Zm.75-6.165c-1.29-.51-2.475-1.08-2.475-2.4A1.693,1.693,0,0,1,76.71,6.845,1.823,1.823,0,0,1,78.57,8.81,2.95,2.95,0,0,1,77.43,11.03Zm-.72,5.145a2.108,2.108,0,0,1-2.295-2.025,2.989,2.989,0,0,1,1.5-2.49c1.56.63,2.91,1.185,2.91,2.655A1.9,1.9,0,0,1,76.71,16.175Zm7.185-3.435c1.515,0,2.505-1.275,2.505-3.495s-.99-3.45-2.505-3.45S81.4,7.04,81.4,9.245,82.395,12.74,83.895,12.74Zm0-.855c-.855,0-1.455-.885-1.455-2.64s.6-2.61,1.455-2.61c.87,0,1.47.855,1.47,2.61S84.765,11.885,83.895,11.885Zm.33,5.31h.915l6.075-11.4h-.93Zm7.335,0c1.5,0,2.49-1.26,2.49-3.48s-.99-3.45-2.49-3.45-2.5,1.245-2.5,3.45S90.06,17.195,91.56,17.195Zm0-.84c-.87,0-1.455-.885-1.455-2.64s.585-2.61,1.455-2.61,1.455.855,1.455,2.61S92.415,16.355,91.56,16.355Z" transform="translate(868 1100)" fill="#f2e6e6"/>
      <path id="內文p-7" data-name="內文p" d="M4.005,4.475A16.708,16.708,0,0,1,.3,10.355,7.313,7.313,0,0,1,.93,11.42,16.4,16.4,0,0,0,2.475,9.56v8.55h1.08V7.865A21.4,21.4,0,0,0,5.025,4.79Zm3.7,11.31A10.654,10.654,0,0,1,4.365,17.36a6.3,6.3,0,0,1,.87.78A12.927,12.927,0,0,0,8.76,16.19Zm4.545-4.215H6.81v-.915h5.445Zm0,1.59H6.81v-.93h5.445Zm0,1.6H6.81V13.82h5.445Zm1.1-4.86H5.745V15.53H13.35Zm-2.94,6.3a20.42,20.42,0,0,1,2.925,2.025l.99-.615a20.688,20.688,0,0,0-2.925-1.89ZM10.02,8.36V7.55h3.45V6.8H10.02V6.05h3.84V5.285H10.02V4.46H8.91v.825H5.22V6.05H8.91V6.8H5.61v.75h3.3v.81H4.56v.81h9.765V8.36Zm16.8-1.4A5.632,5.632,0,0,1,25.365,8.9a6.656,6.656,0,0,1-1.7-1.935Zm-6,6.51a12.988,12.988,0,0,0,.885-2.34,4.2,4.2,0,0,1,.405.585,11.724,11.724,0,0,0,3.27-1.53,10.767,10.767,0,0,0,3.4,1.59,4.946,4.946,0,0,1,.705-.96,9.948,9.948,0,0,1-3.255-1.305,6.965,6.965,0,0,0,1.8-2.55H29.19V6.02H24.21a11.9,11.9,0,0,0,.69-1.29l-1.065-.285a9.218,9.218,0,0,1-2.85,3.66,7.078,7.078,0,0,1,.915.645,11.967,11.967,0,0,0,1.08-1.065,8.554,8.554,0,0,0,1.545,1.83A9.938,9.938,0,0,1,21.84,10.67c.075-.27.15-.54.225-.8l-.675-.24-.165.06h-1.11l.57-.645a8.616,8.616,0,0,0-1.26-.9A11.23,11.23,0,0,0,21.87,5.6l-.72-.45-.2.045h-5.04V6.17H20.16a10.551,10.551,0,0,1-1.575,1.485c-.48-.255-.99-.495-1.455-.69l-.69.72a15.309,15.309,0,0,1,3.33,2.01H15.75v.975h2.265A11.3,11.3,0,0,1,15.6,14.69a5.9,5.9,0,0,1,.585,1.035,12.013,12.013,0,0,0,2.19-3.69V16.85c0,.165-.06.21-.24.225-.195,0-.78,0-1.425-.015a4.1,4.1,0,0,1,.345,1.02,5.886,5.886,0,0,0,1.875-.165c.375-.2.495-.5.495-1.065V10.67h1.44a15.634,15.634,0,0,1-.81,2.415Zm4.53-.66c.09-.48.165-.975.21-1.485H24.435c-.045.51-.1,1-.195,1.485H21.66v.93H24a5.142,5.142,0,0,1-3.48,3.54,3.624,3.624,0,0,1,.66.855,6.086,6.086,0,0,0,3.975-4.395h2.52c-.225,2.055-.45,2.895-.735,3.18a.635.635,0,0,1-.51.15c-.24,0-.84-.015-1.485-.075a2.916,2.916,0,0,1,.3,1.035,15.852,15.852,0,0,0,1.665.015,1.353,1.353,0,0,0,.93-.39c.435-.435.72-1.575.99-4.365.015-.18.03-.48.03-.48ZM34.44,4.55a16.679,16.679,0,0,1-3.81,6.06,8.807,8.807,0,0,1,.69,1.1A15.645,15.645,0,0,0,32.835,9.89v8.22h1.11V8.165a23.508,23.508,0,0,0,1.59-3.27Zm9.825,3.225h-1.9V4.625H41.235v3.15H35.19v1.11h6.045v7.74c0,.345-.135.435-.465.465-.36.015-1.59.015-2.85-.03a5.039,5.039,0,0,1,.435,1.1,12.915,12.915,0,0,0,3.21-.18c.555-.165.795-.51.795-1.35V8.885h1.9Zm-4.92,6.315c-.48-.915-1.47-2.475-2.25-3.63l-.96.45c.765,1.2,1.725,2.805,2.175,3.735Zm9.675-3.255h6.915v1.2H49.02Zm0-2.055h6.915v1.2H49.02Zm0-2.055h6.915v1.2H49.02Zm2.28,6.66a11.82,11.82,0,0,1,1.995,2.355l.9-.555a11.68,11.68,0,0,0-2.01-2.25h4.86V5.84h-4.47a10.841,10.841,0,0,0,.7-1.32l-1.29-.225a10.9,10.9,0,0,1-.57,1.545H47.94v7.095H52.1Zm-4.545,4.05a26.456,26.456,0,0,0,1.47-3.09l-.96-.42a15.522,15.522,0,0,1-1.53,3.03Zm4.455-.585c-.975,0-1.14-.075-1.14-.48V13.94H48.96v2.445c0,1.185.45,1.5,2.19,1.5h3.42c1.455,0,1.815-.45,1.965-2.355a2.844,2.844,0,0,1-1.035-.42c-.075,1.515-.21,1.74-1.005,1.74ZM56.415,14.1a12.061,12.061,0,0,1,1.665,3.03l1.035-.48a11.55,11.55,0,0,0-1.71-2.97Zm7.5,3.09a3.571,3.571,0,0,0,3.6-3.78A3.138,3.138,0,0,0,64.2,9.92a3.2,3.2,0,0,0-1.635.435l.27-3.18H66.99V5.99H61.635l-.345,5.16.735.45a2.992,2.992,0,0,1,1.83-.645,2.225,2.225,0,0,1,2.28,2.505,2.376,2.376,0,0,1-2.34,2.6,3.617,3.617,0,0,1-2.7-1.215l-.675.9A4.671,4.671,0,0,0,63.915,17.195Zm6.495,0a.991.991,0,0,0,.99-1.035.993.993,0,1,0-1.98,0A.991.991,0,0,0,70.41,17.195ZM73.155,17H80.07V15.815H77.025c-.555,0-1.23.06-1.8.105,2.58-2.445,4.305-4.68,4.305-6.87a3.016,3.016,0,0,0-3.2-3.255,4.205,4.205,0,0,0-3.24,1.62l.795.78A3.079,3.079,0,0,1,76.17,6.92a1.933,1.933,0,0,1,2.025,2.175c0,1.89-1.59,4.08-5.04,7.1Zm10.74-4.26c1.515,0,2.505-1.275,2.505-3.495s-.99-3.45-2.505-3.45S81.4,7.04,81.4,9.245,82.395,12.74,83.895,12.74Zm0-.855c-.855,0-1.455-.885-1.455-2.64s.6-2.61,1.455-2.61c.87,0,1.47.855,1.47,2.61S84.765,11.885,83.895,11.885Zm.33,5.31h.915l6.075-11.4h-.93Zm7.335,0c1.5,0,2.49-1.26,2.49-3.48s-.99-3.45-2.49-3.45-2.5,1.245-2.5,3.45S90.06,17.195,91.56,17.195Zm0-.84c-.87,0-1.455-.885-1.455-2.64s.585-2.61,1.455-2.61,1.455.855,1.455,2.61S92.415,16.355,91.56,16.355Z" transform="translate(858 1126)" fill="#f2e6e6"/>
      <path id="內文p-8" data-name="內文p" d="M11.91,7.22H9.72V6.26h2.19Zm0,1.71H9.72V7.955h2.19ZM3.285,7.955h2.07V8.93H3.285Zm0-1.695h2.07v.96H3.285Zm5.34,1.695V8.93H6.45V7.955Zm0-1.695v.96H6.45V6.26Zm4.365-.765H9.72V4.445H8.625v1.05H6.45V4.445H5.355v1.05H2.25v4.2H12.99Zm-.54,9a22.457,22.457,0,0,1-2.76,1.29,4.759,4.759,0,0,1-1.38-1.29Zm-5.19,0c1.11,2.04,3.315,3.24,6.45,3.63a3.63,3.63,0,0,1,.63-.93,11.181,11.181,0,0,1-3.84-.945,22.634,22.634,0,0,0,2.82-1.14l-.735-.615h1.56V13.64H3.105c.03-.285.045-.54.06-.81H13.11v-.765H3.165v-.8h10.65v-.84H2.1v1.9a8.524,8.524,0,0,1-1.44,5.28,4.943,4.943,0,0,1,.945.57,8.066,8.066,0,0,0,1.41-3.69H4.41v1.83a.974.974,0,0,1-.66.96,2.64,2.64,0,0,1,.375.93c.285-.18.72-.285,4.215-1.14a5.1,5.1,0,0,1-.015-.84l-2.85.6v-2.34Zm13.11.855a13.431,13.431,0,0,1-4.44,1.485,4.048,4.048,0,0,1,.675.84A13.933,13.933,0,0,0,21.21,15.74Zm3.63.525c1.425.525,3.33,1.29,4.32,1.77l.69-.7c-1.035-.48-2.94-1.2-4.35-1.665Zm.885-7.83A11.734,11.734,0,0,1,24,9.53l.525.165h-4.14L21,9.53a6.033,6.033,0,0,0-.8-1.485Zm-1.86,5.61V12.53H27.72v-.855H23.025v-1.08h5.43v-.9H25.02a16.508,16.508,0,0,0,1.035-1.38l-.975-.27h3.9v-.93H26.67c.39-.57.885-1.4,1.305-2.16l-1.14-.315A12.525,12.525,0,0,1,25.68,6.92l.6.2H24.465V4.46H23.4V7.115H21.615V4.46h-1.05V7.115h-1.83l.75-.3a9.2,9.2,0,0,0-1.275-2.2l-.945.33a11.825,11.825,0,0,1,1.2,2.175H16.05v.93h3.87l-.8.21a6.406,6.406,0,0,1,.765,1.44H16.65v.9h5.28v1.08H17.415v.855H21.93v1.125H16V14.6H21.93v3.555h1.1V14.6H29.04v-.945Zm10.89,3.54a3.571,3.571,0,0,0,3.6-3.78A3.138,3.138,0,0,0,34.2,9.92a3.2,3.2,0,0,0-1.635.435l.27-3.18H36.99V5.99H31.635l-.345,5.16.735.45a2.992,2.992,0,0,1,1.83-.645,2.225,2.225,0,0,1,2.28,2.505,2.376,2.376,0,0,1-2.34,2.6,3.617,3.617,0,0,1-2.7-1.215l-.675.9A4.671,4.671,0,0,0,33.915,17.195Zm6.495,0a.991.991,0,0,0,.99-1.035.993.993,0,1,0-1.98,0A.991.991,0,0,0,40.41,17.195ZM43.815,17h6.03V15.86h-2.2V5.99H46.59a6.624,6.624,0,0,1-2.28.795v.87h1.95v8.2H43.815ZM53.9,12.74c1.515,0,2.5-1.275,2.5-3.495s-.99-3.45-2.5-3.45-2.49,1.245-2.49,3.45S52.4,12.74,53.9,12.74Zm0-.855c-.855,0-1.455-.885-1.455-2.64s.6-2.61,1.455-2.61,1.47.855,1.47,2.61S54.765,11.885,53.9,11.885Zm.33,5.31h.915l6.075-11.4h-.93Zm7.335,0c1.5,0,2.49-1.26,2.49-3.48s-.99-3.45-2.49-3.45-2.505,1.245-2.505,3.45S60.06,17.195,61.56,17.195Zm0-.84c-.87,0-1.455-.885-1.455-2.64s.585-2.61,1.455-2.61c.855,0,1.455.855,1.455,2.61S62.415,16.355,61.56,16.355Z" transform="translate(857 1151)" fill="#f2e6e6"/>
      <path id="內文p-9" data-name="內文p" d="M10.7,7.535A11.107,11.107,0,0,0,8.25,5.48l-.7.645A11.71,11.71,0,0,1,9.93,8.255Zm-.36,3.945A13.085,13.085,0,0,0,7.65,9.365l-.69.66a12.881,12.881,0,0,1,2.64,2.19ZM6.39,12.545c-.315-.405-1.605-2.055-2.07-2.58v-.27H6.525V8.645H4.32V6.14a13.313,13.313,0,0,0,1.965-.6L5.61,4.655a22.749,22.749,0,0,1-4.77,1.2,5.153,5.153,0,0,1,.33.87c.66-.09,1.365-.21,2.055-.345V8.645H.705v1.05h2.37A15.262,15.262,0,0,1,.5,14.4,5.043,5.043,0,0,1,1.05,15.41a15.881,15.881,0,0,0,2.175-3.915v6.63h1.1V11.18c.51.765,1.14,1.74,1.395,2.235Zm8.025,1.35-.165-1.02-1.755.27v-8.7H11.4v8.88l-5.07.81L6.51,15.2l4.89-.81v3.735h1.1V14.21Zm9.84-4.77a6.749,6.749,0,0,0-1.08-.825,8.531,8.531,0,0,0,.87-.96l-.78-.255a5.357,5.357,0,0,1-.75.795c-.39-.21-.78-.435-1.155-.6l-.555.495a11.026,11.026,0,0,1,1.08.585,9.017,9.017,0,0,1-1.425.825,3.87,3.87,0,0,1,.615.585,10.615,10.615,0,0,0,1.5-.975,8.179,8.179,0,0,1,1.08.87ZM24.21,6.44c-.27-.21-.63-.45-1.035-.7A7.7,7.7,0,0,0,24,4.82l-.78-.21a6.389,6.389,0,0,1-.7.735c-.39-.21-.765-.405-1.125-.555l-.54.495a10,10,0,0,1,1.05.54,9.041,9.041,0,0,1-1.335.765,4.7,4.7,0,0,1,.63.54,10.422,10.422,0,0,0,1.4-.9,7.423,7.423,0,0,1,1.035.765Zm-6.975,4.2H27.78V12.5h1.095V9.785h-1.17c.12-1.335.255-3.27.33-4.755H24.57v.765h2.385l-.045.81H24.645V7.37h2.22l-.075.81H24.555v.765H26.73c-.03.3-.06.57-.09.84H18.42l-.06-.84h2.085V8.18h-2.13l-.06-.81h2.13V6.6H18.21l-.06-.735a15.727,15.727,0,0,0,2.31-.585l-.5-.69a28.074,28.074,0,0,1-2.9.735l.3,4.455h-1.2V12.5h1.065Zm11.94,3.645h-6v-.27a15.631,15.631,0,0,0,3.39-1.86L25.89,11.6l-.225.06h-7.05v.84H24.48A13.923,13.923,0,0,1,22.1,13.64v.645H15.84v.945H22.1v1.695c0,.21-.06.255-.315.27-.225,0-1.065,0-2-.03a4.2,4.2,0,0,1,.39.945,8.975,8.975,0,0,0,2.415-.15c.465-.165.585-.42.585-1V15.23h6Zm4.74,2.91a3.571,3.571,0,0,0,3.6-3.78A3.138,3.138,0,0,0,34.2,9.92a3.2,3.2,0,0,0-1.635.435l.27-3.18H36.99V5.99H31.635l-.345,5.16.735.45a2.992,2.992,0,0,1,1.83-.645,2.225,2.225,0,0,1,2.28,2.505,2.376,2.376,0,0,1-2.34,2.6,3.617,3.617,0,0,1-2.7-1.215l-.675.9A4.671,4.671,0,0,0,33.915,17.195Zm6.495,0a.991.991,0,0,0,.99-1.035.993.993,0,1,0-1.98,0A.991.991,0,0,0,40.41,17.195Zm6.255,0c2.085,0,3.42-1.9,3.42-5.73s-1.335-5.67-3.42-5.67c-2.1,0-3.435,1.845-3.435,5.67S44.565,17.195,46.665,17.195Zm0-1.095c-1.26,0-2.1-1.4-2.1-4.635,0-3.21.84-4.575,2.1-4.575,1.245,0,2.085,1.365,2.085,4.575C48.75,14.7,47.91,16.1,46.665,16.1Zm7.23-3.36c1.515,0,2.5-1.275,2.5-3.495s-.99-3.45-2.5-3.45-2.49,1.245-2.49,3.45S52.4,12.74,53.9,12.74Zm0-.855c-.855,0-1.455-.885-1.455-2.64s.6-2.61,1.455-2.61,1.47.855,1.47,2.61S54.765,11.885,53.9,11.885Zm.33,5.31h.915l6.075-11.4h-.93Zm7.335,0c1.5,0,2.49-1.26,2.49-3.48s-.99-3.45-2.49-3.45-2.505,1.245-2.505,3.45S60.06,17.195,61.56,17.195Zm0-.84c-.87,0-1.455-.885-1.455-2.64s.585-2.61,1.455-2.61c.855,0,1.455.855,1.455,2.61S62.415,16.355,61.56,16.355Z" transform="translate(856 1176)" fill="#f2e6e6"/>
      <path id="內文p-10" data-name="內文p" d="M13.92,6.515H7.755l.675-.27A12.055,12.055,0,0,0,7.32,4.31l-1.035.36a14.07,14.07,0,0,1,.99,1.845H1.05v1.1H13.92ZM9.27,8.69a20.4,20.4,0,0,1,3.8,3.315l.915-.72a22.232,22.232,0,0,0-3.855-3.24ZM4.8,8.075A13.534,13.534,0,0,1,1.11,11.12a9.056,9.056,0,0,1,.855.84,17.437,17.437,0,0,0,3.9-3.465Zm4.95,2.52A8.754,8.754,0,0,1,7.545,14,9.226,9.226,0,0,1,5.3,10.685l-.99.3a10.827,10.827,0,0,0,2.43,3.7A14.522,14.522,0,0,1,.75,17.18a4.72,4.72,0,0,1,.675,1,16.067,16.067,0,0,0,6.12-2.76A13.5,13.5,0,0,0,13.62,18.05a4.268,4.268,0,0,1,.69-1A12.994,12.994,0,0,1,8.385,14.7a10.678,10.678,0,0,0,2.505-3.8ZM24.015,9.05v1.32H21.45V9.05Zm3.66,1.32H24.99V9.05h2.685ZM24.99,12.56V11.195h2.685V12.56Zm-3.54,0V11.195h2.565V12.56Zm0,.855h2.565V15.86h.975V13.415h2.685V14.81c0,.2-.06.24-.255.255s-.8,0-1.53-.015a3.249,3.249,0,0,1,.3.885,6.376,6.376,0,0,0,2-.165c.39-.165.51-.405.51-.945V8.195h-1.86c-.315-.195-.72-.375-1.17-.6a13.262,13.262,0,0,0,3.03-2.055l-.675-.525-.225.06h-7.32v.87H26.76a12.661,12.661,0,0,1-2.07,1.2c-.7-.3-1.455-.6-2.1-.825l-.7.63c.9.33,1.98.81,2.865,1.245H20.445V15.86H21.45Zm-2.4-6.66a24.7,24.7,0,0,0-1.9-2.28l-.825.495a22.15,22.15,0,0,1,1.875,2.385Zm.03,4.815-.195.03h-1.71c.855-1.005,2-2.55,2.625-3.42l-.735-.345-.195.075H15.765v.915h2.4A28.411,28.411,0,0,1,16.29,11.27a1.459,1.459,0,0,1-.72.435,10.313,10.313,0,0,1,.405,1.02,1.484,1.484,0,0,1,.885-.21H18.5a7.4,7.4,0,0,1-3,4.905,5.108,5.108,0,0,1,.735.765,6.712,6.712,0,0,0,1.98-2.19c1.17,1.62,3.03,1.935,6.03,1.935,1.635,0,3.495-.045,4.9-.12a3.084,3.084,0,0,1,.36-1.065c-1.53.12-3.705.195-5.265.195-2.715,0-4.59-.225-5.6-1.785a12.453,12.453,0,0,0,.99-3.375Zm12.645,1.305,2.5-3.75c.315-.54.615-1.08.885-1.62h.06c-.03.57-.075,1.455-.075,1.995v3.375ZM35.1,17h1.29V13.97h1.455V12.875H36.39V5.99H34.875L30.3,13.07v.9h4.8Zm5.31.195a.991.991,0,0,0,.99-1.035.993.993,0,1,0-1.98,0A.991.991,0,0,0,40.41,17.195ZM43.815,17h6.03V15.86h-2.2V5.99H46.59a6.624,6.624,0,0,1-2.28.795v.87h1.95v8.2H43.815ZM53.9,12.74c1.515,0,2.5-1.275,2.5-3.495s-.99-3.45-2.5-3.45-2.49,1.245-2.49,3.45S52.4,12.74,53.9,12.74Zm0-.855c-.855,0-1.455-.885-1.455-2.64s.6-2.61,1.455-2.61,1.47.855,1.47,2.61S54.765,11.885,53.9,11.885Zm.33,5.31h.915l6.075-11.4h-.93Zm7.335,0c1.5,0,2.49-1.26,2.49-3.48s-.99-3.45-2.49-3.45-2.505,1.245-2.505,3.45S60.06,17.195,61.56,17.195Zm0-.84c-.87,0-1.455-.885-1.455-2.64s.585-2.61,1.455-2.61c.855,0,1.455.855,1.455,2.61S62.415,16.355,61.56,16.355Z" transform="translate(840 1202)" fill="#f2e6e6"/>
      <path id="內文p-11" data-name="內文p" d="M8.325,11.645v2.79H3.51v-2.79Zm1.1,3.78v-4.77h-7V16.52h1.1v-1.1Zm1.02-7.38H1.47v1h8.97ZM13.275,5.42H1.365V6.485H12.15V16.49c0,.285-.075.36-.36.375s-1.335.015-2.37-.015a4.013,4.013,0,0,1,.39,1.2,9.813,9.813,0,0,0,2.79-.21c.51-.195.675-.585.675-1.35Zm5.79,4.725a13.449,13.449,0,0,0-2.79-1.5l-.6.81a13.965,13.965,0,0,1,2.775,1.62Zm-1.95,7.8A54.418,54.418,0,0,0,19.83,13.13l-.81-.735a44.759,44.759,0,0,1-2.835,4.8ZM16.485,5.42A14.127,14.127,0,0,1,19.29,7.1l.645-.93a14.728,14.728,0,0,0-2.85-1.56ZM29.07,17.63a19.466,19.466,0,0,0-2.655-4.245l-.885.42a20.909,20.909,0,0,1,1.335,1.935l-4.74.525a29.917,29.917,0,0,0,2.64-4.44H29.01V10.76H25.065V8.09H28.38V7.025H25.065V4.445h-1.11v2.58H20.76V8.09h3.195v2.67H20.1v1.065h3.345a24.865,24.865,0,0,1-2.07,3.72c-.375.54-.675.9-.96.975a8.073,8.073,0,0,1,.375,1.11c.4-.195,1.035-.3,6.6-.99a13.557,13.557,0,0,1,.69,1.485ZM30.66,17h6.915V15.815H34.53c-.555,0-1.23.06-1.8.105,2.58-2.445,4.305-4.68,4.305-6.87A3.016,3.016,0,0,0,33.84,5.795a4.205,4.205,0,0,0-3.24,1.62l.8.78a3.079,3.079,0,0,1,2.28-1.275A1.933,1.933,0,0,1,35.7,9.095c0,1.89-1.59,4.08-5.04,7.1Zm9.75.195a.991.991,0,0,0,.99-1.035.993.993,0,1,0-1.98,0A.991.991,0,0,0,40.41,17.195ZM45.465,17H46.89c.165-4.305.645-6.87,3.225-10.17V5.99H43.23V7.175h5.325C46.41,10.175,45.645,12.83,45.465,17Zm8.43-4.26c1.515,0,2.5-1.275,2.5-3.495s-.99-3.45-2.5-3.45-2.49,1.245-2.49,3.45S52.4,12.74,53.9,12.74Zm0-.855c-.855,0-1.455-.885-1.455-2.64s.6-2.61,1.455-2.61,1.47.855,1.47,2.61S54.765,11.885,53.9,11.885Zm.33,5.31h.915l6.075-11.4h-.93Zm7.335,0c1.5,0,2.49-1.26,2.49-3.48s-.99-3.45-2.49-3.45-2.505,1.245-2.505,3.45S60.06,17.195,61.56,17.195Zm0-.84c-.87,0-1.455-.885-1.455-2.64s.585-2.61,1.455-2.61c.855,0,1.455.855,1.455,2.61S62.415,16.355,61.56,16.355Z" transform="translate(815 1227)" fill="#f2e6e6"/>
      <path id="內文p-12" data-name="內文p" d="M4.71,12.275h5.55V13.91H4.71ZM10.26,7.25V8.735H4.71V7.25ZM4.71,9.695h5.55v1.62H4.71Zm9.405,4.215H11.37V7.25h2.4V6.2h-2.4V4.49H10.26V6.2H4.71V4.49H3.615V6.2H1.29V7.25H3.615v6.66H.87v1.035H14.13ZM5.43,15.215A19.66,19.66,0,0,1,.72,17.27a7.454,7.454,0,0,1,.735.855A26.682,26.682,0,0,0,6.42,15.9Zm3.18.78a31.046,31.046,0,0,1,4.56,2.1l1.005-.75A38.592,38.592,0,0,0,9.36,15.29ZM19.035,4.5a16.91,16.91,0,0,1-3.7,5.955,5.757,5.757,0,0,1,.63,1.08,13.958,13.958,0,0,0,1.485-1.8v8.385H18.51V8.1a22.5,22.5,0,0,0,1.56-3.27ZM23.31,17c-1.05,0-1.245-.195-1.245-1.065v-5.34l2.19-.855v5.085h1.02V9.335l2.4-.93c-.03,1.95-.12,4.245-.27,5.655l.915.27c.24-1.77.39-4.635.435-6.8l.045-.21-.825-.255-.21.165-2.49.96V4.475h-1.02v4.11l-2.19.855V5.96H21v3.9l-1.9.75.42.975L21,11.015v4.92c0,1.65.525,2.07,2.3,2.07H27.24c1.635,0,1.98-.66,2.175-2.745a3.19,3.19,0,0,1-1.02-.42C28.275,16.595,28.11,17,27.21,17ZM44.115,5.195H36.21v1.02h7.905Zm-.09,6.78a17.318,17.318,0,0,0-1.8-2.55c.51-.75,1.11-1.7,1.545-2.46l-.99-.27a25.425,25.425,0,0,1-1.665,2.76,16.409,16.409,0,0,1,2.01,2.955ZM40.215,6.71A25.21,25.21,0,0,1,38.6,9.44a13.464,13.464,0,0,1,1.86,2.94l.93-.42A20.135,20.135,0,0,0,39.69,9.41c.495-.735,1.08-1.695,1.5-2.445Zm-1.44,5.31a18.039,18.039,0,0,0-1.65-2.595A28.422,28.422,0,0,0,38.61,6.95l-.975-.255c-.345.7-.99,1.845-1.575,2.76a15.128,15.128,0,0,1,1.785,2.955Zm-2.73,1.155A19.268,19.268,0,0,0,35.07,10.1l-.855.24c.18.45.345.96.51,1.47l-2.355.3A29.87,29.87,0,0,0,35.7,7.28l-.96-.57a21.108,21.108,0,0,1-1.08,2l-1.545.135A26.677,26.677,0,0,0,34.4,4.85l-.99-.4a20.744,20.744,0,0,1-1.98,3.765c-.315.465-.57.765-.825.825a9.9,9.9,0,0,1,.345.99,7.856,7.856,0,0,1,2.07-.345c-.54.8-1.005,1.425-1.23,1.7-.435.54-.78.915-1.11.99a7.136,7.136,0,0,1,.36,1.035c.3-.15.75-.255,3.93-.735a7.783,7.783,0,0,1,.165.81Zm-4.725.87a16.874,16.874,0,0,1-.72,3.5c.225.09.69.24.885.345a18.958,18.958,0,0,0,.765-3.69Zm1.53.1a26.466,26.466,0,0,1,.375,3.165l.9-.15a25.341,25.341,0,0,0-.42-3.15Zm1.455-.27a20.212,20.212,0,0,1,.735,2.535l.825-.285a16.667,16.667,0,0,0-.765-2.5Zm6.315,2.895v-2.85h3.045v-1H36.54v1h2.985v2.85H35.7V17.8h8.565v-1.02Zm18.5-10.89H54.63a10.125,10.125,0,0,0-.435-1.545l-1.02.135a9.206,9.206,0,0,1,.345,1.41H49.26V6.8h9.855Zm-4.08.93a11.913,11.913,0,0,1-1.47,1.74V11.72h.855V8.555a18.523,18.523,0,0,0,1.425-1.44Zm-5.685,1.2V8.78h.855a3.33,3.33,0,0,1-1.425,2.43,2.684,2.684,0,0,1,.5.63A4.11,4.11,0,0,0,51,8.78h.855a6.578,6.578,0,0,1-.195,1.965.246.246,0,0,1-.27.105c-.12,0-.345,0-.675-.03a2.132,2.132,0,0,1,.195.75,4.666,4.666,0,0,0,.81-.015.726.726,0,0,0,.6-.285c.225-.255.27-.99.33-2.9,0-.135.015-.36.015-.36Zm4.41.015a4.492,4.492,0,0,0-.705-1.17l-.63.27a4.785,4.785,0,0,1,.66,1.245ZM48.78,6.485A12.173,12.173,0,0,0,46.59,4.61l-.6.645A11.182,11.182,0,0,1,48.15,7.22ZM46.575,17.9c.6-1.35,1.335-3.18,1.89-4.725l-.75-.555a45.562,45.562,0,0,1-1.98,4.725Zm-.99-8.445A12.707,12.707,0,0,1,47.9,11.09l.585-.765a11.752,11.752,0,0,0-2.34-1.56ZM51.39,14.9a6.953,6.953,0,0,0,.075-1.095V13.67h5.16V14.9Zm5.235-2.13h-5.16V11.8H50.43V13.79a4.311,4.311,0,0,1-1.77,3.795,3.154,3.154,0,0,1,.84.6A4.286,4.286,0,0,0,51.195,15.8h5.43v2.37h1.05V11.78h-1.05Zm1.29-5.325a10.318,10.318,0,0,1-2.46.915v1.815c0,.57-.18.8-.33.9a5.667,5.667,0,0,1,.375.735v.015a7.88,7.88,0,0,1,2-.78,3.618,3.618,0,0,1-.12-.63l-1.2.345V8.87c.27-.075.57-.15.87-.24a5.508,5.508,0,0,0,1.59,3.015,2.518,2.518,0,0,1,.525-.6,4.721,4.721,0,0,1-1.515-2.61,8.347,8.347,0,0,0,.96-.42Zm4.74,4.6c.015-.6.03-1.185.03-1.695V9.53H64.95v2.52ZM64.95,6.035v2.46H62.685V6.035ZM65.985,5h-4.32v5.355c0,2.2-.075,5.175-1.11,7.275a3.682,3.682,0,0,1,.915.54A14.865,14.865,0,0,0,62.6,13.115H64.95v3.69c0,.21-.075.27-.285.285-.18.015-.81.015-1.5,0a3.2,3.2,0,0,1,.315,1.065,4.908,4.908,0,0,0,1.995-.21c.39-.195.51-.525.51-1.125Zm6.855,6.135a11.28,11.28,0,0,1-1.5,3.36,12.946,12.946,0,0,1-1.635-3.36Zm.57-1.065-.2.03h-4.86V6.08h4.2V7.91c0,.18-.06.24-.3.24-.225.015-1,.015-1.92,0a3.153,3.153,0,0,1,.36.945,9.377,9.377,0,0,0,2.355-.15c.45-.165.585-.45.585-1.02V5.045h-6.33v13.11h1.05v-7.02h.375a15.977,15.977,0,0,0,1.995,4.2,8.224,8.224,0,0,1-2.295,1.9,3.892,3.892,0,0,1,.66.825,8.772,8.772,0,0,0,2.265-1.92,9.111,9.111,0,0,0,2.43,2.025,3.894,3.894,0,0,1,.72-.855A8.082,8.082,0,0,1,72,15.35,12.831,12.831,0,0,0,74.055,10.3ZM86.82,6.965A5.631,5.631,0,0,1,85.365,8.9,6.656,6.656,0,0,1,83.67,6.965Zm-6,6.51a12.988,12.988,0,0,0,.885-2.34,4.2,4.2,0,0,1,.4.585,11.724,11.724,0,0,0,3.27-1.53,10.767,10.767,0,0,0,3.405,1.59,4.945,4.945,0,0,1,.7-.96,9.948,9.948,0,0,1-3.255-1.305,6.965,6.965,0,0,0,1.8-2.55H89.19V6.02H84.21a11.9,11.9,0,0,0,.69-1.29l-1.065-.285a9.218,9.218,0,0,1-2.85,3.66,7.078,7.078,0,0,1,.915.645,11.967,11.967,0,0,0,1.08-1.065,8.554,8.554,0,0,0,1.545,1.83A9.938,9.938,0,0,1,81.84,10.67c.075-.27.15-.54.225-.8l-.675-.24-.165.06h-1.11l.57-.645a8.616,8.616,0,0,0-1.26-.9A11.23,11.23,0,0,0,81.87,5.6l-.72-.45-.195.045h-5.04V6.17H80.16a10.551,10.551,0,0,1-1.575,1.485c-.48-.255-.99-.495-1.455-.69l-.69.72a15.309,15.309,0,0,1,3.33,2.01H75.75v.975h2.265A11.3,11.3,0,0,1,75.6,14.69a5.9,5.9,0,0,1,.585,1.035,12.013,12.013,0,0,0,2.19-3.69V16.85c0,.165-.06.21-.24.225-.195,0-.78,0-1.425-.015a4.1,4.1,0,0,1,.345,1.02,5.886,5.886,0,0,0,1.875-.165c.375-.2.5-.5.5-1.065V10.67h1.44a15.634,15.634,0,0,1-.81,2.415Zm4.53-.66c.09-.48.165-.975.21-1.485H84.435c-.045.51-.1,1-.195,1.485H81.66v.93H84a5.142,5.142,0,0,1-3.48,3.54,3.624,3.624,0,0,1,.66.855,6.086,6.086,0,0,0,3.975-4.395h2.52c-.225,2.055-.45,2.895-.735,3.18a.635.635,0,0,1-.51.15c-.24,0-.84-.015-1.485-.075a2.916,2.916,0,0,1,.3,1.035,15.852,15.852,0,0,0,1.665.015,1.353,1.353,0,0,0,.93-.39c.435-.435.72-1.575.99-4.365.015-.18.03-.48.03-.48ZM90.66,17h6.915V15.815H94.53c-.555,0-1.23.06-1.8.105,2.58-2.445,4.305-4.68,4.305-6.87a3.016,3.016,0,0,0-3.2-3.255,4.205,4.205,0,0,0-3.24,1.62l.795.78a3.079,3.079,0,0,1,2.28-1.275A1.933,1.933,0,0,1,95.7,9.095c0,1.89-1.59,4.08-5.04,7.1Zm9.75.195a.991.991,0,0,0,.99-1.035.993.993,0,1,0-1.98,0A.991.991,0,0,0,100.41,17.195Zm6,0a3.571,3.571,0,0,0,3.6-3.78,3.138,3.138,0,0,0-3.315-3.495,3.2,3.2,0,0,0-1.635.435l.27-3.18h4.155V5.99H104.13l-.345,5.16.735.45a2.992,2.992,0,0,1,1.83-.645,2.225,2.225,0,0,1,2.28,2.505,2.376,2.376,0,0,1-2.34,2.6,3.617,3.617,0,0,1-2.7-1.215l-.675.9A4.671,4.671,0,0,0,106.41,17.195Zm7.485-4.455c1.515,0,2.505-1.275,2.505-3.495s-.99-3.45-2.505-3.45-2.49,1.245-2.49,3.45S112.395,12.74,113.895,12.74Zm0-.855c-.855,0-1.455-.885-1.455-2.64s.6-2.61,1.455-2.61c.87,0,1.47.855,1.47,2.61S114.765,11.885,113.895,11.885Zm.33,5.31h.915l6.075-11.4h-.93Zm7.335,0c1.5,0,2.49-1.26,2.49-3.48s-.99-3.45-2.49-3.45-2.5,1.245-2.5,3.45S120.06,17.195,121.56,17.195Zm0-.84c-.87,0-1.455-.885-1.455-2.64s.585-2.61,1.455-2.61,1.455.855,1.455,2.61S122.415,16.355,121.56,16.355Z" transform="translate(813 1252)" fill="#f2e6e6"/>
      <path id="內文p-13" data-name="內文p" d="M2.925,11.825V9.56H6.87a17.576,17.576,0,0,0,.3,2.265Zm8.355-5.55V8.51H2.925V6.275Zm2.22,6.6v-1.05H8.325A13.5,13.5,0,0,1,8,9.56H12.39V5.225H1.785v10.89a1.2,1.2,0,0,1-.66,1.095,3.857,3.857,0,0,1,.525,1.02c.375-.255.96-.42,5.46-1.755a6.679,6.679,0,0,1-.135-1.035l-4.05,1.14v-3.7H7.44c.87,2.985,2.58,5.115,4.6,5.1,1.1,0,1.545-.57,1.725-2.76a2.8,2.8,0,0,1-.975-.525c-.09,1.575-.255,2.175-.7,2.19-1.335.015-2.715-1.62-3.5-4ZM24.315,8.27H27.21a16.115,16.115,0,0,1-1.485,5.04A18.855,18.855,0,0,1,24.21,8.525Zm5.025,0V7.22H24.66c.24-.81.465-1.7.645-2.58l-1.11-.195a16.725,16.725,0,0,1-2.085,5.94V9.86H20.07V6.59h2.6V5.51H15.81V6.59h3.18v8.355l-1.53.33V8.84H16.44V15.5l-.885.18.21,1.11c1.86-.42,4.515-1.05,6.975-1.65l-.105-1-2.565.585V10.91h1.68l-.075.1a7.193,7.193,0,0,1,.885.735,12.073,12.073,0,0,0,.975-1.635,18.218,18.218,0,0,0,1.545,4.26,8.492,8.492,0,0,1-3.405,2.835,5.479,5.479,0,0,1,.645.975,9.884,9.884,0,0,0,3.375-2.79,8.306,8.306,0,0,0,3.015,2.76,5.855,5.855,0,0,1,.765-.945,7.478,7.478,0,0,1-3.12-2.8,17.265,17.265,0,0,0,1.98-6.135ZM31.32,17h6.03V15.86h-2.2V5.99H34.1a6.624,6.624,0,0,1-2.28.795v.87h1.95v8.2H31.32Zm9.09.195a.991.991,0,0,0,.99-1.035.993.993,0,1,0-1.98,0A.991.991,0,0,0,40.41,17.195Zm4.035-7.83c0-1.5.81-2.49,1.86-2.49,1.41,0,2.25,1.2,2.4,3.465a2.882,2.882,0,0,1-2.295,1.47C45.105,11.81,44.445,10.85,44.445,9.365Zm1.56,7.83c2.07,0,3.99-1.71,3.99-6.165,0-3.495-1.575-5.235-3.69-5.235a3.3,3.3,0,0,0-3.15,3.57c0,2.28,1.2,3.465,3.03,3.465a3.421,3.421,0,0,0,2.535-1.35c-.1,3.405-1.335,4.575-2.76,4.575a2.426,2.426,0,0,1-1.83-.84l-.765.855A3.5,3.5,0,0,0,46.005,17.195ZM53.9,12.74c1.515,0,2.5-1.275,2.5-3.495s-.99-3.45-2.5-3.45-2.49,1.245-2.49,3.45S52.4,12.74,53.9,12.74Zm0-.855c-.855,0-1.455-.885-1.455-2.64s.6-2.61,1.455-2.61,1.47.855,1.47,2.61S54.765,11.885,53.9,11.885Zm.33,5.31h.915l6.075-11.4h-.93Zm7.335,0c1.5,0,2.49-1.26,2.49-3.48s-.99-3.45-2.49-3.45-2.505,1.245-2.505,3.45S60.06,17.195,61.56,17.195Zm0-.84c-.87,0-1.455-.885-1.455-2.64s.585-2.61,1.455-2.61c.855,0,1.455.855,1.455,2.61S62.415,16.355,61.56,16.355Z" transform="translate(803 1278)" fill="#f2e6e6"/>
      <path id="內文p-14" data-name="內文p" d="M5.505,7.85H2.4V5.96H5.505Zm0,2.79H2.4v-1.9H5.505Zm0,2.835H2.4v-1.95H5.505ZM6.585,5.03H1.35v9.345H6.585ZM2.385,14.7A7.24,7.24,0,0,1,.555,17.5a6.966,6.966,0,0,1,.9.66,9.754,9.754,0,0,0,2-3.18Zm2.115.42a14.244,14.244,0,0,1,1.575,2.46l.945-.495A12.123,12.123,0,0,0,5.385,14.7ZM14.37,8H12.45V4.5h-1.1V8H7.05V9.035h3.9A13.93,13.93,0,0,1,6.72,14.96a4.5,4.5,0,0,1,.765.825,15.182,15.182,0,0,0,3.87-5.31v6.27c0,.255-.09.33-.33.33s-.96.015-1.8,0a3.747,3.747,0,0,1,.39,1.08,6.485,6.485,0,0,0,2.25-.225c.42-.195.585-.525.585-1.185V9.035h1.92ZM26.82,6.965A5.632,5.632,0,0,1,25.365,8.9a6.656,6.656,0,0,1-1.7-1.935Zm-6,6.51a12.988,12.988,0,0,0,.885-2.34,4.2,4.2,0,0,1,.405.585,11.724,11.724,0,0,0,3.27-1.53,10.767,10.767,0,0,0,3.4,1.59,4.946,4.946,0,0,1,.705-.96,9.948,9.948,0,0,1-3.255-1.305,6.965,6.965,0,0,0,1.8-2.55H29.19V6.02H24.21a11.9,11.9,0,0,0,.69-1.29l-1.065-.285a9.218,9.218,0,0,1-2.85,3.66,7.078,7.078,0,0,1,.915.645,11.967,11.967,0,0,0,1.08-1.065,8.554,8.554,0,0,0,1.545,1.83A9.938,9.938,0,0,1,21.84,10.67c.075-.27.15-.54.225-.8l-.675-.24-.165.06h-1.11l.57-.645a8.616,8.616,0,0,0-1.26-.9A11.23,11.23,0,0,0,21.87,5.6l-.72-.45-.2.045h-5.04V6.17H20.16a10.551,10.551,0,0,1-1.575,1.485c-.48-.255-.99-.495-1.455-.69l-.69.72a15.309,15.309,0,0,1,3.33,2.01H15.75v.975h2.265A11.3,11.3,0,0,1,15.6,14.69a5.9,5.9,0,0,1,.585,1.035,12.013,12.013,0,0,0,2.19-3.69V16.85c0,.165-.06.21-.24.225-.195,0-.78,0-1.425-.015a4.1,4.1,0,0,1,.345,1.02,5.886,5.886,0,0,0,1.875-.165c.375-.2.495-.5.495-1.065V10.67h1.44a15.634,15.634,0,0,1-.81,2.415Zm4.53-.66c.09-.48.165-.975.21-1.485H24.435c-.045.51-.1,1-.195,1.485H21.66v.93H24a5.142,5.142,0,0,1-3.48,3.54,3.624,3.624,0,0,1,.66.855,6.086,6.086,0,0,0,3.975-4.395h2.52c-.225,2.055-.45,2.895-.735,3.18a.635.635,0,0,1-.51.15c-.24,0-.84-.015-1.485-.075a2.916,2.916,0,0,1,.3,1.035,15.852,15.852,0,0,0,1.665.015,1.353,1.353,0,0,0,.93-.39c.435-.435.72-1.575.99-4.365.015-.18.03-.48.03-.48ZM31.32,17h6.03V15.86h-2.2V5.99H34.1a6.624,6.624,0,0,1-2.28.795v.87h1.95v8.2H31.32Zm9.09.195a.991.991,0,0,0,.99-1.035.993.993,0,1,0-1.98,0A.991.991,0,0,0,40.41,17.195ZM45.465,17H46.89c.165-4.305.645-6.87,3.225-10.17V5.99H43.23V7.175h5.325C46.41,10.175,45.645,12.83,45.465,17Zm8.43-4.26c1.515,0,2.5-1.275,2.5-3.495s-.99-3.45-2.5-3.45-2.49,1.245-2.49,3.45S52.4,12.74,53.9,12.74Zm0-.855c-.855,0-1.455-.885-1.455-2.64s.6-2.61,1.455-2.61,1.47.855,1.47,2.61S54.765,11.885,53.9,11.885Zm.33,5.31h.915l6.075-11.4h-.93Zm7.335,0c1.5,0,2.49-1.26,2.49-3.48s-.99-3.45-2.49-3.45-2.505,1.245-2.505,3.45S60.06,17.195,61.56,17.195Zm0-.84c-.87,0-1.455-.885-1.455-2.64s.585-2.61,1.455-2.61c.855,0,1.455.855,1.455,2.61S62.415,16.355,61.56,16.355Z" transform="translate(800 1303)" fill="#f2e6e6"/>
      <path id="內文p-15" data-name="內文p" d="M14.19,11.8H8.04V6.56h5.31v-1.1H1.62v1.1H6.9V11.8H.84V12.89H6.9v5.25H8.04V12.89h6.15ZM2.67,7.595A17.554,17.554,0,0,1,4.02,11.03l1.05-.36A14.37,14.37,0,0,0,3.645,7.3Zm7.95,3.48A29.451,29.451,0,0,0,12.465,7.55L11.3,7.22a22.384,22.384,0,0,1-1.62,3.54Zm18.39-5.58H25.935v1H29.01Zm-11-1.05a11.331,11.331,0,0,1-2.325,3.06,6.058,6.058,0,0,1,.6.825,15.224,15.224,0,0,0,2.73-3.5Zm5.1,2.16a11.352,11.352,0,0,1-.615,1.35H20.6a13.319,13.319,0,0,0,.75-1.35Zm1.14,3.45H22.92V8.765h1.335Zm0,2.1H22.92v-1.32h1.335Zm-3.585-2.1V8.765h1.41v1.29Zm1.41.78v1.32H20.67v-1.32Zm-2.265,2.13H25.14V7.955H23.52a12.331,12.331,0,0,0,.87-1.86l-.66-.435-.165.06H21.7c.135-.36.255-.7.36-1.05l-1-.135a10,10,0,0,1-2.1,3.96,6.663,6.663,0,0,0,.36-.735l-.99-.33a15.039,15.039,0,0,1-2.805,4.245,4.682,4.682,0,0,1,.645.96,11.546,11.546,0,0,0,1.095-1.35v6.87h1.02V9.74c.21-.345.405-.7.585-1.065a2.677,2.677,0,0,1,.735.615c.075-.075.135-.165.21-.24Zm2.19.225c-.03.285-.06.54-.105.8H19.32v.93h2.325A3.675,3.675,0,0,1,19.08,17.27a3.418,3.418,0,0,1,.57.75,4.406,4.406,0,0,0,2.79-2.43,16.155,16.155,0,0,1,2.16,2.025l.66-.69a13.938,13.938,0,0,0-2.235-2.01h2.49v-.93H22.89c.045-.255.075-.51.105-.8ZM29.31,9.155H25.59V10.19h1.485v6.66c0,.165-.045.21-.21.21-.165.015-.69.015-1.275,0a3.975,3.975,0,0,1,.315,1.02,4.153,4.153,0,0,0,1.71-.195c.375-.18.465-.465.465-1.035V10.19h1.23Zm13.38.7H38.31V8.4h4.38Zm0,2.265H38.31v-1.47h4.38Zm0,2.31H38.31v-1.47h4.38Zm-5.415-6.9v7.77H43.74V7.535h-3.1c.135-.435.285-.93.42-1.425h3.21V5.15h-7.56v.96h3.12c-.075.465-.18.975-.285,1.425Zm-1.53,5.775a29.368,29.368,0,0,0,1.275-3.27l-.69-.18-.165.045h-1.1l.36-.465a8.354,8.354,0,0,0-1.17-.975,14.933,14.933,0,0,0,2.325-2.88L35.9,5.1l-.225.075H30.945v.99h4.02A13.1,13.1,0,0,1,33.48,7.925c-.51-.315-1.035-.63-1.515-.885l-.6.72A16.418,16.418,0,0,1,34.44,9.9H30.615v.99h2.46V16.82c0,.18-.06.24-.285.24-.195.015-.885.015-1.65,0a3.918,3.918,0,0,1,.345,1.05,6.146,6.146,0,0,0,2.115-.195c.435-.165.555-.5.555-1.08V10.9H35.73a20.441,20.441,0,0,1-.81,2.19Zm3.015,2.28A9.529,9.529,0,0,1,35.6,17.435a8.627,8.627,0,0,1,.735.75,10.8,10.8,0,0,0,3.4-2.025Zm2.31.63a18.362,18.362,0,0,1,2.625,1.965l.87-.645a17.832,17.832,0,0,0-2.655-1.89ZM52.635,6.38V5.51H48.6q.225-.4.405-.81l-1.02-.3a9,9,0,0,1-2.34,3.18,6.255,6.255,0,0,1,.69.9,11.317,11.317,0,0,0,1.755-2.1Zm.555,1.455a8.176,8.176,0,0,0,1.23-1.47h2.145l-.735.33a5.081,5.081,0,0,1,.9,1.14Zm3.255,1.62H48.8v-.87h7.65Zm0,1.575H48.8v-.855h7.65Zm0,1.62H48.8v-.9h7.65Zm-1.83,2.04H50.79a2.01,2.01,0,0,0,.015-.3v-1h3.81ZM59.28,5.495H54.93c.135-.285.27-.57.39-.87l-1.065-.24a6.816,6.816,0,0,1-2.085,2.94c.24.12.66.345.915.51h-3.1l.9-.33a4.982,4.982,0,0,0-.66-1.08l-.93.315a5.628,5.628,0,0,1,.645,1.1H47.7v5.55h2.01v.99a2.215,2.215,0,0,1-.015.315H45.9v.93h3.48c-.36.645-1.185,1.29-2.9,1.785a4.954,4.954,0,0,1,.7.81c2.16-.72,3.06-1.65,3.405-2.6h4.02v2.505H55.74V15.62h3.435v-.93H55.74v-1.3h1.845V7.835h-.75l.8-.36a5.116,5.116,0,0,0-.885-1.11H59.28Zm4.9.915a10.519,10.519,0,0,0-1.32-1.86l-.885.42A11.551,11.551,0,0,1,63.255,6.9Zm.855,3.555A11.2,11.2,0,0,1,64.1,11.4c-.165-.21-.33-.42-.465-.57v-.03A18.141,18.141,0,0,0,65.205,7.43l-.585-.36-.195.045h-3.51V8.1h3.03a15.946,15.946,0,0,1-3.51,5.235,3.881,3.881,0,0,1,.585.9A15.446,15.446,0,0,0,62.58,12.4V18.08h1.05v-6c.45.675.99,1.425,1.2,1.83l.675-.735c-.15-.195-.555-.7-.945-1.2.375-.435.81-.99,1.215-1.515Zm7.65.06v1.56h-2.4v-1.56Zm-2.4,4.065V12.485h2.4V14.09Zm-3.315,0V12.485H69.21V14.09Zm2.235-4.065v1.56H66.975v-1.56Zm5.1-2.46V6.545H73.4l.585-.555a9.537,9.537,0,0,0-2.28-1.5l-.615.6a9.806,9.806,0,0,1,2.13,1.455H70.29V4.46H69.21V6.545H65.475v1.02H69.21v1.5H65.94v9.09h1.035V14.99H69.21v3.06h1.08V14.99h2.4V16.9c0,.18-.045.225-.225.225-.165.015-.675.015-1.275,0a3.208,3.208,0,0,1,.33.99,4.422,4.422,0,0,0,1.755-.18c.36-.18.465-.465.465-1.005V9.065H70.29v-1.5Zm3.345,4.995H80.46v1.98c-.99.21-1.935.42-2.805.6ZM80.46,6.2V8.39H77.655V6.2Zm0,5.355H77.655V9.395H80.46Zm1.875,2.58-.825.18V5.18H76.635V15.35l-1.065.21.195,1.125c1.785-.4,4.305-.99,6.645-1.545Zm3.18-6.3c.045-1.1.045-2.22.045-3.375H84.48c0,1.155,0,2.28-.045,3.375H82V8.9H84.39c-.21,3.585-.96,6.675-3.81,8.46a2.829,2.829,0,0,1,.81.825c3.03-2.01,3.855-5.385,4.08-9.285h2.34c-.135,5.46-.3,7.44-.675,7.89a.543.543,0,0,1-.555.225c-.315,0-1.1,0-1.95-.06a2.456,2.456,0,0,1,.33,1.065,19.128,19.128,0,0,0,2.055.015,1.37,1.37,0,0,0,1.08-.57c.495-.66.645-2.79.795-9.075,0-.135.015-.555.015-.555ZM91.32,17h6.03V15.86h-2.2V5.99H94.1a6.624,6.624,0,0,1-2.28.795v.87h1.95v8.2H91.32Zm9.09.195a.991.991,0,0,0,.99-1.035.993.993,0,1,0-1.98,0A.991.991,0,0,0,100.41,17.195Zm6.48-6c1.335,0,2,.945,2,2.43s-.825,2.5-1.875,2.5c-1.38,0-2.205-1.245-2.37-3.525A2.843,2.843,0,0,1,106.89,11.195Zm.12,6a3.3,3.3,0,0,0,3.15-3.57c0-2.3-1.185-3.45-3.045-3.45a3.42,3.42,0,0,0-2.505,1.335c.06-3.42,1.335-4.575,2.835-4.575a2.325,2.325,0,0,1,1.77.84l.75-.855A3.378,3.378,0,0,0,107.4,5.795c-2.13,0-4.065,1.65-4.065,5.955C103.335,15.38,104.895,17.195,107.01,17.195Zm6.885-4.455c1.515,0,2.505-1.275,2.505-3.495s-.99-3.45-2.505-3.45-2.49,1.245-2.49,3.45S112.395,12.74,113.895,12.74Zm0-.855c-.855,0-1.455-.885-1.455-2.64s.6-2.61,1.455-2.61c.87,0,1.47.855,1.47,2.61S114.765,11.885,113.895,11.885Zm.33,5.31h.915l6.075-11.4h-.93Zm7.335,0c1.5,0,2.49-1.26,2.49-3.48s-.99-3.45-2.49-3.45-2.5,1.245-2.5,3.45S120.06,17.195,121.56,17.195Zm0-.84c-.87,0-1.455-.885-1.455-2.64s.585-2.61,1.455-2.61,1.455.855,1.455,2.61S122.415,16.355,121.56,16.355Z" transform="translate(798 1329)" fill="#f2e6e6"/>
      <path id="內文p-16" data-name="內文p" d="M8.01,11.4h2.055l-.36.315a11.423,11.423,0,0,1,1.14.465L8.01,12.23Zm-4.62-.75v-.93H6.93v.93Zm0-2.55H6.93V9H3.39Zm8.265,0V9H8.01V8.1Zm0,2.55H8.01v-.93h3.645Zm2.61,3.24H10.7v-.96l1.485-.045a10.121,10.121,0,0,1,.855.6l.66-.63A12.256,12.256,0,0,0,11.01,11.4h1.74V7.34H8.01V6.5h5.655V5.6H8.01V4.475H6.93V5.6H1.185v.9H6.93v.84H2.34V11.4H6.93v.825c-2.145.03-4.11.045-5.6.045l.045.87c2.16-.03,5.16-.09,8.235-.18v.93H.75v.915H3.855l-.735.63A12.938,12.938,0,0,1,5.6,17.39l.8-.735A12.5,12.5,0,0,0,3.93,14.81H9.615v2.115c0,.2-.075.255-.3.27s-1.08.015-1.995-.015a3.4,3.4,0,0,1,.36.96,8.686,8.686,0,0,0,2.415-.165c.48-.15.6-.45.6-1.02V14.81h3.57ZM17.3,6.53H27.75v1.2h1.08V5.585H23.34c-.21-.375-.525-.825-.75-1.155l-1.11.27c.165.27.36.57.54.885H16.245V7.73H17.3ZM24.57,9.14a5.722,5.722,0,0,1-1.92,1.44c-.96-.195-1.935-.36-2.925-.525.285-.285.6-.585.915-.915Zm4.29,3A44.4,44.4,0,0,0,24.135,10.9a6.167,6.167,0,0,0,1.77-1.755h3.15V8.225H26.4a6.011,6.011,0,0,0,.3-.78L25.62,7.19a5.39,5.39,0,0,1-.45,1.035H21.48c.345-.4.675-.825.945-1.215l-1.08-.33a15.544,15.544,0,0,1-1.17,1.545H15.99V9.14h3.375c-.51.555-1.02,1.05-1.485,1.47,1.095.15,2.145.345,3.165.54a25.41,25.41,0,0,1-5.07.63,3.994,3.994,0,0,1,.435.96,20.416,20.416,0,0,0,6.5-1.215A40.571,40.571,0,0,1,27.78,12.89Zm-9.27,2.67a9.849,9.849,0,0,1-3.555,2.13,6.507,6.507,0,0,1,.915.765,11.838,11.838,0,0,0,3.735-2.535Zm4.59.555A19.566,19.566,0,0,1,28.1,17.78l.81-.81a20.423,20.423,0,0,0-3.975-2.31Zm-1.17-1.83v-1.23H21.915v1.23H15.84v.945h6.075v3.66H23.01V14.48h6.18v-.945ZM34.185,6.41a10.52,10.52,0,0,0-1.32-1.86l-.885.42A11.551,11.551,0,0,1,33.255,6.9Zm.855,3.555A11.2,11.2,0,0,1,34.1,11.4c-.165-.21-.33-.42-.465-.57v-.03A18.142,18.142,0,0,0,35.205,7.43l-.585-.36-.195.045h-3.51V8.1h3.03a15.946,15.946,0,0,1-3.51,5.235,3.881,3.881,0,0,1,.585.9A15.446,15.446,0,0,0,32.58,12.4V18.08h1.05v-6c.45.675.99,1.425,1.2,1.83l.675-.735c-.15-.195-.555-.7-.945-1.2.375-.435.81-.99,1.215-1.515Zm7.65.06v1.56h-2.4v-1.56Zm-2.4,4.065V12.485h2.4V14.09Zm-3.315,0V12.485H39.21V14.09Zm2.235-4.065v1.56H36.975v-1.56Zm5.1-2.46V6.545H43.4l.585-.555a9.537,9.537,0,0,0-2.28-1.5l-.615.6a9.806,9.806,0,0,1,2.13,1.455H40.29V4.46H39.21V6.545H35.475v1.02H39.21v1.5H35.94v9.09h1.035V14.99H39.21v3.06h1.08V14.99h2.4V16.9c0,.18-.045.225-.225.225-.165.015-.675.015-1.275,0a3.208,3.208,0,0,1,.33.99,4.422,4.422,0,0,0,1.755-.18c.36-.18.465-.465.465-1.005V9.065H40.29v-1.5Zm3.345,4.995H50.46v1.98c-.99.21-1.935.42-2.805.6ZM50.46,6.2V8.39H47.655V6.2Zm0,5.355H47.655V9.395H50.46Zm1.875,2.58-.825.18V5.18H46.635V15.35l-1.065.21.195,1.125c1.785-.4,4.305-.99,6.645-1.545Zm3.18-6.3c.045-1.1.045-2.22.045-3.375H54.48c0,1.155,0,2.28-.045,3.375h-2.43V8.9H54.39c-.21,3.585-.96,6.675-3.81,8.46a2.829,2.829,0,0,1,.81.825c3.03-2.01,3.855-5.385,4.08-9.285h2.34c-.135,5.46-.3,7.44-.675,7.89a.543.543,0,0,1-.555.225c-.315,0-1.1,0-1.95-.06a2.456,2.456,0,0,1,.33,1.065,19.128,19.128,0,0,0,2.055.015,1.37,1.37,0,0,0,1.08-.57c.495-.66.645-2.79.795-9.075,0-.135.015-.555.015-.555ZM61.32,17h6.03V15.86h-2.2V5.99H64.1a6.624,6.624,0,0,1-2.28.795v.87h1.95v8.2H61.32Zm9.09.195a.991.991,0,0,0,.99-1.035.993.993,0,1,0-1.98,0A.991.991,0,0,0,70.41,17.195Zm3.81-4.32,2.505-3.75c.315-.54.615-1.08.885-1.62h.06c-.03.57-.075,1.455-.075,1.995v3.375ZM77.595,17h1.29V13.97H80.34V12.875H78.885V5.99H77.37l-4.575,7.08v.9h4.8Zm6.3-4.26c1.515,0,2.505-1.275,2.505-3.495s-.99-3.45-2.505-3.45S81.4,7.04,81.4,9.245,82.395,12.74,83.895,12.74Zm0-.855c-.855,0-1.455-.885-1.455-2.64s.6-2.61,1.455-2.61c.87,0,1.47.855,1.47,2.61S84.765,11.885,83.895,11.885Zm.33,5.31h.915l6.075-11.4h-.93Zm7.335,0c1.5,0,2.49-1.26,2.49-3.48s-.99-3.45-2.49-3.45-2.5,1.245-2.5,3.45S90.06,17.195,91.56,17.195Zm0-.84c-.87,0-1.455-.885-1.455-2.64s.585-2.61,1.455-2.61,1.455.855,1.455,2.61S92.415,16.355,91.56,16.355Z" transform="translate(795 1355)" fill="#f2e6e6"/>
      <g id="圖表-01" transform="translate(732.305 948.556)">
        <g id="Group_102" data-name="Group 102" transform="translate(30.695 451.968)">
          <g id="Group_99" data-name="Group 99" transform="translate(0 26.658)">
            <path id="Path_1527" data-name="Path 1527" d="M.623-5.3a9.825,9.825,0,0,1,.392-3.065,3.813,3.813,0,0,1,1.165-1.791,2.977,2.977,0,0,1,1.945-.63,3.173,3.173,0,0,1,1.516.348,2.9,2.9,0,0,1,1.077,1,5.383,5.383,0,0,1,.667,1.6A10.608,10.608,0,0,1,7.625-5.3a9.853,9.853,0,0,1-.388,3.051A3.814,3.814,0,0,1,6.075-.45,2.977,2.977,0,0,1,4.124.183,2.946,2.946,0,0,1,1.685-.93,7.076,7.076,0,0,1,.623-5.3Zm1.355,0A6.733,6.733,0,0,0,2.6-1.776,1.824,1.824,0,0,0,4.124-.9,1.822,1.822,0,0,0,5.651-1.78,6.735,6.735,0,0,0,6.27-5.3a6.73,6.73,0,0,0-.619-3.523A1.837,1.837,0,0,0,4.109-9.69a1.689,1.689,0,0,0-1.45.769A6.81,6.81,0,0,0,1.978-5.3Z" transform="translate(0 12)" fill="#ba4141"/>
            <path id="Path_1526" data-name="Path 1526" d="M.623-2.812,2.007-2.93a2.482,2.482,0,0,0,.714,1.52A1.939,1.939,0,0,0,4.072-.9a2.1,2.1,0,0,0,1.611-.718,2.705,2.705,0,0,0,.659-1.9A2.445,2.445,0,0,0,5.709-5.3,2.209,2.209,0,0,0,4.05-5.955a2.3,2.3,0,0,0-1.15.289,2.233,2.233,0,0,0-.806.751L.857-5.076,1.9-10.591H7.236v1.26H2.952L2.373-6.445A3.494,3.494,0,0,1,4.4-7.119a3.214,3.214,0,0,1,2.373.974,3.4,3.4,0,0,1,.967,2.5,3.91,3.91,0,0,1-.85,2.52,3.4,3.4,0,0,1-2.82,1.3,3.473,3.473,0,0,1-2.391-.82A3.2,3.2,0,0,1,.623-2.812Z" transform="translate(83.465 12)" fill="#ba4141"/>
            <path id="Path_1525" data-name="Path 1525" d="M5.588,0H4.27V-8.4a6.814,6.814,0,0,1-1.249.908,8.852,8.852,0,0,1-1.388.681V-8.086a7.962,7.962,0,0,0,1.934-1.26,4.955,4.955,0,0,0,1.172-1.436h.85ZM8.965-5.3a9.825,9.825,0,0,1,.392-3.065,3.813,3.813,0,0,1,1.165-1.791,2.977,2.977,0,0,1,1.945-.63,3.173,3.173,0,0,1,1.516.348,2.9,2.9,0,0,1,1.077,1,5.383,5.383,0,0,1,.667,1.6A10.608,10.608,0,0,1,15.967-5.3a9.853,9.853,0,0,1-.388,3.051A3.814,3.814,0,0,1,14.418-.45a2.977,2.977,0,0,1-1.952.634A2.946,2.946,0,0,1,10.027-.93,7.076,7.076,0,0,1,8.965-5.3Zm1.355,0a6.733,6.733,0,0,0,.619,3.519A1.824,1.824,0,0,0,12.466-.9a1.822,1.822,0,0,0,1.527-.879A6.735,6.735,0,0,0,14.612-5.3a6.73,6.73,0,0,0-.619-3.523,1.837,1.837,0,0,0-1.542-.872A1.689,1.689,0,0,0,11-8.921,6.81,6.81,0,0,0,10.32-5.3Z" transform="translate(162.995 12)" fill="#ba4141"/>
            <path id="Path_1524" data-name="Path 1524" d="M5.588,0H4.27V-8.4a6.814,6.814,0,0,1-1.249.908,8.852,8.852,0,0,1-1.388.681V-8.086a7.962,7.962,0,0,0,1.934-1.26,4.955,4.955,0,0,0,1.172-1.436h.85ZM8.965-2.812l1.384-.117a2.482,2.482,0,0,0,.714,1.52A1.939,1.939,0,0,0,12.415-.9a2.1,2.1,0,0,0,1.611-.718,2.705,2.705,0,0,0,.659-1.9,2.445,2.445,0,0,0-.634-1.78,2.209,2.209,0,0,0-1.659-.652,2.3,2.3,0,0,0-1.15.289,2.233,2.233,0,0,0-.806.751L9.2-5.076l1.04-5.515h5.339v1.26H11.294l-.579,2.886a3.494,3.494,0,0,1,2.029-.674,3.214,3.214,0,0,1,2.373.974,3.4,3.4,0,0,1,.967,2.5,3.91,3.91,0,0,1-.85,2.52,3.4,3.4,0,0,1-2.82,1.3,3.473,3.473,0,0,1-2.391-.82A3.2,3.2,0,0,1,8.965-2.812Z" transform="translate(246.46 12)" fill="#ba4141"/>
            <path id="Path_1523" data-name="Path 1523" d="M7.551-1.267V0H.454A2.332,2.332,0,0,1,.608-.916a4.843,4.843,0,0,1,.868-1.428A13.6,13.6,0,0,1,3.2-3.97,14.622,14.622,0,0,0,5.566-6.244,2.723,2.723,0,0,0,6.182-7.83a1.762,1.762,0,0,0-.56-1.322A2.021,2.021,0,0,0,4.16-9.69a2.059,2.059,0,0,0-1.523.571,2.162,2.162,0,0,0-.579,1.582L.7-7.676A3.335,3.335,0,0,1,1.75-9.987a3.573,3.573,0,0,1,2.439-.795,3.4,3.4,0,0,1,2.446.857,2.813,2.813,0,0,1,.9,2.124,3.221,3.221,0,0,1-.264,1.267A4.917,4.917,0,0,1,6.4-5.222a21.322,21.322,0,0,1-2.032,1.89q-1.187,1-1.523,1.351a4.335,4.335,0,0,0-.557.714ZM8.965-5.3a9.825,9.825,0,0,1,.392-3.065,3.813,3.813,0,0,1,1.165-1.791,2.977,2.977,0,0,1,1.945-.63,3.173,3.173,0,0,1,1.516.348,2.9,2.9,0,0,1,1.077,1,5.383,5.383,0,0,1,.667,1.6A10.608,10.608,0,0,1,15.967-5.3a9.853,9.853,0,0,1-.388,3.051A3.814,3.814,0,0,1,14.418-.45a2.977,2.977,0,0,1-1.952.634A2.946,2.946,0,0,1,10.027-.93,7.076,7.076,0,0,1,8.965-5.3Zm1.355,0a6.733,6.733,0,0,0,.619,3.519A1.824,1.824,0,0,0,12.466-.9a1.822,1.822,0,0,0,1.527-.879A6.735,6.735,0,0,0,14.612-5.3a6.73,6.73,0,0,0-.619-3.523,1.837,1.837,0,0,0-1.542-.872A1.689,1.689,0,0,0,11-8.921,6.81,6.81,0,0,0,10.32-5.3Z" transform="translate(329.925 12)" fill="#ba4141"/>
          </g>
          <line id="Line_18" data-name="Line 18" x2="333.818" transform="translate(3.95 16.623)" fill="none" stroke="#ba4141" stroke-miterlimit="10" stroke-width="1"/>
          <g id="Group_101" data-name="Group 101" transform="translate(3.95)">
            <g id="Group_100" data-name="Group 100">
              <line id="Line_19" data-name="Line 19" y1="16.623" fill="none" stroke="#ba4141" stroke-miterlimit="10" stroke-width="1"/>
              <line id="Line_20" data-name="Line 20" y1="16.623" transform="translate(83.416)" fill="none" stroke="#ba4141" stroke-miterlimit="10" stroke-width="1"/>
              <line id="Line_21" data-name="Line 21" y1="16.623" transform="translate(166.909)" fill="none" stroke="#ba4141" stroke-miterlimit="10" stroke-width="1"/>
              <line id="Line_22" data-name="Line 22" y1="16.623" transform="translate(250.401)" fill="none" stroke="#ba4141" stroke-miterlimit="10" stroke-width="1"/>
              <line id="Line_23" data-name="Line 23" y1="16.623" transform="translate(333.818)" fill="none" stroke="#ba4141" stroke-miterlimit="10" stroke-width="1"/>
            </g>
          </g>
        </g>
        <g id="Group_108" data-name="Group 108" transform="translate(34.646 55)">
          <g id="Group_107" data-name="Group 107">
            <g id="Group_106" data-name="Group 106">
              <path id="Rectangle_1985" data-name="Rectangle 1985" d="M0,0H296.094a6.072,6.072,0,0,1,6.072,6.072v0a6.072,6.072,0,0,1-6.072,6.072H0a0,0,0,0,1,0,0V0A0,0,0,0,1,0,0Z" fill="#ba4141"/>
              <path id="Rectangle_1986" data-name="Rectangle 1986" d="M0,0H264.367a6.072,6.072,0,0,1,6.072,6.072v0a6.072,6.072,0,0,1-6.072,6.072H0a0,0,0,0,1,0,0V0A0,0,0,0,1,0,0Z" transform="translate(0 25.807)" fill="#ba4141"/>
              <path id="Rectangle_1987" data-name="Rectangle 1987" d="M0,0H224.291a6.072,6.072,0,0,1,6.072,6.072v0a6.072,6.072,0,0,1-6.072,6.072H0a0,0,0,0,1,0,0V0A0,0,0,0,1,0,0Z" transform="translate(0 50.855)" fill="#ba4141"/>
              <path id="Rectangle_1988" data-name="Rectangle 1988" d="M0,0H110.817a6.072,6.072,0,0,1,6.072,6.072v0a6.072,6.072,0,0,1-6.072,6.072H0a0,0,0,0,1,0,0V0A0,0,0,0,1,0,0Z" transform="translate(0 76.661)" fill="#ba4141"/>
              <path id="Rectangle_1989" data-name="Rectangle 1989" d="M0,0H90.779a6.072,6.072,0,0,1,6.072,6.072v0a6.072,6.072,0,0,1-6.072,6.072H0a0,0,0,0,1,0,0V0A0,0,0,0,1,0,0Z" transform="translate(0 101.709)" fill="#ba4141"/>
              <path id="Rectangle_1990" data-name="Rectangle 1990" d="M0,0H80.76a6.072,6.072,0,0,1,6.072,6.072v0a6.072,6.072,0,0,1-6.072,6.072H0a0,0,0,0,1,0,0V0A0,0,0,0,1,0,0Z" transform="translate(0 127.516)" fill="#ba4141"/>
              <path id="Rectangle_1991" data-name="Rectangle 1991" d="M0,0H79.09a6.072,6.072,0,0,1,6.072,6.072v0a6.072,6.072,0,0,1-6.072,6.072H0a0,0,0,0,1,0,0V0A0,0,0,0,1,0,0Z" transform="translate(0 152.564)" fill="#ba4141"/>
              <path id="Rectangle_1992" data-name="Rectangle 1992" d="M0,0H77.42a6.072,6.072,0,0,1,6.072,6.072v0a6.072,6.072,0,0,1-6.072,6.072H0a0,0,0,0,1,0,0V0A0,0,0,0,1,0,0Z" transform="translate(0 178.37)" fill="#ba4141"/>
              <path id="Rectangle_1993" data-name="Rectangle 1993" d="M0,0H62.392a6.072,6.072,0,0,1,6.072,6.072v0a6.072,6.072,0,0,1-6.072,6.072H0a0,0,0,0,1,0,0V0A0,0,0,0,1,0,0Z" transform="translate(0 203.418)" fill="#ba4141"/>
              <path id="Rectangle_1994" data-name="Rectangle 1994" d="M0,0H39.014a6.072,6.072,0,0,1,6.072,6.072v0a6.072,6.072,0,0,1-6.072,6.072H0a0,0,0,0,1,0,0V0A0,0,0,0,1,0,0Z" transform="translate(0 229.225)" fill="#ba4141"/>
              <path id="Rectangle_1995" data-name="Rectangle 1995" d="M0,0H35.674a6.072,6.072,0,0,1,6.072,6.072v0a6.072,6.072,0,0,1-6.072,6.072H0a0,0,0,0,1,0,0V0A0,0,0,0,1,0,0Z" transform="translate(0 254.272)" fill="#ba4141"/>
              <path id="Rectangle_1996" data-name="Rectangle 1996" d="M0,0H25.655a6.072,6.072,0,0,1,6.072,6.072v0a6.072,6.072,0,0,1-6.072,6.072H0a0,0,0,0,1,0,0V0A0,0,0,0,1,0,0Z" transform="translate(0 280.079)" fill="#ba4141"/>
              <path id="Rectangle_1997" data-name="Rectangle 1997" d="M0,0H22.315a6.072,6.072,0,0,1,6.072,6.072v0a6.072,6.072,0,0,1-6.072,6.072H0a0,0,0,0,1,0,0V0A0,0,0,0,1,0,0Z" transform="translate(0 305.886)" fill="#ba4141"/>
              <path id="Rectangle_1998" data-name="Rectangle 1998" d="M0,0H20.645a6.072,6.072,0,0,1,6.072,6.072v0a6.072,6.072,0,0,1-6.072,6.072H0a0,0,0,0,1,0,0V0A0,0,0,0,1,0,0Z" transform="translate(0 330.934)" fill="#ba4141"/>
              <path id="Rectangle_1999" data-name="Rectangle 1999" d="M0,0H17.306a6.072,6.072,0,0,1,6.072,6.072v0a6.072,6.072,0,0,1-6.072,6.072H0a0,0,0,0,1,0,0V0A0,0,0,0,1,0,0Z" transform="translate(0 356.74)" fill="#ba4141"/>
            </g>
          </g>
        </g>
      </g>
    </g>
    <path id="內文p-17" data-name="內文p" d="M1.476,21h8.01V18.858h-2.5V7.68H5.022A8.64,8.64,0,0,1,1.926,8.8v1.638H4.338v8.424H1.476Zm14.436.252c2.7,0,4.5-2.376,4.5-6.966s-1.8-6.858-4.5-6.858c-2.718,0-4.518,2.25-4.518,6.858C11.394,18.876,13.194,21.252,15.912,21.252Zm0-2.07c-1.152,0-2.016-1.152-2.016-4.9,0-3.726.864-4.806,2.016-4.806,1.134,0,2,1.08,2,4.806C17.91,18.03,17.046,19.182,15.912,19.182Zm10.332-5c-1.152,0-1.89-.738-1.89-2.3,0-1.638.81-2.448,1.8-2.448,1.134,0,2.052.9,2.286,3.33A2.658,2.658,0,0,1,26.244,14.178Zm-4.1,5.562a5,5,0,0,0,3.654,1.512c2.646,0,5.112-2.178,5.112-7.218,0-4.626-2.268-6.606-4.788-6.606a4.175,4.175,0,0,0-4.194,4.446c0,2.826,1.6,4.194,3.816,4.194a3.7,3.7,0,0,0,2.736-1.458c-.108,3.348-1.35,4.482-2.844,4.482a3.056,3.056,0,0,1-2.106-.936Zm15.426-3.06V13.944H40.68V16.68Zm11.484,0H42.894V13.944h4.752v-1.98H42.894V9.8H48.06V7.734H37.89a11.492,11.492,0,0,0,.594-1.476L36.306,5.7a13.881,13.881,0,0,1-3.78,5.994A16.566,16.566,0,0,1,34.38,13.08,16.176,16.176,0,0,0,36.828,9.8H40.68v2.16H35.424V16.68H32.58v2.052h8.1v3.852h2.214V18.732H49.05ZM53.982,9.3h12.96v-2H61a12.534,12.534,0,0,0-.684-1.674l-2.178.486A9.116,9.116,0,0,1,58.572,7.3H51.858V12.09c0,2.736-.126,6.75-1.566,9.522a8.54,8.54,0,0,1,1.962.918c1.494-2.934,1.728-7.434,1.728-10.458Zm8.082,3.276v1.188H58.788V12.576Zm2.124,2.808V12.576H66.78V10.9H64.188V9.714H62.064V10.9H58.788V9.714H56.772V10.9h-2.43v1.674h2.43v2.808Zm-1.53,2.394a8.667,8.667,0,0,1-2.376,1.458,8.306,8.306,0,0,1-2.376-1.458Zm1.89-1.746-.378.072H54.486v1.674h1.908l-.72.288a10.343,10.343,0,0,0,2.178,1.962,27.682,27.682,0,0,1-4.248.63,8.205,8.205,0,0,1,.882,1.782,24.852,24.852,0,0,0,5.688-1.206,21.055,21.055,0,0,0,5.832,1.314,9.723,9.723,0,0,1,1.224-1.854,29.632,29.632,0,0,1-4.518-.648,8.931,8.931,0,0,0,3.168-3.33ZM77.9,14.844v-3.87h4.068v3.87Zm-6.318,0v-3.87h4.05v3.87ZM77.9,8.868V5.754H75.636V8.868h-6.21V17.94h2.16v-.99h4.05v5.616H77.9V16.95h4.068v.9h2.25V8.868ZM95.094,17.9a58.587,58.587,0,0,1,6.21,4.644l1.566-1.764c-1.44-1.206-4.374-3.114-6.318-4.374Zm.954-7.722h2.916V14H95.9a17.277,17.277,0,0,0,.144-2.358ZM90.738,14V10.182H93.87V11.64A13.134,13.134,0,0,1,93.69,14Zm10.494,0V8.076H96.048V5.736H93.87v2.34H88.56V14H86.688V16.1h6.336c-.936,1.872-2.79,3.546-6.462,4.554a7.92,7.92,0,0,1,1.17,1.872c4.752-1.35,6.84-3.744,7.7-6.426h7.524V14Zm14.2-2.988h2.484a17.434,17.434,0,0,1-1.206,4.77,21.2,21.2,0,0,1-1.368-4.536Zm5.76,0V9.03h-5.112c.252-.954.486-1.944.648-2.952l-2.124-.324a18,18,0,0,1-2.232,6.714v-.45h-2.052V8.868h2.556V6.816h-8.244V8.868h3.6v9.27l-1.152.216V11.028h-1.926V18.7l-.936.162.378,2.178c2.3-.522,5.49-1.206,8.442-1.89l-.18-1.962-2.538.54v-3.69h2.052v-.162a10.268,10.268,0,0,1,.99.972,8.511,8.511,0,0,0,.63-.882,20.1,20.1,0,0,0,1.476,3.96,9.11,9.11,0,0,1-3.672,2.79A8.348,8.348,0,0,1,113,22.6a11.4,11.4,0,0,0,3.672-2.79,9.712,9.712,0,0,0,3.222,2.736,7.992,7.992,0,0,1,1.458-1.836,8.707,8.707,0,0,1-3.366-2.772,20.705,20.705,0,0,0,2.088-6.93Zm4.716-1.53h13.1V7.5h-6.066a17.254,17.254,0,0,0-.882-1.962l-2.16.558c.18.432.4.918.558,1.4h-6.732v5.508c0,2.5-.108,6.048-1.422,8.46a6.813,6.813,0,0,1,1.89,1.224c1.476-2.664,1.71-6.894,1.71-9.7Zm3.006.162a12.349,12.349,0,0,1-3.006,5.346A13.182,13.182,0,0,1,126.792,17a11.807,11.807,0,0,0,.936-.954v6.48h2.016V13.116a21.533,21.533,0,0,0,1.278-2.9Zm1.818,6.12a25.483,25.483,0,0,1,1.71,3.456l1.8-.846a26.61,26.61,0,0,0-1.782-3.312Zm8.3-3.456H137.34V9.93H135.2v2.376h-4.7v1.962h4.7v5.886c0,.252-.108.324-.4.342-.288,0-1.3,0-2.2-.036a8.408,8.408,0,0,1,.666,2.106,7.724,7.724,0,0,0,3.132-.378c.72-.342.936-.9.936-2.016v-5.9h1.692Zm15.408-.144h-4.014V11.028h4.014Zm0,2.61h-4.014V13.62h4.014Zm0,2.628h-4.014V16.248h4.014Zm-7.326-.648c.4-1.062.882-2.754,1.26-4.248l-1.3-.288-.288.054h-.864l.468-.666a8.381,8.381,0,0,0-1.08-.846,20.216,20.216,0,0,0,2.556-3.294v.792h3.42c-.054.4-.108.792-.18,1.188h-2.628v9.522h8.01V9.444h-3.24q.189-.567.378-1.188h3.384v-1.8H147.87v.828l-1.224-.9-.378.126H140.76V8.364h4.176a11.742,11.742,0,0,1-1.152,1.458c-.558-.306-1.134-.594-1.656-.828l-1.062,1.386a22.089,22.089,0,0,1,3.114,1.89h-3.852v1.89h2.664v6.066c0,.2-.072.252-.324.27-.234,0-1.08,0-1.854-.018a7.159,7.159,0,0,1,.648,2.052,6.583,6.583,0,0,0,2.772-.378c.666-.324.828-.882.828-1.89v-6.1h1.08c-.2.846-.414,1.674-.612,2.268Zm3.114,2.232a10.973,10.973,0,0,1-3.762,2.232,11.869,11.869,0,0,1,1.44,1.4,13.674,13.674,0,0,0,4.068-2.5Zm2.61,1.188a21.735,21.735,0,0,1,2.952,2.448l1.692-1.206a24.209,24.209,0,0,0-3.06-2.3ZM168.246,9.948a10.785,10.785,0,0,0,1.26-1.512h2.088l-.954.4a7.41,7.41,0,0,1,.9,1.116Zm.684,8.01h-3.78v-1.1h3.78Zm-5.976-3.042h7.992v.666h-7.992Zm0-1.872h7.992v.666h-7.992Zm0-1.818h7.992v.63h-7.992Zm3.96-2.772a5.41,5.41,0,0,1-.756.684,16.458,16.458,0,0,1,1.566.81H163.98l1.242-.432a7.019,7.019,0,0,0-.648-1.062Zm8.064-1.566h-4.554c.126-.252.252-.522.36-.792l-2.052-.486a8.275,8.275,0,0,1-1.782,2.808V6.906h-4.284c.126-.234.234-.45.342-.684l-1.944-.612a10.17,10.17,0,0,1-2.844,3.636,14.52,14.52,0,0,1,1.386,1.674,14.8,14.8,0,0,0,2.124-2.466h2.2l-1.26.432a5.885,5.885,0,0,1,.63,1.062h-2.5V16.86h2.2v1.1h-4.284V19.65h3.636a6.286,6.286,0,0,1-3.24,1.386,7.61,7.61,0,0,1,1.332,1.566c2.736-.738,3.96-1.8,4.446-2.952h4.05v2.88h2.214V19.65h3.8V17.958h-3.8v-1.1h2.07V9.948h-.81l1.026-.45a7.008,7.008,0,0,0-.864-1.062h2.412Zm8.838-.864v2h2.862a14.95,14.95,0,0,0,2.718,4.3h-9.324A18.648,18.648,0,0,0,182.9,6.906l-2.25-.54a12.709,12.709,0,0,1-4.464,6.57,13.98,13.98,0,0,1,1.8,1.584,15.2,15.2,0,0,0,1.35-1.3v1.188h3.042c-.36,2.61-1.3,4.986-5.364,6.3a7.172,7.172,0,0,1,1.422,1.98c4.662-1.746,5.832-4.824,6.282-8.28h3.546c-.162,3.744-.36,5.346-.72,5.742a.835.835,0,0,1-.72.252c-.45,0-1.386-.018-2.376-.09a5.172,5.172,0,0,1,.7,2.16,18.007,18.007,0,0,0,2.718-.054,2.135,2.135,0,0,0,1.638-.864c.63-.738.846-2.808,1.044-8.118a12.5,12.5,0,0,0,1.368,1.044,12.207,12.207,0,0,1,1.512-1.98,11.1,11.1,0,0,1-5.166-6.48Zm13.212,12.51h3.816v-1.62h-3.816Zm2.25-8.55h-.756V8.22h.756Zm2.07,4.356c-.036.036-.09.036-.234.036h-.36c-.144,0-.18-.018-.18-.306V11.748h.774Zm-4.86,5.364V15.546a4.658,4.658,0,0,1,.9.756,4.251,4.251,0,0,0,1.188-3.24V11.748h.81v2.358c0,1.206.27,1.512,1.206,1.512h.756V19.7Zm.9-7.956v1.314a3.02,3.02,0,0,1-.9,2.394V11.748ZM194.6,8.22h2.268V9.984H194.85V22.512h1.638V21.36h4.86v.9h1.728V9.984h-2.142V8.22h2.25V6.438h-8.568ZM206.64,20.352c-.648,0-.738-.126-.738-.828V14.286h4.68v-7.7h-6.876V8.616h4.806v3.636h-4.734v7.29c0,2.16.612,2.79,2.556,2.79h2.376c1.782,0,2.34-.918,2.556-3.96a6.5,6.5,0,0,1-1.908-.846c-.09,2.376-.2,2.826-.828,2.826Z" transform="translate(-16833 -4317)" fill="#ba4141"/>
  </g>
</svg>
