<?xml version="1.0" encoding="utf-8"?>
<!-- Generator: Adobe Illustrator 23.1.0, SVG Export Plug-In . SVG Version: 6.00 Build 0)  -->
<svg version="1.1" id="圖層_1" xmlns="http://www.w3.org/2000/svg" xmlns:xlink="http://www.w3.org/1999/xlink" x="0px" y="0px"
	 viewBox="0 0 348.1 749.6" style="enable-background:new 0 0 348.1 749.6;" xml:space="preserve">
<style type="text/css">
	.st0{fill:#F2E6E6;}
	.st1{fill:#BA4141;}
	.st2{fill:none;stroke:#BA4141;stroke-miterlimit:10;}
</style>
<g id="Group_1957" transform="translate(16838.168 3644.462)">
	<g id="data_m">
		<path id="內文p" class="st0" d="M-16826.3-3591.9c-0.4-0.7-0.9-1.4-1.5-1.9l-0.8,0.5c0.6,0.6,1,1.3,1.4,2L-16826.3-3591.9z
			 M-16824.6-3585.6c-0.3-0.3-1.5-1.5-2.1-2.1c0.8-1,1.4-2,1.9-3.2l-0.6-0.4l-0.2,0h-4.5v1h3.9c-1,1.9-2.5,3.5-4.4,4.6
			c0.2,0.3,0.4,0.7,0.5,1.1c0.7-0.5,1.4-1.1,2.1-1.7v6.1h1.1v-6.4c0.6,0.6,1.2,1.4,1.6,1.9L-16824.6-3585.6z M-16820.2-3581.8v-6.3
			h3.2v-1.1h-3.2v-4.7h-1.1v4.7h-3.2v1.1h3.2v6.3h-3.9v1.1h8.6v-1.1H-16820.2z M-16805.3-3584.3v1h-6.2v-1H-16805.3z
			 M-16811.5-3581.4v-1h6.2v1H-16811.5z M-16812.6-3580.1h1.1v-0.5h6.2v0.4h1.1v-4.9h-8.4V-3580.1z M-16806.4-3586.6
			c0.4-0.6,0.7-1.2,1-1.8l-0.9-0.3c-0.2,0.6-0.5,1.2-0.8,1.8L-16806.4-3586.6z M-16811.7-3588.3c0.4,0.5,0.7,1.1,0.8,1.8l0.9-0.3
			c-0.2-0.6-0.5-1.2-0.9-1.7L-16811.7-3588.3z M-16812.6-3588.8h3.5v2.2h-3.5V-3588.8z M-16804.5-3586.5h-3.6v-2.2h3.6V-3586.5z
			 M-16813.5-3585.8h10v-3.8h-10V-3585.8z M-16810.4-3591.1c0.7-0.4,1.4-0.9,1.9-1.5c0.6,0.6,1.3,1.1,2,1.5H-16810.4z
			 M-16808.6-3593.9c-1.4,1.8-4.1,3.1-6.8,3.9c0.2,0.3,0.4,0.6,0.6,0.9c1.3-0.4,2.5-0.9,3.7-1.5v0.4h5.2v-0.5
			c1.2,0.6,2.4,1.2,3.7,1.5c0.2-0.3,0.4-0.6,0.7-0.9c-2.3-0.5-4.5-1.6-6.3-3.1c0.1-0.1,0.1-0.2,0.2-0.3L-16808.6-3593.9z
			 M-16796.8-3593.8c-0.8,2.2-2.1,4.2-3.8,5.9c0.2,0.3,0.4,0.7,0.6,1.1c0.6-0.6,1.1-1.2,1.6-1.9v8.5h1.1v-10.1
			c0.6-1,1.1-2.1,1.6-3.2L-16796.8-3593.8z M-16794.1-3584.8c-0.7,1.2-1.5,2.3-2.4,3.3c0.3,0.2,0.6,0.4,0.9,0.6
			c1-1.1,1.8-2.4,2.5-3.7L-16794.1-3584.8z M-16794.2-3592.1h5.6v2.7h-5.6V-3592.1z M-16786.7-3585.6v-1h-4.2v-1.8h3.4v-4.7h-7.7
			v4.7h3.2v1.8h-4.3v1h4.3v5.5h1.1v-5.5H-16786.7z M-16790.1-3584.4c1,1.1,1.8,2.2,2.5,3.4l0.9-0.6c-0.8-1.2-1.6-2.3-2.6-3.4
			L-16790.1-3584.4z M-16778.8-3589.5h4.5v-0.9h-4.4c0.8-0.6,1.4-1.2,2.1-1.9c1.4,1.2,2.9,2.2,4.6,2.9c0.1-0.4,0.3-0.7,0.5-1
			c-1.7-0.6-3.2-1.5-4.5-2.6c0.1-0.2,0.2-0.3,0.3-0.5l-1.1-0.4c-1.1,1.6-2.5,2.9-4.3,3.8c0.3,0.2,0.5,0.5,0.8,0.7
			c0.6-0.3,1.1-0.7,1.6-1.1L-16778.8-3589.5z M-16775.2-3587.6h1.7v2h-1.7V-3587.6z M-16776.1-3584.9h3.4v-3.6h-3.4V-3584.9z
			 M-16779.5-3587.6h1.6v2h-1.6V-3587.6z M-16780.4-3584.9h3.4v-3.6h-3.4V-3584.9z M-16781.5-3593.3l-0.2,0.1h-3.2v13.1h1v-12h1.8
			c-0.3,1-0.7,2.3-1.1,3.4c0.8,0.8,1.2,1.9,1.2,3c0.1,0.4-0.1,0.7-0.3,1c-0.1,0.1-0.3,0.1-0.4,0.1c-0.3,0-0.6,0-0.8,0
			c0.2,0.3,0.3,0.6,0.3,1c0.3,0,0.6,0,0.9,0c0.3,0,0.5-0.1,0.8-0.3c0.4-0.5,0.6-1.1,0.6-1.8c0-1.2-0.5-2.3-1.3-3.2
			c0.5-1.2,1-2.7,1.4-3.9L-16781.5-3593.3z M-16779.1-3584.5c-0.4,1.6-1.5,2.9-2.9,3.7c0.3,0.2,0.5,0.5,0.8,0.7
			c0.9-0.6,1.7-1.4,2.3-2.4c0.5,0.4,1.1,0.8,1.5,1.3l0.6-0.8c-0.5-0.5-1.1-0.9-1.7-1.3c0.2-0.4,0.3-0.7,0.4-1.1L-16779.1-3584.5z
			 M-16774.9-3584.5c-0.2,1.5-1.1,2.8-2.3,3.7c0.3,0.2,0.5,0.5,0.8,0.7c0.8-0.6,1.4-1.3,1.8-2.1c0.8,0.6,1.6,1.2,2.3,1.9l0.7-0.8
			c-0.8-0.8-1.7-1.4-2.6-2c0.2-0.4,0.3-0.9,0.4-1.3L-16774.9-3584.5z M-16769.7-3581.3h6v-1.1h-2.2v-9.9h-1.1
			c-0.7,0.4-1.5,0.7-2.3,0.8v0.9h1.9v8.2h-2.4V-3581.3z M-16758.5-3581.1c2.1,0,3.5-1.2,3.5-2.9c0-1.2-0.7-2.4-1.9-2.9v-0.1
			c0.9-0.6,1.4-1.6,1.5-2.7c-0.1-1.7-1.5-3-3.1-2.9c-1.5,0.1-2.8,1.3-2.9,2.8c0,1,0.6,2,1.5,2.5v0.1c-1.2,0.6-2,1.7-2,3
			C-16762-3582.3-16760.5-3581.1-16758.5-3581.1z M-16757.7-3587.2c-1.3-0.5-2.5-1.1-2.5-2.4c-0.1-0.9,0.7-1.7,1.6-1.8
			c0.1,0,0.1,0,0.2,0c1,0,1.8,0.8,1.9,1.8c0,0.1,0,0.1,0,0.2C-16756.6-3588.6-16757.1-3587.8-16757.7-3587.2z M-16758.5-3582.1
			c-1.2,0.1-2.2-0.8-2.3-1.9c0,0,0-0.1,0-0.1c0-1,0.6-2,1.5-2.5c1.6,0.6,2.9,1.2,2.9,2.7c0,1-0.9,1.9-1.9,1.9
			C-16758.3-3582.1-16758.4-3582.1-16758.5-3582.1z M-16752.3-3581.1c0.5,0,1-0.4,1-1c0,0,0,0,0,0c0-0.5-0.4-1-0.9-1.1
			c-0.5,0-1,0.4-1.1,0.9c0,0.1,0,0.1,0,0.2C-16753.3-3581.6-16752.9-3581.1-16752.3-3581.1
			C-16752.3-3581.1-16752.3-3581.1-16752.3-3581.1z M-16748.9-3581.3h6v-1.1h-2.2v-9.9h-1.1c-0.7,0.4-1.5,0.7-2.3,0.8v0.9h1.9v8.2
			h-2.4V-3581.3z M-16738.8-3585.5c1.5,0,2.5-1.3,2.5-3.5s-1-3.5-2.5-3.5c-1.5,0-2.5,1.2-2.5,3.5
			C-16741.3-3586.8-16740.3-3585.5-16738.8-3585.5z M-16738.8-3586.4c-0.9,0-1.5-0.9-1.5-2.6c0-1.8,0.6-2.6,1.5-2.6
			c0.9,0,1.5,0.9,1.5,2.6C-16737.3-3587.3-16737.9-3586.4-16738.8-3586.4z M-16738.4-3581.1h0.9l6.1-11.4h-0.9L-16738.4-3581.1z
			 M-16731.1-3581.1c1.5,0,2.5-1.3,2.5-3.5s-1-3.4-2.5-3.4s-2.5,1.2-2.5,3.4C-16733.6-3582.3-16732.6-3581.1-16731.1-3581.1z
			 M-16731.1-3581.9c-0.9,0-1.5-0.9-1.5-2.6c0-1.8,0.6-2.6,1.5-2.6c0.9,0,1.5,0.9,1.5,2.6
			C-16729.7-3582.8-16730.3-3581.9-16731.1-3581.9z"/>
		<path id="內文p-2" class="st0" d="M-16820.5-3549.9c-0.5-0.4-1-0.8-1.6-1l-0.5,0.6c0.6,0.3,1.1,0.6,1.6,1L-16820.5-3549.9z
			 M-16824.5-3543.8c-1.7,0.3-3.3,0.6-4.5,0.8l0.1,0.8c1.2-0.2,2.8-0.5,4.4-0.8L-16824.5-3543.8z M-16825.8-3545.1h-1.7v-1.5h1.7
			V-3545.1z M-16828.3-3547.4v2.9h3.3v-2.9H-16828.3z M-16821.7-3547.6c-0.2,1-0.6,1.9-1.1,2.8c-0.3-1.1-0.5-2.3-0.6-3.4h3.2v-0.8
			h-3.3c0-0.5-0.1-1.1-0.1-1.6h-1c0,0.5,0.1,1.1,0.1,1.6h-4.5v0.8h4.6c0.1,1.5,0.4,3,0.8,4.4c-0.6,0.8-1.4,1.4-2.3,1.9
			c0.2,0.2,0.5,0.4,0.7,0.7c0.7-0.5,1.4-1.1,2-1.7c0.3,0.7,0.8,1.2,1.6,1.5c0.8,0.3,1.3-0.3,1.5-1.9c-0.3-0.1-0.5-0.3-0.7-0.5
			c-0.1,1-0.3,1.6-0.5,1.5c-0.5-0.1-0.9-0.6-1.2-1.4c0.8-1.1,1.3-2.4,1.7-3.7L-16821.7-3547.6z M-16829.7-3540.8v-10.3h10.3v10.3
			H-16829.7z M-16830.7-3552.1v13.1h1.1v-0.7h10.3v0.7h1.1v-13.1H-16830.7z M-16811.9-3552.2l-0.2,0h-3.7v13.1h1v-12.1h2.2
			c-0.3,1.1-0.8,2.5-1.3,3.6c0.9,0.8,1.4,1.9,1.4,3.1c0.1,0.4-0.1,0.8-0.3,1c-0.2,0.1-0.3,0.1-0.5,0.1c-0.3,0-0.6,0-0.9,0
			c0.2,0.3,0.3,0.7,0.3,1c0.4,0,0.7,0,1.1,0c0.3,0,0.6-0.1,0.8-0.3c0.5-0.5,0.7-1.1,0.6-1.8c0-1.3-0.5-2.4-1.4-3.3
			c0.5-1.2,1.1-2.8,1.6-4L-16811.9-3552.2z M-16808-3552.5c0.3,0.7,0.5,1.5,0.7,2.3l1.1-0.3c-0.1-0.5-0.5-1.5-0.7-2.2L-16808-3552.5
			z M-16802.8-3549.2v-1.1h-8.6v1.1h2.4c-0.1,4-0.4,7.5-3.7,9.3c0.3,0.2,0.5,0.5,0.8,0.8c2.6-1.5,3.5-3.9,3.8-6.8h3.4
			c-0.1,3.8-0.3,5.3-0.6,5.6c-0.1,0.2-0.3,0.2-0.6,0.2c-0.3,0-1.1,0-1.9-0.1c0.2,0.3,0.3,0.7,0.3,1.1c0.7,0,1.4,0,2,0
			c0.4,0,0.8-0.2,1-0.5c0.5-0.5,0.6-2.2,0.8-6.8v-0.5h-4.4c0.1-0.7,0.1-1.5,0.1-2.3L-16802.8-3549.2z M-16800.7-3540.3h6v-1.1h-2.2
			v-9.9h-1.1c-0.7,0.4-1.5,0.7-2.3,0.8v0.9h1.9v8.2h-2.4V-3540.3z M-16789.3-3546.1c1.3,0,2,0.9,2,2.4c0,1.5-0.8,2.5-1.9,2.5
			c-1.4,0-2.2-1.2-2.4-3.5C-16791.1-3545.5-16790.2-3546-16789.3-3546.1z M-16789.2-3540.1c1.8-0.1,3.2-1.6,3.2-3.4c0,0,0-0.1,0-0.1
			c0-2.3-1.2-3.4-3-3.4c-1,0.1-1.9,0.5-2.5,1.3c0.1-3.4,1.3-4.6,2.8-4.6c0.7,0,1.3,0.3,1.8,0.8l0.8-0.9c-0.7-0.7-1.6-1.1-2.6-1.1
			c-2.1,0-4.1,1.7-4.1,6C-16792.8-3541.9-16791.3-3540.1-16789.2-3540.1z M-16783.3-3540.1c0.5,0,1-0.4,1-1c0,0,0,0,0,0
			c0-0.5-0.4-1-0.9-1.1c-0.5,0-1,0.4-1.1,0.9c0,0.1,0,0.1,0,0.2C-16784.3-3540.6-16783.9-3540.1-16783.3-3540.1
			C-16783.3-3540.1-16783.3-3540.1-16783.3-3540.1L-16783.3-3540.1z M-16780.5-3540.3h6.9v-1.2h-3.1c-0.6,0-1.2,0.1-1.8,0.1
			c2.6-2.4,4.3-4.7,4.3-6.9c0.1-1.7-1.1-3.1-2.8-3.3c-0.1,0-0.3,0-0.4,0c-1.3,0-2.5,0.6-3.2,1.6l0.8,0.8c0.5-0.7,1.4-1.2,2.3-1.3
			c1.1-0.1,2,0.8,2,1.8c0,0.1,0,0.2,0,0.3c0,1.9-1.6,4.1-5,7.1V-3540.3z M-16769.8-3544.5c1.5,0,2.5-1.3,2.5-3.5s-1-3.5-2.5-3.5
			s-2.5,1.2-2.5,3.5C-16772.3-3545.8-16771.3-3544.5-16769.8-3544.5z M-16769.8-3545.4c-0.9,0-1.5-0.9-1.5-2.6
			c0-1.8,0.6-2.6,1.5-2.6c0.9,0,1.5,0.9,1.5,2.6C-16768.3-3546.3-16768.9-3545.4-16769.8-3545.4z M-16769.4-3540.1h0.9l6.1-11.4
			h-0.9L-16769.4-3540.1z M-16762.1-3540.1c1.5,0,2.5-1.3,2.5-3.5s-1-3.4-2.5-3.4s-2.5,1.2-2.5,3.4
			C-16764.6-3541.3-16763.6-3540.1-16762.1-3540.1z M-16762.1-3540.9c-0.9,0-1.5-0.9-1.5-2.6c0-1.8,0.6-2.6,1.5-2.6
			c0.9,0,1.5,0.9,1.5,2.6C-16760.7-3541.8-16761.3-3540.9-16762.1-3540.9z"/>
		<path id="內文p-3" class="st0" d="M-16822.4-3507h2.6c-0.2,1.6-0.6,3.2-1.3,4.7C-16821.7-3503.8-16822.1-3505.4-16822.4-3507z
			 M-16827.7-3508.3h1.5c-0.3,0.5-0.7,1-1.1,1.5h-0.5V-3508.3z M-16817.6-3507v-1.1h-4.4c0.2-0.9,0.4-1.7,0.6-2.6l-1.1-0.2
			c-0.3,2.3-1.1,4.5-2.3,6.4l-0.5-0.4l-0.2,0.1h-2.2c0.4-0.3,0.7-0.7,1.1-1.1h2.6v-1h-1.8c0.8-1,1.4-2.2,1.9-3.4l-1-0.3
			c-0.3,0.7-0.7,1.4-1.1,2.1v-0.9h-1.5v-1.6h-1v1.6h-2v1h2v1.5h-2.6v1h3.2c-1,1-2.1,1.8-3.3,2.4c0.3,0.3,0.6,0.6,0.8,0.9
			c0.6-0.4,1.2-0.8,1.8-1.2h2.3c-0.5,0.5-1.1,1-1.7,1.3v1c-1.2,0.1-2.3,0.3-3.1,0.4l0.1,1c0.9-0.1,1.9-0.3,3-0.4v2.1
			c0,0.2,0,0.2-0.3,0.2c-0.2,0-0.8,0-1.6,0c0.2,0.3,0.3,0.6,0.4,1c0.7,0.1,1.3,0,2-0.2c0.4-0.2,0.5-0.4,0.5-1v-2.3
			c1-0.1,2-0.3,3-0.4l0-1c-1,0.1-2,0.3-2.9,0.4v-0.6c0.8-0.6,1.6-1.2,2.3-2c0.3,0.2,0.6,0.4,0.8,0.7c0.4-0.6,0.7-1.1,1-1.8
			c0.3,1.4,0.8,2.8,1.4,4.2c-0.9,1.3-2.1,2.4-3.6,3c0.3,0.3,0.5,0.6,0.7,1c1.4-0.7,2.6-1.7,3.5-2.9c0.7,1.2,1.6,2.1,2.8,2.8
			c0.2-0.4,0.5-0.7,0.8-0.9c-1.2-0.7-2.2-1.7-2.9-2.9c1-1.9,1.6-3.9,1.8-6H-16817.6z M-16804.5-3504.9h-9.7v2.7
			c0.1,1.6-0.4,3.3-1.5,4.5c0.3,0.2,0.6,0.4,0.9,0.7c1.2-1.4,1.9-3.3,1.7-5.2v-1.8h7.4v2.7c-2.6,0.5-5.3,0.9-7,1.2l0.4,1
			c1.8-0.3,4.3-0.8,6.7-1.3v1.9c0,0.2-0.1,0.3-0.4,0.3c-0.2,0-1.2,0-2.2,0c0.1,0.3,0.3,0.6,0.3,1c0.9,0.1,1.8,0,2.7-0.1
			c0.5-0.1,0.7-0.4,0.7-1.1V-3504.9z M-16812.6-3502.6c1.9,0.3,3.7,0.8,5.5,1.5l0.3-0.8c-1.8-0.6-3.6-1.1-5.5-1.4L-16812.6-3502.6z
			 M-16812.9-3506.5c0.7-0.6,1.4-1.2,2.1-1.8h3.4l-0.6,0.4c0.5,0.3,1,0.7,1.5,1.1L-16812.9-3506.5z M-16802.9-3509.4h-6.9
			c0.4-0.4,0.7-0.8,1.1-1.2l-1.1-0.5c-0.4,0.6-0.9,1.1-1.4,1.6h-4.8v1h3.8c-0.4,0.4-0.9,0.8-1.3,1.1c-0.4,0.4-0.8,0.6-1.3,0.8
			c0.1,0.3,0.3,0.8,0.3,1.1c0.5-0.2,1.3-0.2,9-0.6c0.4,0.4,0.8,0.8,1,1.1l0.9-0.6c-1-1-2.1-2-3.3-2.8h4V-3509.4z M-16800.7-3498.3h6
			v-1.1h-2.2v-9.9h-1.1c-0.7,0.4-1.5,0.7-2.3,0.8v0.9h1.9v8.2h-2.4V-3498.3z M-16789.3-3504.1c1.3,0,2,0.9,2,2.4
			c0,1.5-0.8,2.5-1.9,2.5c-1.4,0-2.2-1.2-2.4-3.5C-16791.1-3503.5-16790.2-3504-16789.3-3504.1z M-16789.2-3498.1
			c1.8-0.1,3.2-1.6,3.2-3.4c0,0,0-0.1,0-0.1c0-2.3-1.2-3.4-3-3.4c-1,0.1-1.9,0.5-2.5,1.3c0.1-3.4,1.3-4.6,2.8-4.6
			c0.7,0,1.3,0.3,1.8,0.8l0.8-0.9c-0.7-0.7-1.6-1.1-2.6-1.1c-2.1,0-4.1,1.7-4.1,6C-16792.8-3499.9-16791.3-3498.1-16789.2-3498.1z
			 M-16783.3-3498.1c0.5,0,1-0.4,1-1c0,0,0,0,0,0c0-0.5-0.4-1-0.9-1.1c-0.5,0-1,0.4-1.1,0.9c0,0.1,0,0.1,0,0.2
			C-16784.3-3498.6-16783.9-3498.1-16783.3-3498.1C-16783.3-3498.1-16783.3-3498.1-16783.3-3498.1L-16783.3-3498.1z M-16777-3498.1
			c2.1,0,3.5-1.2,3.5-2.9c0-1.2-0.7-2.4-1.9-2.9v-0.1c0.9-0.6,1.4-1.6,1.5-2.7c-0.1-1.7-1.5-3-3.1-2.9c-1.5,0.1-2.8,1.3-2.9,2.8
			c0,1,0.6,2,1.5,2.5v0.1c-1.2,0.6-2,1.7-2,3C-16780.5-3499.3-16779-3498.1-16777-3498.1L-16777-3498.1z M-16776.2-3504.2
			c-1.3-0.5-2.5-1.1-2.5-2.4c-0.1-0.9,0.7-1.7,1.6-1.8c0.1,0,0.1,0,0.2,0c1,0,1.8,0.8,1.9,1.8c0,0.1,0,0.1,0,0.2
			C-16775.1-3505.6-16775.6-3504.8-16776.2-3504.2L-16776.2-3504.2z M-16777-3499.1c-1.2,0.1-2.2-0.7-2.3-1.9c0,0,0-0.1,0-0.1
			c0-1,0.6-2,1.5-2.5c1.6,0.6,2.9,1.2,2.9,2.7c0,1-0.9,1.9-1.9,1.9C-16776.8-3499.1-16776.9-3499.1-16777-3499.1L-16777-3499.1z
			 M-16769.8-3502.5c1.5,0,2.5-1.3,2.5-3.5s-1-3.5-2.5-3.5s-2.5,1.2-2.5,3.5C-16772.3-3503.8-16771.3-3502.5-16769.8-3502.5z
			 M-16769.8-3503.4c-0.9,0-1.5-0.9-1.5-2.6c0-1.8,0.6-2.6,1.5-2.6c0.9,0,1.5,0.9,1.5,2.6
			C-16768.3-3504.3-16768.9-3503.4-16769.8-3503.4z M-16769.4-3498.1h0.9l6.1-11.4h-0.9L-16769.4-3498.1z M-16762.1-3498.1
			c1.5,0,2.5-1.3,2.5-3.5s-1-3.4-2.5-3.4s-2.5,1.2-2.5,3.4C-16764.6-3499.3-16763.6-3498.1-16762.1-3498.1z M-16762.1-3498.9
			c-0.9,0-1.5-0.9-1.5-2.6c0-1.8,0.6-2.6,1.5-2.6c0.9,0,1.5,0.9,1.5,2.6C-16760.7-3499.8-16761.3-3498.9-16762.1-3498.9z"/>
		<path id="內文p-4" class="st0" d="M-16823.7-3461.4c1.7,1.2,3.2,2.6,4.5,4.1l0.8-0.6c-0.7-0.8-1.4-1.5-2.2-2.2
			c0.9-0.5,1.7-1.1,2.5-1.7l-0.9-0.7c-0.7,0.7-1.5,1.3-2.4,1.8c-0.6-0.5-1.1-0.9-1.7-1.3L-16823.7-3461.4z M-16820.6-3467.2v1.4
			h-4.3v-1.4H-16820.6z M-16824.9-3463.5v-1.5h4.3v1.5H-16824.9z M-16824.9-3458.7v-3.8h5.3v-5.6h-6.4v9.2c0,0.4-0.2,0.8-0.5,0.9
			c0.2,0.3,0.3,0.6,0.4,0.9c0.3-0.2,0.8-0.4,3.9-1.4c0-0.3-0.1-0.6-0.1-1L-16824.9-3458.7z M-16827.9-3466.5
			c-0.6-0.8-1.2-1.6-1.9-2.3l-0.8,0.5c0.7,0.8,1.3,1.6,1.9,2.4L-16827.9-3466.5z M-16827.8-3461.7l-0.2,0h-1.8c0.9-1,2-2.6,2.7-3.4
			l-0.8-0.4l-0.3,0.1h-3.1v0.9h2.4c-0.6,0.8-1.2,1.7-1.9,2.4c-0.2,0.2-0.5,0.4-0.7,0.4c0.2,0.3,0.3,0.7,0.4,1.1
			c0.3-0.2,0.6-0.2,0.9-0.2h1.7c-0.3,2-1.5,3.8-3.2,4.9c0.3,0.2,0.5,0.5,0.7,0.8c0.8-0.6,1.5-1.3,2.1-2.2c1.2,1.6,3,1.9,6,1.9
			c1.6,0,3.5,0,4.9-0.1c0.1-0.4,0.2-0.7,0.4-1.1c-1.5,0.1-3.7,0.2-5.2,0.2c-2.7,0-4.5-0.2-5.5-1.7c0.5-1.1,0.9-2.2,1.1-3.4
			L-16827.8-3461.7z M-16812.6-3468.7c-0.9,2.3-2.3,4.4-4.1,6c0.3,0.4,0.5,0.7,0.7,1.1c0.6-0.6,1.2-1.3,1.8-2v8.4h1.1v-10
			c0.6-1,1.2-2.1,1.6-3.2L-16812.6-3468.7z M-16802.8-3463.9v-1.1h-4.3v-3.6h-1.1v3.6h-4.2v1.1h3.6c-0.9,2.4-2.3,4.5-4.2,6.1
			c0.3,0.3,0.6,0.5,0.8,0.9c1.7-1.6,3-3.6,3.9-5.8v7.6h1.1v-7.9c0.9,2.2,2.2,4.3,3.9,6c0.2-0.3,0.5-0.6,0.8-0.9
			c-1.8-1.7-3.2-3.7-4.1-6H-16802.8z M-16793.8-3462.2v2.4h-1.1v-2.4L-16793.8-3462.2z M-16791.8-3462.2v2.4h-1.1v-2.4
			L-16791.8-3462.2z M-16789.8-3462.2v2.4h-1.1v-2.4L-16789.8-3462.2z M-16795.7-3463.2h-1.6v1h1.6v2.4h-1.3v1h9.3v-1h-1.1v-2.4h1.2
			v-1h-1.2v-2h-0.9v2h-1.1v-2h-0.9v2h-1.1v-2h-0.9v2h-1.1v-2h-0.9c0.1-0.2,0.3-0.4,0.4-0.6h7.4v-1h-6.9c0.3-0.6,0.5-1.2,0.7-1.8
			l-0.9-0.3c-0.5,1.5-1.3,3-2.4,4.1c0.3,0.2,0.5,0.5,0.7,0.7c0.3-0.4,0.7-0.8,1-1.2V-3463.2z M-16797.2-3461.3l-0.2-1l-1.2,0.4v-2.9
			h1.1v-1h-1.1v-3h-1v3h-1.5v1h1.5v3.3c-0.6,0.2-1.2,0.4-1.7,0.6l0.3,1.1l1.4-0.5v3.8c0,0.2-0.1,0.2-0.2,0.2c-0.2,0-0.7,0-1.3,0
			c0.2,0.3,0.3,0.7,0.3,1c0.6,0.1,1.2,0,1.8-0.2c0.3-0.2,0.5-0.5,0.5-1.1v-4.2L-16797.2-3461.3z M-16796.5-3455.1
			c0.5-0.9,1-1.8,1.3-2.7l-0.8-0.4c-0.4,0.9-0.8,1.8-1.4,2.7L-16796.5-3455.1z M-16794.2-3458.1c0.1,0.9,0.2,2.2,0.3,2.9l1-0.2
			c0-0.7-0.2-1.9-0.3-2.8L-16794.2-3458.1z M-16792-3458.1c0.3,0.9,0.6,2.2,0.8,2.9l1-0.2c-0.2-0.7-0.5-1.9-0.8-2.8L-16792-3458.1z
			 M-16789.8-3458.1c0.5,0.9,1,2.2,1.2,2.9l1-0.4c-0.3-0.7-0.8-1.9-1.3-2.8L-16789.8-3458.1z M-16784.8-3465.6h0.9v7.5l-0.9,0.2
			V-3465.6z M-16782.2-3458.4l-1,0.2v-7.4h1V-3458.4z M-16780.4-3458.8l-1,0.2v-7h1V-3458.8z M-16779.5-3459v-7.5h-3.2
			c0.2-0.6,0.5-1.4,0.7-2.1l-1.2-0.2c-0.2,0.8-0.4,1.6-0.7,2.3h-1.7v8.8l-0.9,0.2l0.2,1.1c2-0.4,4.8-1.1,7.4-1.7l-0.1-1
			L-16779.5-3459z M-16773.3-3467.9h-5.3v12.8h1.1v-11.7h3.1v7.8c0,0.2-0.1,0.3-0.3,0.3c-0.2,0-0.9,0-1.8,0c0.2,0.4,0.3,0.8,0.4,1.2
			c0.7,0.1,1.5,0,2.2-0.2c0.4-0.2,0.6-0.6,0.6-1.2V-3467.9z M-16769-3456.3h1.4c0.2-4.3,0.6-6.9,3.2-10.2v-0.8h-6.9v1.2h5.3
			C-16768.1-3463.1-16768.8-3460.4-16769-3456.3z M-16761.6-3456.1c0.5,0,1-0.4,1-1c0,0,0,0,0,0c0-0.5-0.4-1-0.9-1.1
			c-0.5,0-1,0.4-1.1,0.9c0,0.1,0,0.1,0,0.2C-16762.6-3456.6-16762.2-3456.1-16761.6-3456.1
			C-16761.6-3456.1-16761.6-3456.1-16761.6-3456.1z M-16755.3-3456.1c2.1,0,3.4-1.9,3.4-5.7c0-3.8-1.3-5.7-3.4-5.7
			c-2.1,0-3.4,1.8-3.4,5.7S-16757.4-3456.1-16755.3-3456.1z M-16755.3-3457.2c-1.3,0-2.1-1.4-2.1-4.6c0-3.2,0.8-4.6,2.1-4.6
			c1.3,0,2.1,1.4,2.1,4.6C-16753.3-3458.6-16754.1-3457.2-16755.3-3457.2z M-16748.1-3460.5c1.5,0,2.5-1.3,2.5-3.5s-1-3.5-2.5-3.5
			c-1.5,0-2.5,1.2-2.5,3.5C-16750.6-3461.8-16749.6-3460.5-16748.1-3460.5z M-16748.1-3461.4c-0.9,0-1.5-0.9-1.5-2.6
			c0-1.8,0.6-2.6,1.5-2.6c0.9,0,1.5,0.9,1.5,2.6C-16746.6-3462.3-16747.2-3461.4-16748.1-3461.4z M-16747.8-3456.1h0.9l6.1-11.4
			h-0.9L-16747.8-3456.1z M-16740.4-3456.1c1.5,0,2.5-1.3,2.5-3.5s-1-3.4-2.5-3.4s-2.5,1.2-2.5,3.4
			C-16742.9-3457.3-16741.9-3456.1-16740.4-3456.1z M-16740.4-3456.9c-0.9,0-1.5-0.9-1.5-2.6c0-1.8,0.6-2.6,1.5-2.6
			c0.9,0,1.5,0.9,1.5,2.6C-16739-3457.8-16739.6-3456.9-16740.4-3456.9z"/>
		<path id="內文p-5" class="st0" d="M-16827.9-3427.6c-0.3-0.7-0.7-1.4-1.2-2.1l-0.9,0.4c0.4,0.7,0.8,1.4,1.1,2.2L-16827.9-3427.6
			z M-16822.5-3421.8v1.5h-2.3v-1.5H-16822.5z M-16819.1-3420.2h-2.4v-1.5h2.4V-3420.2z M-16821.5-3417.7v-1.6h2.4v1.6H-16821.5z
			 M-16824.8-3419.3h2.3v1.6h-2.3V-3419.3z M-16825.8-3421.8c-0.3-0.3-1.4-1.3-1.9-1.7c0.7-1,1.3-2,1.7-3.2l-0.6-0.4l-0.2,0.1h-4.3
			v1h3.8c-1,2-2.5,3.7-4.3,4.9c0.2,0.3,0.4,0.6,0.6,1c0.7-0.5,1.4-1.1,2-1.8v5.7h1.1v-6.4c0.5,0.6,1.3,1.3,1.6,1.7L-16825.8-3421.8
			v5.7h1v-0.7h5.7v0.7h1.1v-6.6h-7.8V-3421.8z M-16819.8-3424.5h-4.2v-1.6h4.2V-3424.5z M-16825-3427.1v3.4h6.3v-3.4H-16825z
			 M-16825.8-3429.1v1h7.9v-1H-16825.8z M-16812-3428.1c0.9-0.2,1.8-0.5,2.7-0.8l-0.8-0.9c-2,0.7-4.1,1.2-6.2,1.5
			c0.2,0.3,0.3,0.6,0.3,0.9c0.9-0.1,1.9-0.3,2.9-0.5v2.5h-3.1v1h2.9c-0.7,1.9-1.8,3.6-3.2,5.1c0.2,0.3,0.4,0.7,0.6,1
			c1.2-1.3,2.2-2.8,2.9-4.4v6.5h1.1v-5.9c0.8,0.7,1.7,1.7,2.2,2.2l0.6-0.9c-0.4-0.4-2.1-1.9-2.8-2.4v-1.1h2.9v-1h-2.9V-3428.1z
			 M-16807-3428h-1.1v8.2h1.1V-3428z M-16804.5-3429.5v11.9c0,0.3-0.1,0.4-0.4,0.4c-0.3,0-1.2,0-2.3,0c0.2,0.4,0.3,0.7,0.4,1.1
			c0.9,0.1,1.8,0,2.7-0.2c0.5-0.2,0.7-0.5,0.7-1.3v-11.9H-16804.5z M-16799.3-3422.2c0-0.6,0-1.2,0-1.7v-0.8h2.3v2.5
			L-16799.3-3422.2z M-16797-3428.2v2.5h-2.3v-2.5L-16797-3428.2z M-16796-3429.3h-4.3v5.4c0,2.2-0.1,5.2-1.1,7.3
			c0.3,0.1,0.6,0.3,0.9,0.5c0.7-1.6,1.1-3.3,1.1-5.1h2.3v3.7c0,0.2-0.1,0.3-0.3,0.3c-0.2,0-0.8,0-1.5,0c0.2,0.3,0.3,0.7,0.3,1.1
			c0.7,0.1,1.4,0,2-0.2c0.4-0.2,0.5-0.5,0.5-1.1V-3429.3z M-16789.2-3423.1c-0.3,1.2-0.8,2.3-1.5,3.4c-0.7-1-1.3-2.2-1.6-3.4
			H-16789.2z M-16788.6-3424.2l-0.2,0h-4.9v-4h4.2v1.8c0,0.2-0.1,0.2-0.3,0.2c-0.2,0-1,0-1.9,0c0.2,0.3,0.3,0.6,0.4,0.9
			c0.8,0,1.6,0,2.4-0.1c0.4-0.2,0.6-0.4,0.6-1v-2.9h-6.3v13.1h1.1v-7h0.4c0.5,1.5,1.1,2.9,2,4.2c-0.6,0.8-1.4,1.4-2.3,1.9
			c0.3,0.2,0.5,0.5,0.7,0.8c0.9-0.5,1.6-1.2,2.3-1.9c0.7,0.8,1.5,1.5,2.4,2c0.2-0.3,0.4-0.6,0.7-0.9c-1-0.5-1.8-1.1-2.5-2
			c1-1.5,1.7-3.2,2.1-5.1L-16788.6-3424.2z M-16775.2-3427.3c-0.3,0.7-0.8,1.4-1.5,1.9c-0.7-0.5-1.3-1.2-1.7-1.9H-16775.2z
			 M-16781.2-3420.8c0.4-0.7,0.7-1.5,0.9-2.3c0.2,0.2,0.3,0.4,0.4,0.6c1.2-0.3,2.3-0.9,3.3-1.5c1,0.7,2.2,1.3,3.4,1.6
			c0.2-0.3,0.4-0.7,0.7-1c-1.2-0.2-2.3-0.7-3.3-1.3c0.8-0.7,1.4-1.6,1.8-2.6h1.2v-0.9h-5c0.3-0.4,0.5-0.8,0.7-1.3l-1.1-0.3
			c-0.6,1.4-1.6,2.7-2.9,3.7c0.3,0.2,0.6,0.4,0.9,0.6c0.4-0.3,0.7-0.7,1.1-1.1c0.4,0.7,0.9,1.3,1.5,1.8c-0.8,0.5-1.7,0.9-2.7,1.2
			c0.1-0.3,0.2-0.5,0.2-0.8l-0.7-0.2l-0.2,0.1h-1.1l0.6-0.6c-0.4-0.3-0.8-0.6-1.3-0.9c0.9-0.7,1.8-1.6,2.4-2.5l-0.7-0.4l-0.2,0h-5v1
			h4.2c-0.5,0.5-1,1-1.6,1.5c-0.5-0.3-1-0.5-1.5-0.7l-0.7,0.7c1.2,0.5,2.3,1.2,3.3,2h-4v1h2.3c-0.5,1.5-1.3,2.9-2.4,4
			c0.2,0.3,0.4,0.7,0.6,1c0.9-1.1,1.7-2.3,2.2-3.7v4.8c0,0.2-0.1,0.2-0.2,0.2c-0.2,0-0.8,0-1.4,0c0.2,0.3,0.3,0.7,0.3,1
			c0.6,0,1.3,0,1.9-0.2c0.4-0.2,0.5-0.5,0.5-1.1v-6.2h1.4c-0.2,0.8-0.5,1.6-0.8,2.4L-16781.2-3420.8z M-16776.7-3421.4
			c0.1-0.5,0.2-1,0.2-1.5h-1.1c0,0.5-0.1,1-0.2,1.5h-2.6v0.9h2.3c-0.5,1.7-1.8,3-3.5,3.5c0.3,0.3,0.5,0.5,0.7,0.9
			c2-0.7,3.5-2.3,4-4.4h2.5c-0.2,2.1-0.5,2.9-0.7,3.2c-0.1,0.1-0.3,0.2-0.5,0.1c-0.2,0-0.8,0-1.5-0.1c0.2,0.3,0.3,0.7,0.3,1
			c0.6,0,1.1,0,1.7,0c0.3,0,0.7-0.1,0.9-0.4c0.4-0.4,0.7-1.6,1-4.4c0-0.2,0-0.5,0-0.5H-16776.7z M-16768.1-3417.1
			c2,0,3.6-1.6,3.6-3.5c0-0.1,0-0.2,0-0.2c0.2-1.7-1-3.3-2.8-3.5c-0.2,0-0.4,0-0.6,0c-0.6,0-1.1,0.1-1.6,0.4l0.3-3.2h4.2v-1.2h-5.4
			l-0.3,5.2l0.7,0.4c0.5-0.4,1.2-0.6,1.8-0.6c1.2,0,2.3,0.9,2.3,2.2c0,0.1,0,0.2,0,0.4c0.1,1.3-0.8,2.5-2.1,2.6c-0.1,0-0.1,0-0.2,0
			c-1,0-2-0.4-2.7-1.2l-0.7,0.9C-16770.7-3417.6-16769.4-3417-16768.1-3417.1z M-16761.6-3417.1c0.5,0,1-0.4,1-1c0,0,0,0,0,0
			c0-0.5-0.4-1-0.9-1.1c-0.5,0-1,0.4-1.1,0.9c0,0.1,0,0.1,0,0.2C-16762.6-3417.6-16762.2-3417.1-16761.6-3417.1
			C-16761.6-3417.1-16761.6-3417.1-16761.6-3417.1z M-16755.3-3417.1c2.1,0,3.5-1.2,3.5-2.9c0-1.2-0.7-2.4-1.9-2.9v-0.1
			c0.9-0.6,1.4-1.6,1.5-2.7c-0.1-1.7-1.5-3-3.1-2.9c-1.5,0.1-2.8,1.3-2.9,2.8c0,1,0.6,2,1.5,2.5v0.1c-1.2,0.6-2,1.7-2,3
			C-16758.8-3418.3-16757.3-3417.1-16755.3-3417.1z M-16754.6-3423.2c-1.3-0.5-2.5-1.1-2.5-2.4c-0.1-0.9,0.7-1.7,1.6-1.8
			c0.1,0,0.1,0,0.2,0c1,0,1.8,0.8,1.9,1.8c0,0.1,0,0.1,0,0.2C-16753.5-3424.6-16753.9-3423.8-16754.6-3423.2z M-16755.3-3418.1
			c-1.2,0.1-2.2-0.8-2.3-1.9c0,0,0-0.1,0-0.1c0-1,0.6-2,1.5-2.5c1.6,0.6,2.9,1.2,2.9,2.7c0,1-0.9,1.9-1.9,1.9
			C-16755.2-3418.1-16755.2-3418.1-16755.3-3418.1z M-16748.1-3421.5c1.5,0,2.5-1.3,2.5-3.5s-1-3.5-2.5-3.5c-1.5,0-2.5,1.2-2.5,3.5
			C-16750.6-3422.8-16749.6-3421.5-16748.1-3421.5z M-16748.1-3422.4c-0.9,0-1.5-0.9-1.5-2.6c0-1.8,0.6-2.6,1.5-2.6
			c0.9,0,1.5,0.9,1.5,2.6C-16746.6-3423.3-16747.2-3422.4-16748.1-3422.4z M-16747.8-3417.1h0.9l6.1-11.4h-0.9L-16747.8-3417.1z
			 M-16740.4-3417.1c1.5,0,2.5-1.3,2.5-3.5s-1-3.4-2.5-3.4s-2.5,1.2-2.5,3.4C-16742.9-3418.3-16741.9-3417.1-16740.4-3417.1z
			 M-16740.4-3417.9c-0.9,0-1.5-0.9-1.5-2.6c0-1.8,0.6-2.6,1.5-2.6c0.9,0,1.5,0.9,1.5,2.6
			C-16739-3418.8-16739.6-3417.9-16740.4-3417.9z"/>
		<path id="內文p-6" class="st0" d="M-16827-3388.8c-0.8,2.2-2.1,4.2-3.7,5.9c0.2,0.3,0.4,0.7,0.6,1.1c0.6-0.6,1.1-1.2,1.5-1.9
			v8.6h1.1v-10.2c0.6-1,1.1-2,1.5-3.1L-16827-3388.8z M-16823.3-3377.5c-1,0.7-2.1,1.2-3.3,1.6c0.3,0.2,0.6,0.5,0.9,0.8
			c1.3-0.5,2.5-1.1,3.5-2L-16823.3-3377.5z M-16818.8-3381.7h-5.4v-0.9h5.4L-16818.8-3381.7z M-16818.8-3380.1h-5.4v-0.9h5.4
			L-16818.8-3380.1z M-16818.8-3378.5h-5.4v-0.9h5.4L-16818.8-3378.5z M-16817.7-3383.4h-7.6v5.6h7.6V-3383.4z M-16820.6-3377.1
			c1,0.6,2,1.3,2.9,2l1-0.6c-0.9-0.7-1.9-1.3-2.9-1.9L-16820.6-3377.1z M-16821-3384.9v-0.8h3.5v-0.8h-3.5v-0.8h3.8v-0.8h-3.8v-0.8
			h-1.1v0.8h-3.7v0.8h3.7v0.8h-3.3v0.8h3.3v0.8h-4.3v0.8h9.8v-0.8H-16821z M-16804.2-3386.3c-0.3,0.7-0.8,1.4-1.5,1.9
			c-0.7-0.5-1.3-1.2-1.7-1.9L-16804.2-3386.3z M-16810.2-3379.8c0.4-0.7,0.7-1.5,0.9-2.3c0.2,0.2,0.3,0.4,0.4,0.6
			c1.2-0.3,2.3-0.9,3.3-1.5c1,0.7,2.2,1.3,3.4,1.6c0.2-0.3,0.4-0.7,0.7-1c-1.2-0.2-2.3-0.7-3.3-1.3c0.8-0.7,1.4-1.6,1.8-2.6h1.2
			v-0.9h-5c0.3-0.4,0.5-0.8,0.7-1.3l-1.1-0.3c-0.6,1.4-1.6,2.7-2.9,3.7c0.3,0.2,0.6,0.4,0.9,0.6c0.4-0.3,0.7-0.7,1.1-1.1
			c0.4,0.7,0.9,1.3,1.5,1.8c-0.8,0.5-1.7,0.9-2.7,1.2c0.1-0.3,0.2-0.5,0.2-0.8l-0.7-0.2l-0.2,0.1h-1.1l0.6-0.6
			c-0.4-0.3-0.8-0.6-1.3-0.9c0.9-0.7,1.8-1.6,2.4-2.5l-0.7-0.4l-0.2,0h-5v1h4.3c-0.5,0.5-1,1-1.6,1.5c-0.5-0.3-1-0.5-1.5-0.7
			l-0.7,0.7c1.2,0.5,2.3,1.2,3.3,2h-4v1h2.3c-0.5,1.5-1.3,2.9-2.4,4c0.2,0.3,0.4,0.7,0.6,1c0.9-1.1,1.7-2.3,2.2-3.7v4.8
			c0,0.2-0.1,0.2-0.2,0.2c-0.2,0-0.8,0-1.4,0c0.2,0.3,0.3,0.7,0.3,1c0.6,0,1.3,0,1.9-0.2c0.4-0.2,0.5-0.5,0.5-1.1v-6.2h1.4
			c-0.2,0.8-0.5,1.6-0.8,2.4L-16810.2-3379.8z M-16805.7-3380.4c0.1-0.5,0.2-1,0.2-1.5h-1.1c0,0.5-0.1,1-0.2,1.5h-2.6v0.9h2.3
			c-0.5,1.7-1.8,3-3.5,3.5c0.3,0.3,0.5,0.5,0.7,0.9c2-0.7,3.5-2.3,4-4.4h2.5c-0.2,2.1-0.5,2.9-0.7,3.2c-0.1,0.1-0.3,0.2-0.5,0.2
			c-0.2,0-0.8,0-1.5-0.1c0.2,0.3,0.3,0.7,0.3,1c0.6,0,1.1,0,1.7,0c0.3,0,0.7-0.1,0.9-0.4c0.4-0.4,0.7-1.6,1-4.4c0-0.2,0-0.5,0-0.5
			H-16805.7z M-16796.6-3388.7c-0.8,2.3-2.1,4.3-3.8,6.1c0.3,0.3,0.5,0.7,0.7,1.1c0.6-0.6,1.1-1.2,1.5-1.8v8.2h1.1v-9.9
			c0.6-1,1.1-2.1,1.6-3.3L-16796.6-3388.7z M-16786.7-3385.5h-1.9v-3.2h-1.1v3.2h-6v1.1h6v7.7c0,0.3-0.1,0.4-0.5,0.5
			c-0.4,0-1.6,0-2.8,0c0.2,0.3,0.3,0.7,0.4,1.1c1.1,0.1,2.2,0,3.2-0.2c0.6-0.2,0.8-0.5,0.8-1.3v-7.7h1.9L-16786.7-3385.5z
			 M-16791.7-3379.2c-0.5-0.9-1.5-2.5-2.3-3.6l-1,0.5c0.8,1.2,1.7,2.8,2.2,3.7L-16791.7-3379.2z M-16782-3382.4h6.9v1.2h-6.9
			V-3382.4z M-16782-3384.5h6.9v1.2h-6.9V-3384.5z M-16782-3386.5h6.9v1.2h-6.9V-3386.5z M-16779.7-3379.9c0.8,0.7,1.4,1.5,2,2.4
			l0.9-0.6c-0.6-0.8-1.2-1.6-2-2.3h4.9v-7.1h-4.5c0.3-0.4,0.5-0.9,0.7-1.3l-1.3-0.2c-0.2,0.5-0.3,1-0.6,1.5h-3.5v7.1h4.2
			L-16779.7-3379.9z M-16784.2-3375.8c0.6-1,1-2,1.5-3.1l-1-0.4c-0.4,1.1-0.9,2.1-1.5,3L-16784.2-3375.8z M-16779.8-3376.4
			c-1,0-1.1-0.1-1.1-0.5v-2.4h-1.1v2.4c0,1.2,0.4,1.5,2.2,1.5h3.4c1.5,0,1.8-0.4,2-2.4c-0.4-0.1-0.7-0.2-1-0.4
			c-0.1,1.5-0.2,1.7-1,1.7H-16779.8z M-16774.6-3379.2c0.7,0.9,1.3,1.9,1.7,3l1-0.5c-0.4-1.1-1-2.1-1.7-3L-16774.6-3379.2z
			 M-16767.1-3376.1c2,0,3.6-1.6,3.6-3.5c0-0.1,0-0.2,0-0.2c0.2-1.7-1-3.3-2.8-3.5c-0.2,0-0.4,0-0.6,0c-0.6,0-1.1,0.1-1.6,0.4
			l0.3-3.2h4.2v-1.2h-5.4l-0.3,5.2l0.7,0.4c0.5-0.4,1.2-0.6,1.8-0.6c1.2,0,2.3,0.9,2.3,2.2c0,0.1,0,0.2,0,0.4
			c0.1,1.3-0.8,2.5-2.1,2.6c-0.1,0-0.1,0-0.2,0c-1,0-2-0.4-2.7-1.2l-0.7,0.9C-16769.7-3376.6-16768.4-3376-16767.1-3376.1
			L-16767.1-3376.1z M-16760.6-3376.1c0.5,0,1-0.4,1-1c0,0,0,0,0,0c0-0.5-0.4-1-0.9-1.1c-0.5,0-1,0.4-1.1,0.9c0,0.1,0,0.1,0,0.2
			C-16761.6-3376.6-16761.2-3376.1-16760.6-3376.1C-16760.6-3376.1-16760.6-3376.1-16760.6-3376.1L-16760.6-3376.1z
			 M-16757.8-3376.3h6.9v-1.2h-3c-0.6,0-1.2,0.1-1.8,0.1c2.6-2.4,4.3-4.7,4.3-6.9c0.1-1.7-1.1-3.1-2.8-3.3c-0.1,0-0.3,0-0.4,0
			c-1.3,0-2.5,0.6-3.2,1.6l0.8,0.8c0.5-0.7,1.4-1.2,2.3-1.3c1.1-0.1,2,0.8,2,1.8c0,0.1,0,0.2,0,0.4c0,1.9-1.6,4.1-5,7.1V-3376.3z
			 M-16747.1-3380.5c1.5,0,2.5-1.3,2.5-3.5s-1-3.5-2.5-3.5c-1.5,0-2.5,1.2-2.5,3.5C-16749.6-3381.8-16748.6-3380.5-16747.1-3380.5z
			 M-16747.1-3381.4c-0.9,0-1.5-0.9-1.5-2.6c0-1.8,0.6-2.6,1.5-2.6c0.9,0,1.5,0.9,1.5,2.6
			C-16745.6-3382.3-16746.2-3381.4-16747.1-3381.4z M-16746.8-3376.1h0.9l6.1-11.4h-0.9L-16746.8-3376.1z M-16739.4-3376.1
			c1.5,0,2.5-1.3,2.5-3.5s-1-3.4-2.5-3.4s-2.5,1.2-2.5,3.4C-16741.9-3377.3-16740.9-3376.1-16739.4-3376.1z M-16739.4-3376.9
			c-0.9,0-1.5-0.9-1.5-2.6c0-1.8,0.6-2.6,1.5-2.6c0.9,0,1.5,0.9,1.5,2.6C-16738-3377.8-16738.6-3376.9-16739.4-3376.9z"/>
		<path id="內文p-7" class="st0" d="M-16820.1-3344h-2.2v-1h2.2V-3344z M-16820.1-3342.3h-2.2v-1h2.2V-3342.3z M-16828.7-3343.3
			h2.1v1h-2.1V-3343.3z M-16828.7-3345h2.1v1h-2.1V-3345z M-16823.4-3343.3v1h-2.2v-1H-16823.4z M-16823.4-3345v1h-2.2v-1H-16823.4z
			 M-16819-3345.8h-3.3v-1.1h-1.1v1.1h-2.2v-1.1h-1.1v1.1h-3.1v4.2h10.7V-3345.8z M-16819.6-3336.8c-0.9,0.5-1.8,0.9-2.8,1.3
			c-0.5-0.3-1-0.8-1.4-1.3H-16819.6z M-16824.7-3336.8c1.1,2,3.3,3.2,6.5,3.6c0.2-0.3,0.4-0.7,0.6-0.9c-1.3-0.1-2.6-0.4-3.8-0.9
			c1-0.3,1.9-0.7,2.8-1.1l-0.7-0.6h1.6v-0.9h-11c0-0.3,0-0.5,0.1-0.8h9.9v-0.8h-9.9v-0.8h10.7v-0.8h-11.7v1.9
			c0.1,1.9-0.4,3.7-1.4,5.3c0.3,0.2,0.7,0.3,0.9,0.6c0.8-1.1,1.3-2.4,1.4-3.7h1.4v1.8c0,0.4-0.3,0.8-0.7,1c0.2,0.3,0.3,0.6,0.4,0.9
			c0.3-0.2,0.7-0.3,4.2-1.1c0-0.3,0-0.6,0-0.8l-2.8,0.6v-2.3L-16824.7-3336.8z M-16811.6-3335.9c-1.4,0.8-2.9,1.3-4.4,1.5
			c0.3,0.2,0.5,0.5,0.7,0.8c1.6-0.4,3.2-1,4.6-1.9L-16811.6-3335.9z M-16808-3335.4c1.4,0.5,3.3,1.3,4.3,1.8l0.7-0.7
			c-1-0.5-2.9-1.2-4.3-1.7L-16808-3335.4z M-16807.1-3343.2c-0.3,0.5-0.6,1-0.9,1.5l0.5,0.2h-4.1l0.6-0.2c-0.2-0.5-0.5-1-0.8-1.5
			H-16807.1z M-16809-3337.6v-1.1h4.7v-0.9h-4.7v-1.1h5.4v-0.9h-3.4c0.4-0.4,0.7-0.9,1-1.4l-1-0.3h3.9v-0.9h-2.3
			c0.4-0.6,0.9-1.4,1.3-2.2l-1.1-0.3c-0.3,0.8-0.7,1.6-1.2,2.3l0.6,0.2h-1.8v-2.7h-1.1v2.7h-1.8v-2.7h-1.1v2.7h-1.8l0.8-0.3
			c-0.3-0.8-0.8-1.5-1.3-2.2l-0.9,0.3c0.5,0.7,0.9,1.4,1.2,2.2h-2.4v0.9h3.9l-0.8,0.2c0.3,0.4,0.6,0.9,0.8,1.4h-3.2v0.9h5.3v1.1
			h-4.5v0.9h4.5v1.1h-5.9v0.9h5.9v3.6h1.1v-3.6h6v-0.9H-16809z M-16798.1-3334.1c2,0,3.6-1.6,3.6-3.5c0-0.1,0-0.2,0-0.2
			c0.2-1.7-1-3.3-2.8-3.5c-0.2,0-0.4,0-0.6,0c-0.6,0-1.1,0.1-1.6,0.4l0.3-3.2h4.2v-1.2h-5.4l-0.3,5.2l0.7,0.4
			c0.5-0.4,1.2-0.6,1.8-0.6c1.2,0,2.3,0.9,2.3,2.2c0,0.1,0,0.2,0,0.4c0.1,1.3-0.8,2.5-2.1,2.6c-0.1,0-0.1,0-0.2,0
			c-1,0-2-0.4-2.7-1.2l-0.7,0.9C-16800.7-3334.6-16799.4-3334-16798.1-3334.1z M-16791.6-3334.1c0.5,0,1-0.4,1-1c0,0,0,0,0,0
			c0-0.5-0.4-1-0.9-1.1c-0.5,0-1,0.4-1.1,0.9c0,0.1,0,0.1,0,0.2C-16792.6-3334.6-16792.2-3334.1-16791.6-3334.1
			C-16791.6-3334.1-16791.6-3334.1-16791.6-3334.1z M-16788.2-3334.3h6v-1.1h-2.2v-9.9h-1.1c-0.7,0.4-1.5,0.7-2.3,0.8v0.9h1.9v8.2
			h-2.4V-3334.3z M-16778.1-3338.5c1.5,0,2.5-1.3,2.5-3.5s-1-3.5-2.5-3.5s-2.5,1.2-2.5,3.5
			C-16780.6-3339.8-16779.6-3338.5-16778.1-3338.5z M-16778.1-3339.4c-0.9,0-1.5-0.9-1.5-2.6c0-1.8,0.6-2.6,1.5-2.6s1.5,0.9,1.5,2.6
			C-16776.6-3340.3-16777.2-3339.4-16778.1-3339.4z M-16777.8-3334.1h0.9l6.1-11.4h-0.9L-16777.8-3334.1z M-16770.4-3334.1
			c1.5,0,2.5-1.3,2.5-3.5s-1-3.4-2.5-3.4s-2.5,1.2-2.5,3.4C-16772.9-3335.3-16771.9-3334.1-16770.4-3334.1L-16770.4-3334.1z
			 M-16770.4-3334.9c-0.9,0-1.5-0.9-1.5-2.6c0-1.8,0.6-2.6,1.5-2.6c0.9,0,1.5,0.9,1.5,2.6
			C-16769-3335.8-16769.6-3334.9-16770.4-3334.9L-16770.4-3334.9z"/>
		<path id="內文p-8" class="st0" d="M-16820.3-3301.7c-0.7-0.8-1.5-1.5-2.4-2.1l-0.7,0.6c0.9,0.6,1.7,1.3,2.4,2.1L-16820.3-3301.7
			z M-16820.7-3297.8c-0.8-0.8-1.7-1.5-2.7-2.1l-0.7,0.7c1,0.6,1.9,1.3,2.6,2.2L-16820.7-3297.8z M-16824.6-3296.7
			c-0.3-0.4-1.6-2.1-2.1-2.6v-0.3h2.2v-1.1h-2.2v-2.5c0.7-0.1,1.3-0.3,2-0.6l-0.7-0.9c-1.5,0.6-3.1,1-4.8,1.2
			c0.1,0.3,0.2,0.6,0.3,0.9c0.7-0.1,1.4-0.2,2.1-0.3v2.3h-2.5v1.1h2.4c-0.6,1.7-1.4,3.3-2.6,4.7c0.2,0.3,0.4,0.7,0.6,1
			c0.9-1.2,1.6-2.5,2.2-3.9v6.6h1.1v-6.9c0.5,0.8,1.1,1.7,1.4,2.2L-16824.6-3296.7z M-16816.6-3295.4l-0.2-1l-1.8,0.3v-8.7h-1.1v8.9
			l-5.1,0.8l0.2,1.1l4.9-0.8v3.7h1.1v-3.9L-16816.6-3295.4z M-16806.7-3300.1c-0.3-0.3-0.7-0.6-1.1-0.8c0.3-0.3,0.6-0.6,0.9-1
			l-0.8-0.3c-0.2,0.3-0.5,0.6-0.8,0.8c-0.4-0.2-0.8-0.4-1.2-0.6l-0.6,0.5c0.4,0.2,0.7,0.4,1.1,0.6c-0.4,0.3-0.9,0.6-1.4,0.8
			c0.2,0.2,0.4,0.4,0.6,0.6c0.5-0.3,1-0.6,1.5-1c0.4,0.3,0.7,0.6,1.1,0.9L-16806.7-3300.1z M-16806.8-3302.8c-0.3-0.2-0.6-0.4-1-0.7
			c0.3-0.3,0.6-0.6,0.8-0.9l-0.8-0.2c-0.2,0.3-0.4,0.5-0.7,0.7c-0.4-0.2-0.8-0.4-1.1-0.6l-0.5,0.5c0.4,0.2,0.7,0.3,1,0.5
			c-0.4,0.3-0.9,0.5-1.3,0.8c0.2,0.2,0.4,0.3,0.6,0.5c0.5-0.3,1-0.6,1.4-0.9c0.4,0.2,0.7,0.5,1,0.8L-16806.8-3302.8z
			 M-16813.8-3298.6h10.5v1.9h1.1v-2.7h-1.2c0.1-1.3,0.3-3.3,0.3-4.8h-3.5v0.8h2.4l0,0.8h-2.3v0.8h2.2l-0.1,0.8h-2.2v0.8h2.2
			c0,0.3-0.1,0.6-0.1,0.8h-8.2l-0.1-0.8h2.1v-0.8h-2.1l-0.1-0.8h2.1v-0.8h-2.2l-0.1-0.7c0.8-0.1,1.6-0.3,2.3-0.6l-0.5-0.7
			c-1,0.3-1.9,0.5-2.9,0.7l0.3,4.5h-1.2v2.7h1.1L-16813.8-3298.6z M-16801.8-3295h-6v-0.3c1.2-0.5,2.3-1.1,3.4-1.9l-0.7-0.6
			l-0.2,0.1h-7v0.8h5.9c-0.8,0.5-1.6,0.8-2.4,1.1v0.6h-6.3v0.9h6.3v1.7c0,0.2-0.1,0.3-0.3,0.3c-0.2,0-1.1,0-2,0
			c0.2,0.3,0.3,0.6,0.4,0.9c0.8,0.1,1.6,0,2.4-0.2c0.5-0.2,0.6-0.4,0.6-1v-1.7h6V-3295z M-16797.1-3292.1c2,0,3.6-1.6,3.6-3.5
			c0-0.1,0-0.2,0-0.2c0.2-1.7-1-3.3-2.8-3.5c-0.2,0-0.4,0-0.6,0c-0.6,0-1.1,0.1-1.6,0.4l0.3-3.2h4.2v-1.2h-5.4l-0.3,5.2l0.7,0.4
			c0.5-0.4,1.2-0.6,1.8-0.6c1.2,0,2.3,0.9,2.3,2.2c0,0.1,0,0.2,0,0.4c0.1,1.3-0.8,2.5-2.1,2.6c-0.1,0-0.1,0-0.2,0
			c-1,0-2-0.4-2.7-1.2l-0.7,0.9C-16799.7-3292.6-16798.4-3292-16797.1-3292.1z M-16790.6-3292.1c0.5,0,1-0.4,1-1c0,0,0,0,0,0
			c0-0.5-0.4-1-0.9-1.1c-0.5,0-1,0.4-1.1,0.9c0,0.1,0,0.1,0,0.2C-16791.6-3292.6-16791.2-3292.1-16790.6-3292.1
			C-16790.6-3292.1-16790.6-3292.1-16790.6-3292.1z M-16784.3-3292.1c2.1,0,3.4-1.9,3.4-5.7c0-3.8-1.3-5.7-3.4-5.7
			c-2.1,0-3.4,1.8-3.4,5.7S-16786.4-3292.1-16784.3-3292.1z M-16784.3-3293.2c-1.3,0-2.1-1.4-2.1-4.6c0-3.2,0.8-4.6,2.1-4.6
			c1.2,0,2.1,1.4,2.1,4.6C-16782.3-3294.6-16783.1-3293.2-16784.3-3293.2z M-16777.1-3296.5c1.5,0,2.5-1.3,2.5-3.5s-1-3.5-2.5-3.5
			s-2.5,1.2-2.5,3.5C-16779.6-3297.8-16778.6-3296.5-16777.1-3296.5L-16777.1-3296.5z M-16777.1-3297.4c-0.9,0-1.5-0.9-1.5-2.6
			c0-1.8,0.6-2.6,1.5-2.6s1.5,0.9,1.5,2.6C-16775.6-3298.3-16776.2-3297.4-16777.1-3297.4L-16777.1-3297.4z M-16776.8-3292.1h0.9
			l6.1-11.4h-0.9L-16776.8-3292.1z M-16769.4-3292.1c1.5,0,2.5-1.3,2.5-3.5s-1-3.4-2.5-3.4s-2.5,1.2-2.5,3.4
			C-16771.9-3293.3-16770.9-3292.1-16769.4-3292.1z M-16769.4-3292.9c-0.9,0-1.5-0.9-1.5-2.6c0-1.8,0.6-2.6,1.5-2.6
			c0.9,0,1.5,0.9,1.5,2.6C-16768-3293.8-16768.6-3292.9-16769.4-3292.9z"/>
		<path id="內文p-9" class="st0" d="M-16817.1-3261.7h-6.2l0.7-0.3c-0.3-0.7-0.7-1.3-1.1-1.9l-1,0.4c0.4,0.6,0.7,1.2,1,1.8h-6.2
			v1.1h12.9V-3261.7z M-16821.7-3259.6c1.4,0.9,2.7,2.1,3.8,3.3l0.9-0.7c-1.2-1.2-2.5-2.3-3.9-3.2L-16821.7-3259.6z
			 M-16826.2-3260.2c-1,1.2-2.3,2.3-3.7,3c0.3,0.3,0.6,0.5,0.9,0.8c1.5-1,2.8-2.1,3.9-3.5L-16826.2-3260.2z M-16821.3-3257.7
			c-0.5,1.3-1.2,2.5-2.2,3.4c-1-0.9-1.7-2.1-2.2-3.3l-1,0.3c0.5,1.4,1.4,2.6,2.4,3.7c-1.8,1.3-3.8,2.1-6,2.5c0.3,0.3,0.5,0.6,0.7,1
			c2.2-0.5,4.3-1.4,6.1-2.8c1.8,1.4,3.9,2.3,6.1,2.6c0.2-0.4,0.4-0.7,0.7-1c-2.1-0.3-4.2-1.1-5.9-2.4c1.1-1.1,2-2.4,2.5-3.8
			L-16821.3-3257.7z M-16807-3259.2v1.3h-2.6v-1.3H-16807z M-16803.3-3257.9h-2.7v-1.3h2.7V-3257.9z M-16806-3255.7v-1.4h2.7v1.4
			H-16806z M-16809.6-3255.7v-1.4h2.6v1.4H-16809.6z M-16809.6-3254.8h2.6v2.4h1v-2.4h2.7v1.4c0,0.2-0.1,0.2-0.3,0.3
			c-0.2,0-0.8,0-1.5,0c0.1,0.3,0.2,0.6,0.3,0.9c0.7,0.1,1.3,0,2-0.2c0.4-0.2,0.5-0.4,0.5-0.9v-6.6h-1.9c-0.3-0.2-0.7-0.4-1.2-0.6
			c1.1-0.5,2.1-1.2,3-2.1l-0.7-0.5l-0.2,0.1h-7.3v0.9h6.3c-0.7,0.5-1.3,0.9-2.1,1.2c-0.7-0.3-1.5-0.6-2.1-0.8l-0.7,0.6
			c0.9,0.3,2,0.8,2.9,1.2h-4.3v7.7h1V-3254.8z M-16811.9-3261.5c-0.6-0.8-1.2-1.6-1.9-2.3l-0.8,0.5c0.7,0.8,1.3,1.5,1.9,2.4
			L-16811.9-3261.5z M-16811.9-3256.7l-0.2,0h-1.7c0.9-1,2-2.6,2.6-3.4l-0.7-0.3l-0.2,0.1h-3.1v0.9h2.4c-0.6,0.8-1.2,1.7-1.9,2.4
			c-0.2,0.2-0.4,0.4-0.7,0.4c0.2,0.3,0.3,0.7,0.4,1c0.3-0.2,0.6-0.2,0.9-0.2h1.6c-0.3,2-1.4,3.7-3,4.9c0.3,0.2,0.5,0.5,0.7,0.8
			c0.8-0.6,1.5-1.3,2-2.2c1.2,1.6,3,1.9,6,1.9c1.6,0,3.5,0,4.9-0.1c0.1-0.4,0.2-0.7,0.4-1.1c-1.5,0.1-3.7,0.2-5.3,0.2
			c-2.7,0-4.6-0.2-5.6-1.8c0.5-1.1,0.8-2.2,1-3.4L-16811.9-3256.7z M-16799.3-3255.4l2.5-3.8c0.3-0.5,0.6-1.1,0.9-1.6h0.1
			c0,0.6-0.1,1.5-0.1,2v3.4H-16799.3z M-16795.9-3251.3h1.3v-3h1.5v-1.1h-1.5v-6.9h-1.5l-4.6,7.1v0.9h4.8V-3251.3z M-16790.6-3251.1
			c0.5,0,1-0.4,1-1c0,0,0,0,0,0c0-0.5-0.4-1-0.9-1.1c-0.5,0-1,0.4-1.1,0.9c0,0.1,0,0.1,0,0.2
			C-16791.6-3251.6-16791.2-3251.1-16790.6-3251.1C-16790.6-3251.1-16790.6-3251.1-16790.6-3251.1z M-16787.2-3251.3h6v-1.1h-2.2
			v-9.9h-1.1c-0.7,0.4-1.5,0.7-2.3,0.8v0.9h1.9v8.2h-2.4V-3251.3z M-16777.1-3255.5c1.5,0,2.5-1.3,2.5-3.5s-1-3.5-2.5-3.5
			s-2.5,1.2-2.5,3.5C-16779.6-3256.8-16778.6-3255.5-16777.1-3255.5z M-16777.1-3256.4c-0.9,0-1.5-0.9-1.5-2.6
			c0-1.8,0.6-2.6,1.5-2.6s1.5,0.9,1.5,2.6C-16775.6-3257.3-16776.2-3256.4-16777.1-3256.4z M-16776.8-3251.1h0.9l6.1-11.4h-0.9
			L-16776.8-3251.1z M-16769.4-3251.1c1.5,0,2.5-1.3,2.5-3.5s-1-3.4-2.5-3.4s-2.5,1.2-2.5,3.4
			C-16771.9-3252.3-16770.9-3251.1-16769.4-3251.1L-16769.4-3251.1z M-16769.4-3251.9c-0.9,0-1.5-0.9-1.5-2.6c0-1.8,0.6-2.6,1.5-2.6
			c0.9,0,1.5,0.9,1.5,2.6C-16768-3252.8-16768.6-3251.9-16769.4-3251.9L-16769.4-3251.9z"/>
		<path id="內文p-10" class="st0" d="M-16823.7-3214.6v2.8h-4.8v-2.8H-16823.7z M-16822.6-3210.8v-4.8h-7v5.9h1.1v-1.1
			L-16822.6-3210.8z M-16821.6-3218.2h-9v1h9L-16821.6-3218.2z M-16818.7-3220.8h-11.9v1.1h10.8v10c0,0.3-0.1,0.4-0.4,0.4
			c-0.3,0-1.3,0-2.4,0c0.2,0.4,0.3,0.8,0.4,1.2c0.9,0.1,1.9,0,2.8-0.2c0.5-0.2,0.7-0.6,0.7-1.4V-3220.8z M-16812.9-3216.1
			c-0.9-0.6-1.8-1.1-2.8-1.5l-0.6,0.8c1,0.4,1.9,1,2.8,1.6L-16812.9-3216.1z M-16814.9-3208.3c1-1.6,1.9-3.2,2.7-4.8l-0.8-0.7
			c-0.8,1.7-1.8,3.3-2.8,4.8L-16814.9-3208.3z M-16815.5-3220.8c1,0.4,1.9,1,2.8,1.7l0.6-0.9c-0.9-0.6-1.8-1.1-2.8-1.6
			L-16815.5-3220.8z M-16802.9-3208.6c-0.7-1.5-1.6-3-2.7-4.2l-0.9,0.4c0.5,0.6,0.9,1.3,1.3,1.9l-4.7,0.5c1-1.4,1.9-2.9,2.6-4.4h4.2
			v-1.1h-3.9v-2.7h3.3v-1.1h-3.3v-2.6h-1.1v2.6h-3.2v1.1h3.2v2.7h-3.9v1.1h3.3c-0.6,1.3-1.3,2.5-2.1,3.7c-0.4,0.5-0.7,0.9-1,1
			c0.2,0.4,0.3,0.7,0.4,1.1c0.4-0.2,1-0.3,6.6-1c0.3,0.5,0.5,1,0.7,1.5L-16802.9-3208.6z M-16801.3-3209.3h6.9v-1.2h-3
			c-0.6,0-1.2,0.1-1.8,0.1c2.6-2.4,4.3-4.7,4.3-6.9c0.1-1.7-1.1-3.1-2.8-3.3c-0.1,0-0.3,0-0.4,0c-1.3,0-2.5,0.6-3.2,1.6l0.8,0.8
			c0.5-0.7,1.4-1.2,2.3-1.3c1.1-0.1,2,0.8,2,1.8c0,0.1,0,0.2,0,0.3c0,1.9-1.6,4.1-5,7.1V-3209.3z M-16791.6-3209.1c0.5,0,1-0.4,1-1
			c0,0,0,0,0,0c0-0.5-0.4-1-0.9-1.1c-0.5,0-1,0.4-1.1,0.9c0,0.1,0,0.1,0,0.2C-16792.6-3209.6-16792.2-3209.1-16791.6-3209.1
			C-16791.6-3209.1-16791.6-3209.1-16791.6-3209.1z M-16786.5-3209.3h1.4c0.2-4.3,0.6-6.9,3.2-10.2v-0.8h-6.9v1.2h5.3
			C-16785.6-3216.1-16786.4-3213.4-16786.5-3209.3z M-16778.1-3213.5c1.5,0,2.5-1.3,2.5-3.5s-1-3.5-2.5-3.5s-2.5,1.2-2.5,3.5
			C-16780.6-3214.8-16779.6-3213.5-16778.1-3213.5L-16778.1-3213.5z M-16778.1-3214.4c-0.9,0-1.5-0.9-1.5-2.6c0-1.8,0.6-2.6,1.5-2.6
			s1.5,0.9,1.5,2.6C-16776.6-3215.3-16777.2-3214.4-16778.1-3214.4L-16778.1-3214.4z M-16777.8-3209.1h0.9l6.1-11.4h-0.9
			L-16777.8-3209.1z M-16770.4-3209.1c1.5,0,2.5-1.3,2.5-3.5s-1-3.4-2.5-3.4s-2.5,1.2-2.5,3.4
			C-16772.9-3210.3-16771.9-3209.1-16770.4-3209.1z M-16770.4-3209.9c-0.9,0-1.5-0.9-1.5-2.6c0-1.8,0.6-2.6,1.5-2.6
			c0.9,0,1.5,0.9,1.5,2.6C-16769-3210.8-16769.6-3209.9-16770.4-3209.9z"/>
		<path id="內文p-11" class="st0" d="M-16827.3-3172h5.5v1.6h-5.5V-3172z M-16821.7-3177v1.5h-5.5v-1.5H-16821.7z
			 M-16827.3-3174.6h5.5v1.6h-5.5V-3174.6z M-16817.9-3170.3h-2.7v-6.7h2.4v-1.1h-2.4v-1.7h-1.1v1.7h-5.5v-1.7h-1.1v1.7h-2.3v1.1
			h2.3v6.7h-2.7v1h13.3L-16817.9-3170.3z M-16826.6-3169c-1.5,0.9-3.1,1.6-4.7,2.1c0.3,0.3,0.5,0.6,0.7,0.9c1.7-0.6,3.4-1.3,5-2.2
			L-16826.6-3169z M-16823.4-3168.3c1.6,0.6,3.1,1.3,4.6,2.1l1-0.8c-1.6-0.8-3.2-1.5-4.8-2.1L-16823.4-3168.3z M-16813-3179.8
			c-0.8,2.2-2.1,4.3-3.7,6c0.2,0.3,0.5,0.7,0.6,1.1c0.5-0.6,1-1.2,1.5-1.8v8.4h1.1v-10c0.6-1,1.1-2.1,1.6-3.3L-16813-3179.8z
			 M-16808.7-3167.3c-1.1,0-1.2-0.2-1.2-1.1v-5.3l2.2-0.9v5.1h1v-5.5l2.4-0.9c0,1.9-0.1,4.2-0.3,5.7l0.9,0.3
			c0.2-1.8,0.4-4.6,0.4-6.8l0-0.2l-0.8-0.3l-0.2,0.2l-2.5,1v-3.7h-1v4.1l-2.2,0.9v-3.5h-1.1v3.9l-1.9,0.8l0.4,1l1.5-0.6v4.9
			c0,1.6,0.5,2.1,2.3,2.1h3.9c1.6,0,2-0.7,2.2-2.7c-0.4-0.1-0.7-0.2-1-0.4c-0.1,1.8-0.3,2.2-1.2,2.2H-16808.7z M-16787.9-3179.1
			h-7.9v1h7.9V-3179.1z M-16788-3172.3c-0.5-0.9-1.1-1.8-1.8-2.6c0.5-0.8,1.1-1.7,1.5-2.5l-1-0.3c-0.5,1-1.1,1.9-1.7,2.8
			c0.8,0.9,1.4,1.9,2,3L-16788-3172.3z M-16791.8-3177.5c-0.5,0.9-1,1.9-1.6,2.7c0.7,0.9,1.4,1.9,1.9,2.9l0.9-0.4
			c-0.5-0.9-1.1-1.7-1.7-2.5c0.5-0.7,1.1-1.7,1.5-2.4L-16791.8-3177.5z M-16793.2-3172.2c-0.5-0.9-1-1.8-1.7-2.6
			c0.5-0.8,1-1.6,1.5-2.5l-1-0.3c-0.3,0.7-1,1.8-1.6,2.8c0.7,0.9,1.3,1.9,1.8,3L-16793.2-3172.2z M-16796-3171.1
			c-0.2-1.1-0.6-2.1-1-3.1l-0.9,0.2c0.2,0.4,0.3,1,0.5,1.5l-2.4,0.3c1.3-1.5,2.4-3.1,3.3-4.8l-1-0.6c-0.3,0.7-0.7,1.4-1.1,2
			l-1.5,0.1c0.9-1.3,1.6-2.6,2.3-4l-1-0.4c-0.5,1.3-1.2,2.6-2,3.8c-0.3,0.5-0.6,0.8-0.8,0.8c0.1,0.3,0.2,0.7,0.3,1
			c0.7-0.2,1.4-0.3,2.1-0.3c-0.5,0.8-1,1.4-1.2,1.7c-0.4,0.5-0.8,0.9-1.1,1c0.1,0.3,0.3,0.7,0.4,1c0.3-0.2,0.8-0.3,3.9-0.7
			c0.1,0.3,0.1,0.5,0.2,0.8L-16796-3171.1z M-16800.7-3170.2c-0.1,1.2-0.4,2.4-0.7,3.5c0.2,0.1,0.7,0.2,0.9,0.3
			c0.4-1.2,0.6-2.4,0.8-3.7L-16800.7-3170.2z M-16799.2-3170.1c0.2,1,0.3,2.1,0.4,3.2l0.9-0.1c-0.1-1.1-0.2-2.1-0.4-3.2
			L-16799.2-3170.1z M-16797.7-3170.4c0.3,0.8,0.5,1.7,0.7,2.5l0.8-0.3c-0.2-0.9-0.4-1.7-0.8-2.5L-16797.7-3170.4z M-16791.4-3167.5
			v-2.9h3v-1h-7.1v1h3v2.9h-3.8v1h8.6v-1L-16791.4-3167.5z M-16772.9-3178.4h-4.5c-0.1-0.5-0.3-1-0.4-1.5l-1,0.1
			c0.2,0.5,0.3,0.9,0.3,1.4h-4.3v0.9h9.9L-16772.9-3178.4z M-16777-3177.4c-0.4,0.6-0.9,1.2-1.5,1.7v3.2h0.9v-3.2
			c0.5-0.5,1-0.9,1.4-1.4L-16777-3177.4z M-16782.6-3176.2v0.8h0.9c-0.1,1-0.6,1.9-1.4,2.4c0.2,0.2,0.4,0.4,0.5,0.6
			c1-0.7,1.6-1.8,1.7-3.1h0.9c0,0.7,0,1.3-0.2,2c-0.1,0.1-0.2,0.1-0.3,0.1c-0.1,0-0.3,0-0.7,0c0.1,0.2,0.2,0.5,0.2,0.8
			c0.3,0,0.5,0,0.8,0c0.2,0,0.5-0.1,0.6-0.3c0.2-0.3,0.3-1,0.3-2.9c0-0.1,0-0.4,0-0.4H-16782.6z M-16778.2-3176.2
			c-0.2-0.4-0.4-0.8-0.7-1.2l-0.6,0.3c0.3,0.4,0.5,0.8,0.7,1.2L-16778.2-3176.2z M-16783.2-3177.8c-0.7-0.7-1.4-1.3-2.2-1.9
			l-0.6,0.6c0.8,0.6,1.5,1.2,2.2,2L-16783.2-3177.8z M-16785.4-3166.4c0.6-1.4,1.3-3.2,1.9-4.7l-0.8-0.6c-0.6,1.6-1.2,3.2-2,4.7
			L-16785.4-3166.4z M-16786.4-3174.8c0.8,0.5,1.6,1,2.3,1.6l0.6-0.8c-0.7-0.6-1.5-1.1-2.3-1.6L-16786.4-3174.8z M-16780.6-3169.4
			c0.1-0.4,0.1-0.7,0.1-1.1v-0.1h5.2v1.2H-16780.6z M-16775.4-3171.5h-5.2v-1h-1v2c0.1,1.5-0.6,2.9-1.8,3.8c0.3,0.2,0.6,0.4,0.8,0.6
			c0.8-0.6,1.4-1.4,1.7-2.4h5.4v2.4h1.1v-6.4h-1.1V-3171.5z M-16774.1-3176.8c-0.8,0.4-1.6,0.7-2.5,0.9v1.8c0,0.6-0.2,0.8-0.3,0.9
			c0.1,0.2,0.3,0.5,0.4,0.7v0c0.6-0.3,1.3-0.6,2-0.8c-0.1-0.2-0.1-0.4-0.1-0.6l-1.2,0.3v-1.9c0.3-0.1,0.6-0.2,0.9-0.2
			c0.2,1.1,0.8,2.2,1.6,3c0.1-0.2,0.3-0.4,0.5-0.6c-0.8-0.7-1.3-1.6-1.5-2.6c0.3-0.1,0.6-0.3,1-0.4L-16774.1-3176.8z
			 M-16769.3-3172.2c0-0.6,0-1.2,0-1.7v-0.8h2.3v2.5L-16769.3-3172.2z M-16767.1-3178.2v2.5h-2.3v-2.5H-16767.1z M-16766-3179.3
			h-4.3v5.4c0,2.2-0.1,5.2-1.1,7.3c0.3,0.1,0.6,0.3,0.9,0.5c0.7-1.6,1.1-3.3,1.1-5.1h2.3v3.7c0,0.2-0.1,0.3-0.3,0.3
			c-0.2,0-0.8,0-1.5,0c0.2,0.3,0.3,0.7,0.3,1.1c0.7,0.1,1.4,0,2-0.2c0.4-0.2,0.5-0.5,0.5-1.1V-3179.3z M-16759.2-3173.1
			c-0.3,1.2-0.8,2.3-1.5,3.4c-0.7-1-1.3-2.2-1.6-3.4H-16759.2z M-16758.6-3174.2l-0.2,0h-4.9v-4h4.2v1.8c0,0.2-0.1,0.2-0.3,0.2
			c-0.2,0-1,0-1.9,0c0.2,0.3,0.3,0.6,0.4,0.9c0.8,0,1.6,0,2.4-0.1c0.4-0.2,0.6-0.4,0.6-1v-2.9h-6.3v13.1h1v-7h0.4
			c0.5,1.5,1.1,2.9,2,4.2c-0.6,0.8-1.4,1.4-2.3,1.9c0.3,0.2,0.5,0.5,0.7,0.8c0.9-0.5,1.6-1.2,2.3-1.9c0.7,0.8,1.5,1.5,2.4,2
			c0.2-0.3,0.4-0.6,0.7-0.9c-1-0.5-1.8-1.1-2.5-2c1-1.5,1.7-3.2,2.1-5.1L-16758.6-3174.2z M-16745.2-3177.3
			c-0.3,0.7-0.8,1.4-1.5,1.9c-0.7-0.5-1.3-1.2-1.7-1.9H-16745.2z M-16751.2-3170.8c0.4-0.7,0.7-1.5,0.9-2.3c0.2,0.2,0.3,0.4,0.4,0.6
			c1.2-0.3,2.3-0.9,3.3-1.5c1,0.7,2.2,1.3,3.4,1.6c0.2-0.3,0.4-0.7,0.7-1c-1.2-0.2-2.3-0.7-3.3-1.3c0.8-0.7,1.4-1.6,1.8-2.6h1.2
			v-0.9h-5c0.3-0.4,0.5-0.8,0.7-1.3l-1.1-0.3c-0.6,1.4-1.6,2.7-2.9,3.7c0.3,0.2,0.6,0.4,0.9,0.6c0.4-0.3,0.7-0.7,1.1-1.1
			c0.4,0.7,0.9,1.3,1.5,1.8c-0.8,0.5-1.7,0.9-2.7,1.2c0.1-0.3,0.2-0.5,0.2-0.8l-0.7-0.2l-0.2,0.1h-1.1l0.6-0.6
			c-0.4-0.3-0.8-0.6-1.3-0.9c0.9-0.7,1.8-1.6,2.4-2.5l-0.7-0.4l-0.2,0h-5v1h4.2c-0.5,0.5-1,1-1.6,1.5c-0.5-0.3-1-0.5-1.5-0.7
			l-0.7,0.7c1.2,0.5,2.3,1.2,3.3,2h-4v1h2.3c-0.5,1.5-1.3,2.9-2.4,4c0.2,0.3,0.4,0.7,0.6,1c0.9-1.1,1.7-2.3,2.2-3.7v4.8
			c0,0.2-0.1,0.2-0.2,0.2c-0.2,0-0.8,0-1.4,0c0.2,0.3,0.3,0.7,0.3,1c0.6,0,1.3,0,1.9-0.2c0.4-0.2,0.5-0.5,0.5-1.1v-6.2h1.4
			c-0.2,0.8-0.5,1.6-0.8,2.4L-16751.2-3170.8z M-16746.7-3171.4c0.1-0.5,0.2-1,0.2-1.5h-1.1c0,0.5-0.1,1-0.2,1.5h-2.6v0.9h2.3
			c-0.5,1.7-1.8,3-3.5,3.5c0.3,0.3,0.5,0.5,0.7,0.9c2-0.7,3.5-2.3,4-4.4h2.5c-0.2,2.1-0.5,2.9-0.7,3.2c-0.1,0.1-0.3,0.2-0.5,0.1
			c-0.2,0-0.8,0-1.5-0.1c0.2,0.3,0.3,0.7,0.3,1c0.6,0,1.1,0,1.7,0c0.3,0,0.7-0.1,0.9-0.4c0.4-0.4,0.7-1.6,1-4.4c0-0.2,0-0.5,0-0.5
			H-16746.7z M-16741.3-3167.3h6.9v-1.2h-3c-0.6,0-1.2,0.1-1.8,0.1c2.6-2.4,4.3-4.7,4.3-6.9c0.1-1.7-1.1-3.1-2.8-3.3
			c-0.1,0-0.3,0-0.4,0c-1.3,0-2.5,0.6-3.2,1.6l0.8,0.8c0.5-0.7,1.4-1.2,2.3-1.3c1.1-0.1,2,0.8,2,1.8c0,0.1,0,0.2,0,0.4
			c0,1.9-1.6,4.1-5,7.1V-3167.3z M-16731.6-3167.1c0.5,0,1-0.4,1-1c0,0,0,0,0,0c0-0.5-0.4-1-0.9-1.1c-0.5,0-1,0.4-1.1,0.9
			c0,0.1,0,0.1,0,0.2C-16732.6-3167.6-16732.2-3167.1-16731.6-3167.1C-16731.6-3167.1-16731.6-3167.1-16731.6-3167.1z
			 M-16725.6-3167.1c2,0,3.6-1.6,3.6-3.5c0-0.1,0-0.2,0-0.2c0.2-1.7-1-3.3-2.8-3.5c-0.2,0-0.4,0-0.6,0c-0.6,0-1.1,0.1-1.6,0.4
			l0.3-3.2h4.2v-1.2h-5.4l-0.3,5.2l0.7,0.4c0.5-0.4,1.2-0.6,1.8-0.6c1.2,0,2.3,0.9,2.3,2.2c0,0.1,0,0.2,0,0.4
			c0.1,1.3-0.8,2.5-2.1,2.6c-0.1,0-0.1,0-0.2,0c-1,0-2-0.4-2.7-1.2l-0.7,0.9C-16728.2-3167.6-16726.9-3167-16725.6-3167.1z
			 M-16718.1-3171.5c1.5,0,2.5-1.3,2.5-3.5s-1-3.5-2.5-3.5c-1.5,0-2.5,1.2-2.5,3.5C-16720.6-3172.8-16719.6-3171.5-16718.1-3171.5z
			 M-16718.1-3172.4c-0.9,0-1.5-0.9-1.5-2.6c0-1.8,0.6-2.6,1.5-2.6c0.9,0,1.5,0.9,1.5,2.6
			C-16716.6-3173.3-16717.2-3172.4-16718.1-3172.4z M-16717.8-3167.1h0.9l6.1-11.4h-0.9L-16717.8-3167.1z M-16710.4-3167.1
			c1.5,0,2.5-1.3,2.5-3.5s-1-3.4-2.5-3.4s-2.5,1.2-2.5,3.4C-16712.9-3168.3-16711.9-3167.1-16710.4-3167.1z M-16710.4-3167.9
			c-0.9,0-1.5-0.9-1.5-2.6c0-1.8,0.6-2.6,1.5-2.6c0.9,0,1.5,0.9,1.5,2.6C-16709-3168.8-16709.6-3167.9-16710.4-3167.9z"/>
		<path id="內文p-12" class="st0" d="M-16829.1-3130.4v-2.3h3.9c0.1,0.8,0.2,1.5,0.3,2.3H-16829.1z M-16820.7-3136v2.2h-8.4v-2.2
			H-16820.7z M-16818.5-3129.4v-1.1h-5.2c-0.2-0.7-0.3-1.5-0.3-2.3h4.4v-4.3h-10.6v10.9c0,0.5-0.2,0.9-0.7,1.1
			c0.2,0.3,0.4,0.7,0.5,1c0.4-0.3,1-0.4,5.5-1.8c-0.1-0.3-0.1-0.7-0.1-1l-4,1.1v-3.7h4.5c0.9,3,2.6,5.1,4.6,5.1
			c1.1,0,1.5-0.6,1.7-2.8c-0.4-0.1-0.7-0.3-1-0.5c-0.1,1.6-0.3,2.2-0.7,2.2c-1.3,0-2.7-1.6-3.5-4L-16818.5-3129.4z M-16807.7-3134
			h2.9c-0.2,1.8-0.7,3.5-1.5,5c-0.7-1.5-1.2-3.1-1.5-4.8L-16807.7-3134z M-16802.7-3134v-1.1h-4.7c0.2-0.8,0.5-1.7,0.6-2.6l-1.1-0.2
			c-0.3,2.1-1,4.1-2.1,5.9v-0.5h-2v-3.3h2.6v-1.1h-6.9v1.1h3.2v8.4l-1.5,0.3v-6.4h-1v6.7l-0.9,0.2l0.2,1.1c1.9-0.4,4.5-1.1,7-1.6
			l-0.1-1l-2.6,0.6v-3.8h1.7l-0.1,0.1c0.3,0.2,0.6,0.5,0.9,0.7c0.4-0.5,0.7-1.1,1-1.6c0.3,1.5,0.9,2.9,1.5,4.3
			c-0.9,1.2-2,2.2-3.4,2.8c0.2,0.3,0.5,0.6,0.6,1c1.3-0.7,2.5-1.6,3.4-2.8c0.8,1.2,1.8,2.1,3,2.8c0.2-0.3,0.5-0.7,0.8-0.9
			c-1.3-0.6-2.4-1.6-3.1-2.8c1-1.9,1.7-4,2-6.1H-16802.7z M-16800.7-3125.3h6v-1.1h-2.2v-9.9h-1.1c-0.7,0.4-1.5,0.7-2.3,0.8v0.9h1.9
			v8.2h-2.4V-3125.3z M-16791.6-3125.1c0.5,0,1-0.4,1-1c0,0,0,0,0,0c0-0.5-0.4-1-0.9-1.1c-0.5,0-1,0.4-1.1,0.9c0,0.1,0,0.1,0,0.2
			C-16792.6-3125.6-16792.2-3125.1-16791.6-3125.1C-16791.6-3125.1-16791.6-3125.1-16791.6-3125.1z M-16787.6-3132.9
			c0-1.5,0.8-2.5,1.9-2.5c1.4,0,2.3,1.2,2.4,3.5c-0.5,0.8-1.3,1.4-2.3,1.5C-16786.9-3130.4-16787.6-3131.4-16787.6-3132.9z
			 M-16786-3125.1c2.1,0,4-1.7,4-6.2c0-3.5-1.6-5.2-3.7-5.2c-1.8,0.1-3.2,1.6-3.2,3.4c0,0,0,0.1,0,0.1c0,2.3,1.2,3.5,3,3.5
			c1-0.1,1.9-0.6,2.5-1.4c-0.1,3.4-1.3,4.6-2.8,4.6c-0.7,0-1.4-0.3-1.8-0.8l-0.8,0.9C-16788-3125.5-16787-3125-16786-3125.1z
			 M-16778.1-3129.5c1.5,0,2.5-1.3,2.5-3.5s-1-3.5-2.5-3.5s-2.5,1.2-2.5,3.5C-16780.6-3130.8-16779.6-3129.5-16778.1-3129.5z
			 M-16778.1-3130.4c-0.9,0-1.5-0.9-1.5-2.6c0-1.8,0.6-2.6,1.5-2.6s1.5,0.9,1.5,2.6C-16776.6-3131.3-16777.2-3130.4-16778.1-3130.4z
			 M-16777.8-3125.1h0.9l6.1-11.4h-0.9L-16777.8-3125.1z M-16770.4-3125.1c1.5,0,2.5-1.3,2.5-3.5s-1-3.4-2.5-3.4s-2.5,1.2-2.5,3.4
			C-16772.9-3126.3-16771.9-3125.1-16770.4-3125.1L-16770.4-3125.1z M-16770.4-3125.9c-0.9,0-1.5-0.9-1.5-2.6c0-1.8,0.6-2.6,1.5-2.6
			c0.9,0,1.5,0.9,1.5,2.6C-16769-3126.8-16769.6-3125.9-16770.4-3125.9L-16770.4-3125.9z"/>
		<path id="內文p-13" class="st0" d="M-16826.5-3093.4h-3.1v-1.9h3.1V-3093.4z M-16826.5-3090.6h-3.1v-1.9h3.1V-3090.6z
			 M-16826.5-3087.8h-3.1v-1.9h3.1V-3087.8z M-16825.4-3096.2h-5.2v9.3h5.2V-3096.2z M-16829.6-3086.6c-0.4,1.1-1,2-1.8,2.8
			c0.3,0.2,0.6,0.4,0.9,0.7c0.9-0.9,1.5-2,2-3.2L-16829.6-3086.6z M-16827.5-3086.1c0.6,0.8,1.1,1.6,1.6,2.5l0.9-0.5
			c-0.4-0.9-1-1.7-1.6-2.4L-16827.5-3086.1z M-16817.6-3093.3h-1.9v-3.5h-1.1v3.5h-4.3v1h3.9c-0.9,2.3-2.3,4.4-4.2,5.9
			c0.3,0.2,0.5,0.5,0.8,0.8c1.7-1.5,3-3.3,3.9-5.3v6.3c0,0.3-0.1,0.3-0.3,0.3s-1,0-1.8,0c0.2,0.3,0.3,0.7,0.4,1.1
			c0.8,0.1,1.5,0,2.3-0.2c0.4-0.2,0.6-0.5,0.6-1.2v-7.7h1.9V-3093.3z M-16805.2-3094.3c-0.3,0.7-0.8,1.4-1.5,1.9
			c-0.7-0.5-1.3-1.2-1.7-1.9H-16805.2z M-16811.2-3087.8c0.4-0.7,0.7-1.5,0.9-2.3c0.2,0.2,0.3,0.4,0.4,0.6c1.2-0.3,2.3-0.9,3.3-1.5
			c1,0.7,2.2,1.3,3.4,1.6c0.2-0.3,0.4-0.7,0.7-1c-1.2-0.2-2.3-0.7-3.3-1.3c0.8-0.7,1.4-1.6,1.8-2.6h1.2v-0.9h-5
			c0.3-0.4,0.5-0.8,0.7-1.3l-1.1-0.3c-0.6,1.4-1.6,2.7-2.9,3.7c0.3,0.2,0.6,0.4,0.9,0.6c0.4-0.3,0.7-0.7,1.1-1.1
			c0.4,0.7,0.9,1.3,1.5,1.8c-0.8,0.5-1.7,0.9-2.7,1.2c0.1-0.3,0.2-0.5,0.2-0.8l-0.7-0.2l-0.2,0.1h-1.1l0.6-0.6
			c-0.4-0.3-0.8-0.6-1.3-0.9c0.9-0.7,1.8-1.6,2.4-2.5l-0.7-0.4l-0.2,0h-5v1h4.3c-0.5,0.5-1,1-1.6,1.5c-0.5-0.3-1-0.5-1.5-0.7
			l-0.7,0.7c1.2,0.5,2.3,1.2,3.3,2h-4v1h2.3c-0.5,1.5-1.3,2.9-2.4,4c0.2,0.3,0.4,0.7,0.6,1c0.9-1.1,1.7-2.3,2.2-3.7v4.8
			c0,0.2-0.1,0.2-0.2,0.2c-0.2,0-0.8,0-1.4,0c0.2,0.3,0.3,0.7,0.3,1c0.6,0,1.3,0,1.9-0.2c0.4-0.2,0.5-0.5,0.5-1.1v-6.2h1.4
			c-0.2,0.8-0.5,1.6-0.8,2.4L-16811.2-3087.8z M-16806.7-3088.4c0.1-0.5,0.2-1,0.2-1.5h-1.1c0,0.5-0.1,1-0.2,1.5h-2.6v0.9h2.3
			c-0.5,1.7-1.8,3-3.5,3.5c0.3,0.3,0.5,0.5,0.7,0.9c2-0.7,3.5-2.3,4-4.4h2.5c-0.2,2.1-0.5,2.9-0.7,3.2c-0.1,0.1-0.3,0.2-0.5,0.1
			c-0.2,0-0.8,0-1.5-0.1c0.2,0.3,0.3,0.7,0.3,1c0.6,0,1.1,0,1.7,0c0.3,0,0.7-0.1,0.9-0.4c0.4-0.4,0.7-1.6,1-4.4c0-0.2,0-0.5,0-0.5
			H-16806.7z M-16800.7-3084.3h6v-1.1h-2.2v-9.9h-1.1c-0.7,0.4-1.5,0.7-2.3,0.8v0.9h1.9v8.2h-2.4V-3084.3z M-16791.6-3084.1
			c0.5,0,1-0.4,1-1c0,0,0,0,0,0c0-0.5-0.4-1-0.9-1.1c-0.5,0-1,0.4-1.1,0.9c0,0.1,0,0.1,0,0.2
			C-16792.6-3084.6-16792.2-3084.1-16791.6-3084.1C-16791.6-3084.1-16791.6-3084.1-16791.6-3084.1z M-16786.5-3084.3h1.4
			c0.2-4.3,0.6-6.9,3.2-10.2v-0.8h-6.9v1.2h5.3C-16785.6-3091.1-16786.4-3088.4-16786.5-3084.3z M-16778.1-3088.5
			c1.5,0,2.5-1.3,2.5-3.5s-1-3.5-2.5-3.5s-2.5,1.2-2.5,3.5C-16780.6-3089.8-16779.6-3088.5-16778.1-3088.5L-16778.1-3088.5z
			 M-16778.1-3089.4c-0.9,0-1.5-0.9-1.5-2.6c0-1.8,0.6-2.6,1.5-2.6s1.5,0.9,1.5,2.6C-16776.6-3090.3-16777.2-3089.4-16778.1-3089.4
			L-16778.1-3089.4z M-16777.8-3084.1h0.9l6.1-11.4h-0.9L-16777.8-3084.1z M-16770.4-3084.1c1.5,0,2.5-1.3,2.5-3.5s-1-3.4-2.5-3.4
			s-2.5,1.2-2.5,3.4C-16772.9-3085.3-16771.9-3084.1-16770.4-3084.1z M-16770.4-3084.9c-0.9,0-1.5-0.9-1.5-2.6
			c0-1.8,0.6-2.6,1.5-2.6c0.9,0,1.5,0.9,1.5,2.6C-16769-3085.8-16769.6-3084.9-16770.4-3084.9z"/>
		<path id="內文p-14" class="st0" d="M-16816.8-3051.5h-6.2v-5.2h5.3v-1.1h-11.7v1.1h5.3v5.2h-6.1v1.1h6.1v5.3h1.1v-5.3h6.2
			V-3051.5z M-16828.3-3055.7c0.6,1.1,1,2.2,1.3,3.4l1.1-0.4c-0.3-1.2-0.8-2.3-1.4-3.4L-16828.3-3055.7z M-16820.4-3052.2
			c0.7-1.1,1.3-2.3,1.8-3.5l-1.2-0.3c-0.4,1.2-1,2.4-1.6,3.5L-16820.4-3052.2z M-16802-3057.8h-3.1v1h3.1V-3057.8z M-16813-3058.8
			c-0.6,1.1-1.4,2.2-2.3,3.1c0.2,0.3,0.4,0.5,0.6,0.8c1.1-1,2-2.2,2.7-3.5L-16813-3058.8z M-16807.9-3056.7
			c-0.2,0.5-0.4,0.9-0.6,1.4h-1.9c0.3-0.4,0.5-0.9,0.8-1.4H-16807.9z M-16806.8-3053.2h-1.3v-1.3h1.3L-16806.8-3053.2z
			 M-16806.8-3051.1h-1.3v-1.3h1.3L-16806.8-3051.1z M-16810.3-3053.2v-1.3h1.4v1.3H-16810.3z M-16808.9-3052.4v1.3h-1.4v-1.3
			H-16808.9z M-16811.2-3050.3h5.3v-5h-1.6c0.3-0.6,0.6-1.2,0.9-1.9l-0.7-0.4l-0.2,0.1h-1.9c0.1-0.4,0.3-0.7,0.4-1.1l-1-0.1
			c-0.4,1.5-1.1,2.8-2.1,4c0.1-0.2,0.3-0.5,0.4-0.7l-1-0.3c-0.7,1.6-1.6,3-2.8,4.2c0.3,0.3,0.5,0.6,0.6,1c0.4-0.4,0.8-0.9,1.1-1.3
			v6.9h1v-8.4c0.2-0.3,0.4-0.7,0.6-1.1c0.3,0.2,0.5,0.4,0.7,0.6c0.1-0.1,0.1-0.2,0.2-0.2L-16811.2-3050.3z M-16809-3050.1
			c0,0.3-0.1,0.5-0.1,0.8h-2.6v0.9h2.3c-0.4,1.2-1.4,2-2.6,2.4c0.2,0.2,0.4,0.5,0.6,0.8c1.2-0.4,2.3-1.2,2.8-2.4
			c0.8,0.6,1.5,1.3,2.2,2l0.7-0.7c-0.7-0.7-1.4-1.4-2.2-2h2.5v-0.9h-2.6c0-0.3,0.1-0.5,0.1-0.8L-16809-3050.1z M-16801.7-3054.1
			h-3.7v1h1.5v6.7c0,0.2,0,0.2-0.2,0.2c-0.2,0-0.7,0-1.3,0c0.2,0.3,0.3,0.7,0.3,1c0.6,0.1,1.2,0,1.7-0.2c0.4-0.2,0.5-0.5,0.5-1v-6.7
			h1.2V-3054.1z M-16788.3-3053.4h-4.4v-1.5h4.4V-3053.4z M-16788.3-3051.1h-4.4v-1.5h4.4V-3051.1z M-16788.3-3048.8h-4.4v-1.5h4.4
			V-3048.8z M-16793.7-3055.7v7.8h6.5v-7.8h-3.1c0.1-0.4,0.3-0.9,0.4-1.4h3.2v-1h-7.6v1h3.1c-0.1,0.5-0.2,1-0.3,1.4L-16793.7-3055.7
			z M-16795.3-3050c0.5-1.1,0.9-2.2,1.3-3.3l-0.7-0.2l-0.2,0h-1.1l0.4-0.5c-0.4-0.4-0.8-0.7-1.2-1c0.9-0.9,1.7-1.8,2.3-2.9l-0.7-0.5
			l-0.2,0.1h-4.7v1h4c-0.4,0.6-0.9,1.2-1.5,1.8c-0.5-0.3-1-0.6-1.5-0.9l-0.6,0.7c1.1,0.6,2.1,1.3,3.1,2.1h-3.8v1h2.5v5.9
			c0,0.2-0.1,0.2-0.3,0.2c-0.2,0-0.9,0-1.6,0c0.2,0.3,0.3,0.7,0.3,1.1c0.7,0.1,1.4,0,2.1-0.2c0.4-0.2,0.6-0.5,0.6-1.1v-5.9h1.6
			c-0.2,0.7-0.5,1.5-0.8,2.2L-16795.3-3050z M-16792.2-3047.7c-0.9,0.8-2,1.4-3.2,1.9c0.3,0.2,0.5,0.5,0.7,0.8
			c1.2-0.5,2.4-1.1,3.4-2L-16792.2-3047.7z M-16789.9-3047c0.9,0.6,1.8,1.2,2.6,2l0.9-0.6c-0.8-0.7-1.7-1.3-2.7-1.9L-16789.9-3047z
			 M-16778.4-3056.9v-0.9h-4c0.2-0.3,0.3-0.5,0.4-0.8l-1-0.3c-0.5,1.2-1.3,2.3-2.3,3.2c0.3,0.3,0.5,0.6,0.7,0.9
			c0.7-0.6,1.3-1.3,1.8-2.1H-16778.4z M-16777.8-3055.4c0.5-0.4,0.9-0.9,1.2-1.5h2.1l-0.7,0.3c0.4,0.3,0.7,0.7,0.9,1.1H-16777.8z
			 M-16774.6-3053.8h-7.6v-0.9h7.6L-16774.6-3053.8z M-16774.6-3052.2h-7.6v-0.9h7.6L-16774.6-3052.2z M-16774.6-3050.6h-7.6v-0.9
			h7.6L-16774.6-3050.6z M-16776.4-3048.6h-3.8c0-0.1,0-0.2,0-0.3v-1h3.8V-3048.6z M-16771.7-3057.8h-4.3c0.1-0.3,0.3-0.6,0.4-0.9
			l-1.1-0.2c-0.4,1.1-1.1,2.2-2.1,2.9c0.2,0.1,0.7,0.3,0.9,0.5h-3.1l0.9-0.3c-0.2-0.4-0.4-0.7-0.7-1.1l-0.9,0.3
			c0.3,0.3,0.5,0.7,0.6,1.1h-2.2v5.6h2v1c0,0.1,0,0.2,0,0.3h-3.8v0.9h3.5c-0.4,0.6-1.2,1.3-2.9,1.8c0.3,0.2,0.5,0.5,0.7,0.8
			c2.2-0.7,3.1-1.6,3.4-2.6h4v2.5h1.1v-2.5h3.4v-0.9h-3.4v-1.3h1.8v-5.6h-0.8l0.8-0.4c-0.2-0.4-0.5-0.8-0.9-1.1h2.5V-3057.8z
			 M-16766.8-3056.8c-0.4-0.7-0.8-1.3-1.3-1.9l-0.9,0.4c0.5,0.6,0.9,1.2,1.3,1.9L-16766.8-3056.8z M-16766-3053.3
			c-0.3,0.5-0.6,1-0.9,1.4c-0.2-0.2-0.3-0.4-0.5-0.6v0c0.6-1.1,1.2-2.2,1.6-3.4l-0.6-0.4l-0.2,0h-3.5v1h3c-0.8,2-2,3.7-3.5,5.2
			c0.2,0.3,0.4,0.6,0.6,0.9c0.6-0.6,1.1-1.2,1.6-1.8v5.7h1.1v-6c0.4,0.7,1,1.4,1.2,1.8l0.7-0.7c-0.2-0.2-0.6-0.7-0.9-1.2
			c0.4-0.4,0.8-1,1.2-1.5L-16766-3053.3z M-16758.3-3053.2v1.6h-2.4v-1.6H-16758.3z M-16760.7-3049.2v-1.6h2.4v1.6H-16760.7z
			 M-16764-3049.2v-1.6h2.2v1.6H-16764z M-16761.8-3053.2v1.6h-2.2v-1.6H-16761.8z M-16756.7-3055.7v-1h-0.9l0.6-0.6
			c-0.7-0.6-1.5-1.1-2.3-1.5l-0.6,0.6c0.8,0.4,1.5,0.9,2.1,1.5h-2.9v-2.1h-1.1v2.1h-3.7v1h3.7v1.5h-3.3v9.1h1v-3.2h2.2v3.1h1.1v-3.1
			h2.4v1.9c0,0.2,0,0.2-0.2,0.2c-0.2,0-0.7,0-1.3,0c0.2,0.3,0.3,0.6,0.3,1c0.6,0.1,1.2,0,1.8-0.2c0.4-0.2,0.5-0.5,0.5-1v-7.9h-3.5
			v-1.5H-16756.7z M-16753.3-3050.7h2.8v2c-1,0.2-1.9,0.4-2.8,0.6L-16753.3-3050.7z M-16750.5-3057.1v2.2h-2.8v-2.2H-16750.5z
			 M-16750.5-3051.7h-2.8v-2.2h2.8V-3051.7z M-16748.7-3049.1l-0.8,0.2v-9.1h-4.9v10.2l-1.1,0.2l0.2,1.1c1.8-0.4,4.3-1,6.6-1.5
			L-16748.7-3049.1z M-16745.5-3055.4c0-1.1,0-2.2,0-3.4h-1.1c0,1.2,0,2.3,0,3.4h-2.4v1.1h2.4c-0.2,3.6-1,6.7-3.8,8.5
			c0.3,0.2,0.6,0.5,0.8,0.8c3-2,3.9-5.4,4.1-9.3h2.3c-0.1,5.5-0.3,7.4-0.7,7.9c-0.1,0.2-0.3,0.3-0.6,0.2c-0.3,0-1.1,0-1.9-0.1
			c0.2,0.3,0.3,0.7,0.3,1.1c0.7,0,1.4,0,2.1,0c0.4,0,0.8-0.2,1.1-0.6c0.5-0.7,0.6-2.8,0.8-9.1c0-0.1,0-0.6,0-0.6H-16745.5z
			 M-16739.7-3046.3h6v-1.1h-2.2v-9.9h-1.1c-0.7,0.4-1.5,0.7-2.3,0.8v0.9h1.9v8.2h-2.4V-3046.3z M-16730.6-3046.1c0.5,0,1-0.4,1-1
			c0,0,0,0,0,0c0-0.5-0.4-1-0.9-1.1c-0.5,0-1,0.4-1.1,0.9c0,0.1,0,0.1,0,0.2C-16731.6-3046.6-16731.2-3046.1-16730.6-3046.1
			C-16730.6-3046.1-16730.6-3046.1-16730.6-3046.1z M-16724.1-3052.1c1.3,0,2,0.9,2,2.4c0,1.5-0.8,2.5-1.9,2.5
			c-1.4,0-2.2-1.2-2.4-3.5C-16725.9-3051.5-16725-3052-16724.1-3052.1z M-16724-3046.1c1.8-0.1,3.2-1.6,3.2-3.4c0,0,0-0.1,0-0.1
			c0-2.3-1.2-3.4-3-3.4c-1,0.1-1.9,0.5-2.5,1.3c0.1-3.4,1.3-4.6,2.8-4.6c0.7,0,1.3,0.3,1.8,0.8l0.8-0.9c-0.7-0.7-1.6-1.1-2.6-1.1
			c-2.1,0-4.1,1.7-4.1,6C-16727.7-3047.9-16726.1-3046.1-16724-3046.1z M-16717.1-3050.5c1.5,0,2.5-1.3,2.5-3.5s-1-3.5-2.5-3.5
			c-1.5,0-2.5,1.2-2.5,3.5C-16719.6-3051.8-16718.6-3050.5-16717.1-3050.5L-16717.1-3050.5z M-16717.1-3051.4
			c-0.9,0-1.5-0.9-1.5-2.6c0-1.8,0.6-2.6,1.5-2.6c0.9,0,1.5,0.9,1.5,2.6C-16715.6-3052.3-16716.2-3051.4-16717.1-3051.4
			L-16717.1-3051.4z M-16716.8-3046.1h0.9l6.1-11.4h-0.9L-16716.8-3046.1z M-16709.4-3046.1c1.5,0,2.5-1.3,2.5-3.5s-1-3.4-2.5-3.4
			s-2.5,1.2-2.5,3.4C-16711.9-3047.3-16710.9-3046.1-16709.4-3046.1L-16709.4-3046.1z M-16709.4-3046.9c-0.9,0-1.5-0.9-1.5-2.6
			c0-1.8,0.6-2.6,1.5-2.6c0.9,0,1.5,0.9,1.5,2.6C-16708-3047.8-16708.6-3046.9-16709.4-3046.9L-16709.4-3046.9z"/>
		<path id="內文p-15" class="st0" d="M-16824-3012.9h2.1l-0.4,0.3c0.4,0.1,0.8,0.3,1.1,0.5l-2.8,0.1V-3012.9z M-16828.6-3013.6
			v-0.9h3.5v0.9H-16828.6z M-16828.6-3016.2h3.5v0.9h-3.5V-3016.2z M-16820.3-3016.2v0.9h-3.6v-0.9H-16820.3z M-16820.3-3013.6h-3.6
			v-0.9h3.6V-3013.6z M-16817.7-3010.4h-3.6v-1l1.5,0c0.3,0.2,0.6,0.4,0.9,0.6l0.7-0.6c-0.8-0.6-1.7-1.1-2.7-1.5h1.7v-4.1h-4.7v-0.8
			h5.7v-0.9h-5.7v-1.1h-1.1v1.1h-5.7v0.9h5.7v0.8h-4.6v4.1h4.6v0.8c-2.1,0-4.1,0-5.6,0l0,0.9c2.2,0,5.2-0.1,8.2-0.2v0.9h-8.9v0.9
			h3.1l-0.7,0.6c0.9,0.5,1.7,1.2,2.5,2l0.8-0.7c-0.7-0.7-1.6-1.3-2.5-1.8h5.7v2.1c0,0.2-0.1,0.3-0.3,0.3c-0.2,0-1.1,0-2,0
			c0.2,0.3,0.3,0.6,0.4,1c0.8,0.1,1.6,0,2.4-0.2c0.5-0.2,0.6-0.4,0.6-1v-2.1h3.6V-3010.4z M-16814.7-3017.7h10.4v1.2h1.1v-2.1h-5.5
			c-0.2-0.4-0.5-0.8-0.8-1.2l-1.1,0.3c0.2,0.3,0.4,0.6,0.5,0.9h-5.8v2.1h1.1V-3017.7z M-16807.4-3015.1c-0.5,0.6-1.2,1.1-1.9,1.4
			c-1-0.2-1.9-0.4-2.9-0.5c0.3-0.3,0.6-0.6,0.9-0.9H-16807.4z M-16803.1-3012.1c-1.6-0.5-3.1-0.9-4.7-1.2c0.7-0.5,1.3-1.1,1.8-1.8
			h3.2v-0.9h-2.7c0.1-0.3,0.2-0.5,0.3-0.8l-1.1-0.3c-0.1,0.4-0.3,0.7-0.4,1h-3.7c0.3-0.4,0.7-0.8,0.9-1.2l-1.1-0.3
			c-0.4,0.5-0.7,1.1-1.2,1.5h-4.2v0.9h3.4c-0.5,0.6-1,1-1.5,1.5c1.1,0.1,2.1,0.3,3.2,0.5c-1.7,0.4-3.4,0.6-5.1,0.6
			c0.2,0.3,0.3,0.6,0.4,1c2.2,0,4.4-0.5,6.5-1.2c1.7,0.4,3.3,0.8,4.9,1.4L-16803.1-3012.1z M-16812.4-3009.4c-1,1-2.2,1.7-3.6,2.1
			c0.3,0.2,0.6,0.5,0.9,0.8c1.4-0.6,2.7-1.5,3.7-2.5L-16812.4-3009.4z M-16807.8-3008.9c1.4,0.6,2.7,1.5,3.9,2.4l0.8-0.8
			c-1.2-0.9-2.6-1.7-4-2.3L-16807.8-3008.9z M-16809-3010.7v-1.2h-1.1v1.2h-6.1v0.9h6.1v3.7h1.1v-3.7h6.2v-0.9H-16809z
			 M-16797.8-3017.8c-0.4-0.7-0.8-1.3-1.3-1.9l-0.9,0.4c0.5,0.6,0.9,1.2,1.3,1.9L-16797.8-3017.8z M-16797-3014.3
			c-0.3,0.5-0.6,1-0.9,1.4c-0.2-0.2-0.3-0.4-0.5-0.6v0c0.6-1.1,1.2-2.2,1.6-3.4l-0.6-0.4l-0.2,0h-3.5v1h3c-0.8,2-2,3.7-3.5,5.2
			c0.2,0.3,0.4,0.6,0.6,0.9c0.6-0.6,1.1-1.2,1.6-1.8v5.7h1.1v-6c0.4,0.7,1,1.4,1.2,1.8l0.7-0.7c-0.2-0.2-0.6-0.7-0.9-1.2
			c0.4-0.4,0.8-1,1.2-1.5L-16797-3014.3z M-16789.3-3014.2v1.6h-2.4v-1.6H-16789.3z M-16791.7-3010.2v-1.6h2.4v1.6H-16791.7z
			 M-16795-3010.2v-1.6h2.2v1.6H-16795z M-16792.8-3014.2v1.6h-2.2v-1.6H-16792.8z M-16787.7-3016.7v-1h-0.9l0.6-0.6
			c-0.7-0.6-1.5-1.1-2.3-1.5l-0.6,0.6c0.8,0.4,1.5,0.9,2.1,1.5h-2.9v-2.1h-1.1v2.1h-3.7v1h3.7v1.5h-3.3v9.1h1v-3.2h2.2v3.1h1.1v-3.1
			h2.4v1.9c0,0.2,0,0.2-0.2,0.2c-0.2,0-0.7,0-1.3,0c0.2,0.3,0.3,0.6,0.3,1c0.6,0.1,1.2,0,1.8-0.2c0.4-0.2,0.5-0.5,0.5-1v-7.9h-3.5
			v-1.5H-16787.7z M-16784.3-3011.7h2.8v2c-1,0.2-1.9,0.4-2.8,0.6V-3011.7z M-16781.5-3018.1v2.2h-2.8v-2.2H-16781.5z
			 M-16781.5-3012.7h-2.8v-2.2h2.8V-3012.7z M-16779.7-3010.1l-0.8,0.2v-9.1h-4.9v10.2l-1.1,0.2l0.2,1.1c1.8-0.4,4.3-1,6.6-1.5
			L-16779.7-3010.1z M-16776.5-3016.4c0-1.1,0-2.2,0-3.4h-1.1c0,1.2,0,2.3,0,3.4h-2.4v1.1h2.4c-0.2,3.6-1,6.7-3.8,8.5
			c0.3,0.2,0.6,0.5,0.8,0.8c3-2,3.9-5.4,4.1-9.3h2.3c-0.1,5.5-0.3,7.4-0.7,7.9c-0.1,0.2-0.3,0.3-0.6,0.2c-0.3,0-1.1,0-1.9-0.1
			c0.2,0.3,0.3,0.7,0.3,1.1c0.7,0,1.4,0,2.1,0c0.4,0,0.8-0.2,1.1-0.6c0.5-0.7,0.6-2.8,0.8-9.1c0-0.1,0-0.6,0-0.6H-16776.5z
			 M-16770.7-3007.3h6v-1.1h-2.2v-9.9h-1.1c-0.7,0.4-1.5,0.7-2.3,0.8v0.9h1.9v8.2h-2.4V-3007.3z M-16761.6-3007.1c0.5,0,1-0.4,1-1
			c0,0,0,0,0,0c0-0.5-0.4-1-0.9-1.1c-0.5,0-1,0.4-1.1,0.9c0,0.1,0,0.1,0,0.2C-16762.6-3007.6-16762.2-3007.1-16761.6-3007.1
			C-16761.6-3007.1-16761.6-3007.1-16761.6-3007.1z M-16757.8-3011.4l2.5-3.8c0.3-0.5,0.6-1.1,0.9-1.6h0.1c0,0.6-0.1,1.5-0.1,2v3.4
			H-16757.8z M-16754.4-3007.3h1.3v-3h1.5v-1.1h-1.5v-6.9h-1.5l-4.6,7.1v0.9h4.8V-3007.3z M-16748.1-3011.5c1.5,0,2.5-1.3,2.5-3.5
			s-1-3.5-2.5-3.5c-1.5,0-2.5,1.2-2.5,3.5C-16750.6-3012.8-16749.6-3011.5-16748.1-3011.5z M-16748.1-3012.4c-0.9,0-1.5-0.9-1.5-2.6
			c0-1.8,0.6-2.6,1.5-2.6c0.9,0,1.5,0.9,1.5,2.6C-16746.6-3013.3-16747.2-3012.4-16748.1-3012.4z M-16747.8-3007.1h0.9l6.1-11.4
			h-0.9L-16747.8-3007.1z M-16740.4-3007.1c1.5,0,2.5-1.3,2.5-3.5s-1-3.4-2.5-3.4s-2.5,1.2-2.5,3.4
			C-16742.9-3008.3-16741.9-3007.1-16740.4-3007.1z M-16740.4-3007.9c-0.9,0-1.5-0.9-1.5-2.6c0-1.8,0.6-2.6,1.5-2.6
			c0.9,0,1.5,0.9,1.5,2.6C-16739-3008.8-16739.6-3007.9-16740.4-3007.9z"/>
		<path id="Rectangle_2404" class="st1" d="M-16832-3491.8h224.3c3.4,0,6.1,2.7,6.1,6.1c0,0,0,0,0,0l0,0c0,3.4-2.7,6.1-6.1,6.1l0,0
			h-224.3l0,0V-3491.8L-16832-3491.8z"/>
		<path id="Rectangle_2405" class="st1" d="M-16832-3450h110.8c3.4,0,6.1,2.7,6.1,6.1l0,0c0,3.4-2.7,6.1-6.1,6.1h-110.8l0,0V-3450
			L-16832-3450z"/>
		<path id="Rectangle_2406" class="st1" d="M-16832-3412h90.8c3.4,0,6.1,2.7,6.1,6.1l0,0c0,3.4-2.7,6.1-6.1,6.1h-90.8l0,0V-3412
			L-16832-3412z"/>
		<path id="Rectangle_2407" class="st1" d="M-16832-3370.2h80.8c3.4,0,6.1,2.7,6.1,6.1l0,0c0,3.4-2.7,6.1-6.1,6.1h-80.8l0,0V-3370.2
			L-16832-3370.2z"/>
		<path id="Rectangle_2408" class="st1" d="M-16832-3328.1h79.1c3.4,0,6.1,2.7,6.1,6.1l0,0c0,3.4-2.7,6.1-6.1,6.1h-79.1l0,0V-3328.1
			L-16832-3328.1z"/>
		<path id="Rectangle_2409" class="st1" d="M-16832-3286.3h77.4c3.4,0,6.1,2.7,6.1,6.1l0,0c0,3.4-2.7,6.1-6.1,6.1h-77.4l0,0V-3286.3
			L-16832-3286.3z"/>
		<path id="Rectangle_2410" class="st1" d="M-16832-3245.3h62.4c3.4,0,6.1,2.7,6.1,6.1l0,0c0,3.4-2.7,6.1-6.1,6.1h-62.4l0,0V-3245.3
			L-16832-3245.3z"/>
		<path id="Rectangle_2411" class="st1" d="M-16832-3203.5h39c3.4,0,6.1,2.7,6.1,6.1l0,0c0,3.4-2.7,6.1-6.1,6.1h-39l0,0V-3203.5
			L-16832-3203.5z"/>
		<path id="Rectangle_2412" class="st1" d="M-16832-3161.4h35.7c3.4,0,6.1,2.7,6.1,6.1l0,0c0,3.4-2.7,6.1-6.1,6.1h-35.7l0,0V-3161.4
			L-16832-3161.4z"/>
		<path id="Rectangle_2413" class="st1" d="M-16832-3119.6h25.7c3.4,0,6.1,2.7,6.1,6.1c0,0,0,0,0,0l0,0c0,3.4-2.7,6.1-6.1,6.1l0,0
			h-25.7l0,0V-3119.6L-16832-3119.6z"/>
		<path id="Rectangle_2414" class="st1" d="M-16832-3078.8h22.3c3.4,0,6.1,2.7,6.1,6.1c0,0,0,0,0,0l0,0c0,3.4-2.7,6.1-6.1,6.1l0,0
			h-22.3l0,0V-3078.8L-16832-3078.8z"/>
		<path id="Rectangle_2415" class="st1" d="M-16832-3039.8h20.6c3.4,0,6.1,2.7,6.1,6.1c0,0,0,0,0,0l0,0c0,3.4-2.7,6.1-6.1,6.1l0,0
			h-20.6l0,0V-3039.8L-16832-3039.8z"/>
		<path id="Rectangle_2416" class="st1" d="M-16832-3001h17.3c3.4,0,6.1,2.7,6.1,6.1c0,0,0,0,0,0l0,0c0,3.4-2.7,6.1-6.1,6.1l0,0
			h-17.3l0,0V-3001L-16832-3001z"/>
		<path id="內文p-16" class="st1" d="M-16829.4-2907.6v0.2c0,0.8-0.4,1.9-4.5,2.5c0.3,0.3,0.5,0.6,0.6,0.9c2.8-0.4,4.1-1.2,4.6-2
			c1.2,1.1,2.7,1.7,4.4,1.9c0.2-0.3,0.4-0.7,0.7-0.9c-1.7,0-3.4-0.6-4.7-1.8c0-0.2,0-0.4,0-0.5v-0.2h2.5c-0.2,0.4-0.5,0.9-0.8,1.3
			l0.9,0.3c0.5-0.7,1-1.5,1.3-2.3l-0.8-0.3l-0.2,0h-5.4c0.1-0.3,0.2-0.6,0.3-0.9l-1.1-0.2c-0.3,1.2-1,2.2-1.8,3
			c0.3,0.2,0.6,0.4,0.9,0.6c0.5-0.5,0.9-1,1.2-1.6L-16829.4-2907.6z M-16834.9-2899.5h8v1.1h-8V-2899.5z M-16834.9-2901.3h8v1.1h-8
			V-2901.3z M-16834.9-2903.2h8v1.1h-8V-2903.2z M-16836.1-2897.6h10.4v-6.4h-10.4V-2897.6z M-16834-2908.7h-3.8v0.9h3.8V-2908.7z
			 M-16833.6-2906.2h-4.6v1h4.6V-2906.2z M-16833.4-2897.5c-1.5,0.7-3.1,1.2-4.7,1.5c0.3,0.3,0.6,0.6,0.9,0.9c1.7-0.5,3.3-1.1,4.9-2
			L-16833.4-2897.5z M-16829.5-2896.9c1.5,0.5,3,1.1,4.5,1.8l1-0.7c-1.5-0.7-3.1-1.2-4.7-1.7L-16829.5-2896.9z M-16811.6-2906.6
			c-0.8-0.8-1.6-1.4-2.5-2l-0.6,0.8c0.9,0.6,1.8,1.3,2.5,2.1L-16811.6-2906.6z M-16812.3-2902.7c-0.8-0.7-1.7-1.3-2.7-1.8l-0.6,0.8
			c1,0.5,1.9,1.2,2.7,1.9L-16812.3-2902.7z M-16816.9-2908.7c-0.3,1.2-0.6,2.4-1.1,3.6l0.8,0.3c0.5-1.2,0.9-2.4,1.3-3.6
			L-16816.9-2908.7z M-16820.3-2905.1c-0.2-1.2-0.5-2.4-0.9-3.5l-0.9,0.2c0.4,1.1,0.7,2.3,0.9,3.5L-16820.3-2905.1z
			 M-16820.8-2902.3c-0.3,1.5-0.8,2.9-1.6,4.1c0.2,0.4,0.4,0.9,0.6,1.3c0.9-1.6,1.6-3.3,1.8-5.2L-16820.8-2902.3z M-16815.9-2903.2
			v-1.1h-2.6v-5.3h-1.1v5.3h-2.6v1.1h2.6v8.2h1.1v-8.2H-16815.9z M-16818.4-2901.8c0.3,0.7,1.2,2.7,1.5,3.6l0.8-0.9
			c-0.2-0.5-1.4-2.7-1.7-3.2L-16818.4-2901.8z M-16807.6-2899.9l-0.2-1.1l-1.9,0.3v-9h-1.1v9.2l-5.2,0.9l0.2,1.1l5-0.9v4.3h1.1v-4.5
			L-16807.6-2899.9z M-16795.5-2905.9c-0.3,1.7-1.1,3.2-2.3,4.3c0.3,0.2,0.7,0.4,1,0.6c0.6-0.6,1-1.2,1.4-1.9
			c0.9,0.7,1.7,1.5,2.5,2.3l0.8-0.8c-0.9-0.9-1.9-1.7-2.9-2.5c0.2-0.6,0.4-1.2,0.5-1.9L-16795.5-2905.9z M-16803-2905.9
			c-0.4,1.9-1.4,3.6-2.9,4.9c0.3,0.2,0.7,0.5,0.9,0.8c0.8-0.7,1.5-1.6,2-2.5c0.5,0.5,1,1,1.5,1.6l0.8-0.8c-0.6-0.6-1.2-1.2-1.8-1.8
			c0.3-0.6,0.5-1.2,0.6-1.9L-16803-2905.9z M-16798.4-2906.3h6.4v-1.2h-6.4v-2.2h-1.2v2.2h-6.1v1.2h6.1v3.9c-1.6,2.5-4,4.4-6.7,5.6
			c0.3,0.3,0.6,0.6,0.8,1c2.3-1.1,4.3-2.7,5.9-4.8v5.5h1.2v-5.5c1.5,2.1,3.6,3.7,5.9,4.8c0.2-0.4,0.5-0.8,0.9-1.1
			c-2.8-1.1-5.2-3.1-6.8-5.7L-16798.4-2906.3z M-16786.2-2907.8c-0.9-0.6-1.8-1.2-2.7-1.7l-0.7,0.8c0.9,0.6,2,1.3,2.7,1.8
			L-16786.2-2907.8z M-16787-2903.6c-0.6-0.4-1.8-1.1-2.7-1.6l-0.7,0.8c0.9,0.5,1.8,1.1,2.7,1.7L-16787-2903.6z M-16787.6-2901
			c-0.7,1.8-1.5,3.5-2.4,5.1l1.1,0.7c0.8-1.5,1.6-3.4,2.3-5.1L-16787.6-2901z M-16784.4-2907.8h8.6v-1.1h-9.7v4.4
			c0,2.6-0.2,6.2-2,8.8c0.4,0.2,0.7,0.4,1,0.6c1.9-2.7,2.2-6.6,2.2-9.4V-2907.8z M-16782.9-2899.6c-0.5,1.1-1.1,2.1-1.9,3
			c0.3,0.2,0.7,0.4,1,0.6c0.8-1,1.5-2.1,2-3.3L-16782.9-2899.6z M-16782.4-2902.8h4.9v1.4h-4.9V-2902.8z M-16782.4-2905h4.9v1.4
			h-4.9V-2905z M-16776.5-2900.5v-5.5h-3.5c0.2-0.4,0.4-0.9,0.7-1.3l-1.3-0.3c-0.1,0.5-0.3,1.1-0.5,1.6h-2.4v5.5h2.9v4.2
			c0,0.2-0.1,0.2-0.3,0.2c-0.2,0-0.9,0-1.6,0c0.2,0.3,0.3,0.7,0.3,1c0.7,0.1,1.5,0,2.2-0.2c0.4-0.2,0.5-0.5,0.5-1.1v-4.2
			L-16776.5-2900.5z M-16778.4-2899.3c0.6,1,1.2,2.1,1.8,3.1l1.1-0.5c-0.4-0.8-1.2-2.1-1.8-3.1L-16778.4-2899.3z M-16759.5-2909.3
			l-0.5-0.5l-14.4,14.4l0.5,0.5L-16759.5-2909.3z M-16750.4-2896.7v-3.9h5v-1.1h-5v-3.5h5.7v-1.2h-5.2l0.8-0.5
			c-0.9-1-1.9-1.8-2.9-2.6l-1,0.7c1,0.7,1.9,1.5,2.7,2.4h-7v1.2h5.7v3.5h-4.9v1.1h4.9v3.9h-6.4v1.2h14.1v-1.2H-16750.4z
			 M-16737.9-2907.7c-0.3-0.7-0.8-1.4-1.2-2l-0.9,0.5c0.4,0.7,0.8,1.4,1.2,2.1L-16737.9-2907.7z M-16735.4-2906.9h-6.6v1h6.6
			L-16735.4-2906.9z M-16736.1-2902.8h-5.2v0.9h5.2V-2902.8z M-16737.1-2899.6v2.6h-3v-2.6H-16737.1z M-16736-2900.6h-5.1v5.4h1
			v-0.8h4L-16736-2900.6z M-16741.2-2903.9h5.2v-0.9h-5.2V-2903.9z M-16727.8-2904.1h-3.3v-5.2h-1.2v5.2h-3.1v1.2h3.1v7.9h1.2v-7.9
			h3.3V-2904.1z M-16713.9-2902.8c-0.3-0.5-0.7-1-1.1-1.4c0.5-0.5,0.9-1.1,1.2-1.8l-0.8-0.1c-0.3,0.5-0.5,0.9-0.9,1.3
			c-0.2-0.2-0.5-0.5-0.7-0.7c0.3-0.4,0.7-0.9,0.9-1.4l-0.8-0.1c-0.2,0.4-0.4,0.7-0.7,1c-0.3-0.2-0.6-0.5-0.8-0.7l-0.7,0.4
			c0.4,0.3,0.7,0.6,1,0.9c-0.4,0.4-0.9,0.8-1.4,1.1c0.2,0.1,0.4,0.3,0.5,0.5c0.5-0.3,1-0.7,1.4-1.2c0.2,0.2,0.5,0.5,0.7,0.7
			c-0.6,0.6-1.3,1.2-2,1.6c0.2,0.1,0.4,0.3,0.5,0.6c0.7-0.5,1.4-1,2-1.6c0.3,0.4,0.7,0.8,1,1.3L-16713.9-2902.8z M-16713.6-2901.7
			h-5.3v-5.4h5.3L-16713.6-2901.7z M-16712.5-2908.1h-4.2c0.2-0.4,0.5-0.9,0.7-1.4l-1.2-0.2c-0.2,0.5-0.4,1.1-0.6,1.6h-2.2v7.4h7.5
			V-2908.1z M-16714.7-2898c-0.5-0.8-1-1.7-1.5-2.4l-0.8,0.4c0.5,0.8,1,1.7,1.5,2.6L-16714.7-2898z M-16720.7-2900.4
			c-0.3-1.1-0.6-2.1-1-3.1l-0.8,0.2c0.2,0.4,0.3,0.9,0.5,1.4l-2.5,0.4c1.3-1.6,2.5-3.4,3.5-5.3l-1-0.5c-0.3,0.7-0.7,1.5-1.1,2.2
			l-1.7,0.2c0.9-1.4,1.6-2.8,2.2-4.3l-1.1-0.4c-0.5,1.4-1.1,2.8-1.9,4c-0.3,0.5-0.6,0.8-0.8,0.9c0.1,0.3,0.3,0.7,0.4,1.1
			c0.7-0.2,1.5-0.4,2.2-0.4c-0.4,0.7-0.9,1.3-1.3,1.9c-0.4,0.6-0.8,1-1.1,1.1c0.1,0.3,0.3,0.7,0.4,1c0.3-0.2,0.8-0.3,4.1-0.9
			c0.1,0.3,0.2,0.6,0.2,0.9L-16720.7-2900.4z M-16725.4-2899.4c-0.1,1.3-0.4,2.5-0.9,3.7c0.3,0.1,0.6,0.2,0.9,0.3
			c0.4-1.2,0.7-2.5,0.9-3.8L-16725.4-2899.4z M-16723.9-2899.3c0.2,1.1,0.3,2.3,0.4,3.4l0.9-0.2c-0.1-0.9-0.3-2.3-0.4-3.4
			L-16723.9-2899.3z M-16722.5-2899.6c0.3,0.9,0.6,2,0.7,2.8l0.8-0.3c-0.2-0.9-0.4-1.8-0.7-2.7L-16722.5-2899.6z M-16720.2-2895.9
			c0.5-1.1,0.8-2.2,1.1-3.4l-0.8-0.3c-0.2,1.1-0.6,2.3-1.1,3.3L-16720.2-2895.9z M-16717.1-2896.3c-0.6,0-0.7-0.1-0.7-0.4v-2.8h-1
			v2.8c0,1,0.3,1.3,1.6,1.3h2.3c1.1,0,1.3-0.4,1.5-2.2c-0.3-0.1-0.6-0.2-0.9-0.4c-0.1,1.5-0.2,1.7-0.7,1.7L-16717.1-2896.3z
			 M-16713.9-2899.3c0.5,1,1,2.1,1.4,3.2l0.9-0.4c-0.3-0.8-0.9-2.1-1.4-3.1L-16713.9-2899.3z M-16703.8-2900.4
			c-0.2,0.8-0.6,1.6-1.1,2.3c-0.4-0.6-0.7-1.2-0.9-1.9c0.1-0.1,0.1-0.2,0.2-0.3H-16703.8z M-16703.2-2901.3l-0.2,0h-1.8
			c0.2-0.4,0.3-0.7,0.4-1.1l-0.9-0.2c-0.5,1.4-1.3,2.7-2.4,3.7c0.2-1.3,0.3-2.6,0.3-3.9v-3h4.1v1l-3.2,0.2l0,0.8l3.2-0.2v0.3
			c0,1,0.3,1.5,1.7,1.5h3.9c0.6,0,1.1,0,1.6-0.1c0-0.3-0.1-0.6-0.1-0.9c-0.5,0.1-1.1,0.1-1.6,0.1h-3.7c-0.5,0-0.6-0.1-0.6-0.6v-0.4
			l4.1-0.3l0-0.8l-4,0.3v-1h5.2c-0.2,0.5-0.4,1-0.6,1.5l1,0.3c0.4-0.8,0.8-1.7,1.1-2.6l-0.8-0.2l-0.2,0h-5.6v-1h5.5v-0.9h-5.5v-1
			h-1.2v2.9h-5.2v3.9c0,2.1-0.1,5-1.4,7.1c0.3,0.2,0.7,0.4,0.9,0.7c0.7-1.2,1.1-2.4,1.3-3.7c0.2,0.2,0.5,0.4,0.7,0.6
			c0.4-0.3,0.8-0.7,1.1-1.2c0.2,0.6,0.5,1.2,0.9,1.8c-0.8,0.8-1.8,1.4-2.9,1.7c0.2,0.2,0.4,0.5,0.6,0.8c1.1-0.4,2.1-1,3-1.8
			c1.3,1.2,3,1.5,5.1,1.5h3.8c0.1-0.4,0.2-0.7,0.4-1c-0.7,0-3.6,0-4.1,0c-1.9,0-3.4-0.2-4.5-1.2c0.8-1.1,1.4-2.4,1.6-3.7
			L-16703.2-2901.3z M-16697.1-2897.1c0.6,0,0.8-0.3,0.9-1.4c-0.3,0-0.5-0.1-0.7-0.3c0,0.8-0.1,1-0.3,1h-0.6c-0.2,0-0.2,0-0.2-0.4
			v-3.1h-3.5v1.2c0.1,1-0.4,2-1.3,2.6c0.3,0.2,0.5,0.4,0.7,0.7c1-0.8,1.6-2,1.5-3.2v-0.4h1.6v2.2c0,0.8,0.2,1,1,1L-16697.1-2897.1z"
			/>
		<g id="Group_1893" transform="translate(-16836 -3008.476)">
			<g id="Group_99" transform="translate(0 26.658)">
				<path id="Path_1532" class="st1" d="M0.6,39.4c0-1,0.1-2.1,0.4-3.1c0.2-0.7,0.6-1.3,1.2-1.8c0.6-0.4,1.2-0.7,1.9-0.6
					c0.5,0,1,0.1,1.5,0.3c0.4,0.2,0.8,0.6,1.1,1c0.3,0.5,0.5,1,0.7,1.6c0.2,0.8,0.3,1.7,0.2,2.5c0,1-0.1,2.1-0.4,3.1
					c-0.2,0.7-0.6,1.3-1.2,1.8c-0.6,0.4-1.2,0.7-2,0.6c-0.9,0-1.9-0.4-2.4-1.1C0.9,42.5,0.5,41,0.6,39.4z M2,39.4
					c-0.1,1.2,0.1,2.4,0.6,3.5c0.3,0.5,0.9,0.9,1.5,0.9c0.6,0,1.2-0.3,1.5-0.9c0.5-1.1,0.7-2.3,0.6-3.5c0.1-1.2-0.1-2.4-0.6-3.5
					c-0.3-0.5-0.9-0.9-1.5-0.9c-0.6,0-1.1,0.3-1.4,0.8C2.1,36.9,1.9,38.2,2,39.4z"/>
				<path id="Path_1531" class="st1" d="M84.1,41.9l1.4-0.1c0.1,0.6,0.3,1.1,0.7,1.5c0.4,0.3,0.9,0.5,1.4,0.5c0.6,0,1.2-0.3,1.6-0.7
					c0.5-0.5,0.7-1.2,0.7-1.9c0-0.7-0.2-1.3-0.6-1.8c-0.4-0.4-1-0.7-1.7-0.7c-0.4,0-0.8,0.1-1.2,0.3c-0.3,0.2-0.6,0.4-0.8,0.8
					l-1.2-0.2l1-5.5h5.3v1.3h-4.3l-0.6,2.9c0.6-0.4,1.3-0.7,2-0.7c0.9,0,1.8,0.3,2.4,1c0.7,0.7,1,1.6,1,2.5c0,0.9-0.3,1.8-0.8,2.5
					c-0.7,0.9-1.7,1.3-2.8,1.3c-0.9,0-1.7-0.3-2.4-0.8C84.5,43.5,84.1,42.8,84.1,41.9z"/>
				<path id="Path_1530" class="st1" d="M168.6,44.7h-1.3v-8.4c-0.4,0.3-0.8,0.7-1.2,0.9c-0.4,0.3-0.9,0.5-1.4,0.7v-1.3
					c0.7-0.3,1.4-0.7,1.9-1.3c0.5-0.4,0.9-0.9,1.2-1.4h0.9L168.6,44.7z M172,39.4c0-1,0.1-2.1,0.4-3.1c0.2-0.7,0.6-1.3,1.2-1.8
					c0.6-0.4,1.2-0.7,1.9-0.6c0.5,0,1,0.1,1.5,0.3c0.4,0.2,0.8,0.6,1.1,1c0.3,0.5,0.5,1,0.7,1.6c0.2,0.8,0.3,1.7,0.2,2.5
					c0,1-0.1,2.1-0.4,3.1c-0.2,0.7-0.6,1.3-1.2,1.8c-0.6,0.4-1.2,0.7-2,0.6c-0.9,0-1.9-0.4-2.4-1.1C172.2,42.5,171.8,41,172,39.4z
					 M173.3,39.4c-0.1,1.2,0.1,2.4,0.6,3.5c0.3,0.5,0.9,0.9,1.5,0.9c0.6,0,1.2-0.3,1.5-0.9c0.5-1.1,0.7-2.3,0.6-3.5
					c0.1-1.2-0.1-2.4-0.6-3.5c-0.3-0.5-0.9-0.9-1.5-0.9c-0.6,0-1.1,0.3-1.5,0.8C173.4,36.9,173.2,38.2,173.3,39.4z"/>
				<path id="Path_1529" class="st1" d="M252,44.7h-1.3v-8.4c-0.4,0.3-0.8,0.7-1.2,0.9c-0.4,0.3-0.9,0.5-1.4,0.7v-1.3
					c0.7-0.3,1.4-0.7,1.9-1.3c0.5-0.4,0.9-0.9,1.2-1.4h0.9L252,44.7z M255.4,41.9l1.4-0.1c0.1,0.6,0.3,1.1,0.7,1.5
					c0.4,0.3,0.9,0.5,1.4,0.5c0.6,0,1.2-0.3,1.6-0.7c0.5-0.5,0.7-1.2,0.7-1.9c0-0.7-0.2-1.3-0.6-1.8c-0.4-0.4-1-0.7-1.7-0.7
					c-0.4,0-0.8,0.1-1.2,0.3c-0.3,0.2-0.6,0.4-0.8,0.8l-1.2-0.2l1-5.5h5.3v1.3h-4.3l-0.6,2.9c0.6-0.4,1.3-0.7,2-0.7
					c0.9,0,1.8,0.3,2.4,1c0.7,0.7,1,1.6,1,2.5c0,0.9-0.3,1.8-0.9,2.5c-0.7,0.9-1.7,1.3-2.8,1.3c-0.9,0-1.7-0.3-2.4-0.8
					C255.9,43.5,255.5,42.8,255.4,41.9z"/>
				<path id="Path_1528" class="st1" d="M337.5,43.5v1.3h-7.1c0-0.3,0-0.6,0.2-0.9c0.2-0.5,0.5-1,0.9-1.4c0.5-0.6,1.1-1.1,1.7-1.6
					c0.9-0.7,1.7-1.4,2.4-2.3c0.4-0.4,0.6-1,0.6-1.6c0-0.5-0.2-1-0.6-1.3c-0.4-0.4-0.9-0.6-1.5-0.5c-0.6,0-1.1,0.2-1.5,0.6
					c-0.4,0.4-0.6,1-0.6,1.6l-1.4-0.1c0-0.9,0.4-1.7,1-2.3c0.7-0.6,1.6-0.8,2.4-0.8c0.9,0,1.8,0.3,2.4,0.9c0.6,0.5,0.9,1.3,0.9,2.1
					c0,0.4-0.1,0.9-0.3,1.3c-0.2,0.5-0.5,0.9-0.9,1.3c-0.6,0.7-1.3,1.3-2,1.9c-0.8,0.7-1.3,1.1-1.5,1.4c-0.2,0.2-0.4,0.5-0.6,0.7
					H337.5z M338.9,39.4c0-1,0.1-2.1,0.4-3.1c0.2-0.7,0.6-1.3,1.2-1.8c0.6-0.4,1.2-0.7,1.9-0.6c0.5,0,1,0.1,1.5,0.3
					c0.4,0.2,0.8,0.6,1.1,1c0.3,0.5,0.5,1,0.7,1.6c0.2,0.8,0.3,1.7,0.2,2.5c0,1-0.1,2.1-0.4,3.1c-0.2,0.7-0.6,1.3-1.2,1.8
					c-0.6,0.4-1.2,0.7-2,0.6c-0.9,0-1.9-0.4-2.4-1.1C339.1,42.5,338.8,41,338.9,39.4z M340.2,39.4c-0.1,1.2,0.1,2.4,0.6,3.5
					c0.3,0.5,0.9,0.9,1.5,0.9c0.6,0,1.2-0.3,1.5-0.9c0.5-1.1,0.7-2.3,0.6-3.5c0.1-1.2-0.1-2.4-0.6-3.5c-0.3-0.5-0.9-0.9-1.5-0.9
					c-0.6,0-1.1,0.3-1.5,0.8C340.4,36.9,340.1,38.2,340.2,39.4z"/>
			</g>
			<line id="Line_18" class="st2" x1="3.9" y1="49.4" x2="337.8" y2="49.4"/>
			<g id="Group_101" transform="translate(3.95)">
				<g id="Group_100">
					<line id="Line_19" class="st2" x1="0" y1="49.4" x2="0" y2="32.7"/>
					<line id="Line_20" class="st2" x1="83.4" y1="49.4" x2="83.4" y2="32.7"/>
					<line id="Line_21" class="st2" x1="166.9" y1="49.4" x2="166.9" y2="32.7"/>
					<line id="Line_22" class="st2" x1="250.4" y1="49.4" x2="250.4" y2="32.7"/>
					<line id="Line_23" class="st2" x1="333.8" y1="49.4" x2="333.8" y2="32.7"/>
				</g>
			</g>
		</g>
		<path id="Rectangle_2402" class="st1" d="M-16832-3575.7h296.1c3.4,0,6.1,2.7,6.1,6.1l0,0c0,3.4-2.7,6.1-6.1,6.1h-296.1l0,0
			V-3575.7L-16832-3575.7z"/>
		<path id="Rectangle_2403" class="st1" d="M-16832-3533.9h264.4c3.4,0,6.1,2.7,6.1,6.1l0,0c0,3.4-2.7,6.1-6.1,6.1h-264.4l0,0
			V-3533.9L-16832-3533.9z"/>
	</g>
	<path id="內文p-17" class="st1" d="M-16830.5-3624.8h8v-2.1h-2.5v-11.2h-2c-0.9,0.6-2,0.9-3.1,1.1v1.6h2.4v8.4h-2.9V-3624.8z
		 M-16816.1-3624.6c2.7,0,4.5-2.4,4.5-7c0-4.6-1.8-6.9-4.5-6.9c-2.7,0-4.5,2.3-4.5,6.9C-16820.6-3627-16818.8-3624.6-16816.1-3624.6
		z M-16816.1-3626.6c-1.2,0-2-1.2-2-4.9c0-3.7,0.9-4.8,2-4.8c1.1,0,2,1.1,2,4.8C-16814.1-3627.8-16815-3626.6-16816.1-3626.6z
		 M-16805.8-3631.6c-1.2,0-1.9-0.7-1.9-2.3c0-1.6,0.8-2.4,1.8-2.4c1.1,0,2.1,0.9,2.3,3.3
		C-16804-3632.2-16804.8-3631.7-16805.8-3631.6L-16805.8-3631.6z M-16809.9-3626.1c1,1,2.3,1.5,3.7,1.5c2.6,0,5.1-2.2,5.1-7.2
		c0-4.6-2.3-6.6-4.8-6.6c-2.3,0-4.2,1.8-4.2,4.1c0,0.1,0,0.2,0,0.3c0,2.8,1.6,4.2,3.8,4.2c1.1-0.1,2.1-0.6,2.7-1.5
		c-0.1,3.3-1.3,4.5-2.8,4.5c-0.8,0-1.6-0.4-2.1-0.9L-16809.9-3626.1z M-16794.4-3629.1v-2.7h3.1v2.7L-16794.4-3629.1z
		 M-16782.9-3629.1h-6.2v-2.7h4.8v-2h-4.8v-2.2h5.2v-2.1h-10.2c0.2-0.5,0.4-1,0.6-1.5l-2.2-0.6c-0.7,2.3-2,4.4-3.8,6
		c0.7,0.4,1.3,0.9,1.9,1.4c1-1,1.8-2.1,2.4-3.3h3.9v2.2h-5.3v4.7h-2.8v2.1h8.1v3.9h2.2v-3.9h6.2L-16782.9-3629.1z M-16778-3636.5h13
		v-2h-5.9c-0.2-0.6-0.4-1.1-0.7-1.7l-2.2,0.5c0.2,0.4,0.3,0.8,0.4,1.2h-6.7v4.8c0,2.7-0.1,6.8-1.6,9.5c0.7,0.2,1.3,0.5,2,0.9
		c1.5-2.9,1.7-7.4,1.7-10.5V-3636.5z M-16769.9-3633.3v1.2h-3.3v-1.2H-16769.9z M-16767.8-3630.4v-2.8h2.6v-1.7h-2.6v-1.2h-2.1v1.2
		h-3.3v-1.2h-2v1.2h-2.4v1.7h2.4v2.8L-16767.8-3630.4z M-16769.3-3628.1c-0.7,0.6-1.5,1.1-2.4,1.5c-0.9-0.3-1.7-0.8-2.4-1.5
		H-16769.3z M-16767.5-3629.8l-0.4,0.1h-9.7v1.7h1.9l-0.7,0.3c0.6,0.8,1.4,1.4,2.2,2c-1.4,0.3-2.8,0.5-4.2,0.6
		c0.4,0.6,0.7,1.2,0.9,1.8c1.9-0.2,3.8-0.6,5.7-1.2c1.9,0.7,3.8,1.2,5.8,1.3c0.3-0.7,0.7-1.3,1.2-1.9c-1.5-0.1-3-0.3-4.5-0.6
		c1.3-0.8,2.4-2,3.2-3.3L-16767.5-3629.8z M-16754.1-3631v-3.9h4.1v3.9H-16754.1z M-16760.4-3631v-3.9h4.1v3.9H-16760.4z
		 M-16754.1-3637v-3.1h-2.3v3.1h-6.2v9.1h2.2v-1h4.1v5.6h2.3v-5.6h4.1v0.9h2.3v-9H-16754.1z M-16736.9-3627.9c2.2,1.4,4.2,3,6.2,4.6
		l1.6-1.8c-1.4-1.2-4.4-3.1-6.3-4.4L-16736.9-3627.9z M-16736-3635.7h2.9v3.8h-3.1c0.1-0.8,0.2-1.6,0.1-2.4L-16736-3635.7z
		 M-16741.3-3631.8v-3.8h3.1v1.5c0,0.8,0,1.6-0.2,2.4H-16741.3z M-16730.8-3631.8v-5.9h-5.2v-2.3h-2.2v2.3h-5.3v5.9h-1.9v2.1h6.3
		c-0.9,1.9-2.8,3.5-6.5,4.6c0.5,0.6,0.9,1.2,1.2,1.9c4.8-1.4,6.8-3.7,7.7-6.4h7.5v-2.1H-16730.8z M-16716.6-3634.8h2.5
		c-0.2,1.6-0.6,3.2-1.2,4.8c-0.6-1.5-1.1-3-1.4-4.5L-16716.6-3634.8z M-16710.8-3634.8v-2h-5.1c0.3-1,0.5-1.9,0.6-3l-2.1-0.3
		c-0.3,2.4-1.1,4.6-2.2,6.7v-0.4h-2.1v-3.2h2.6v-2.1h-8.2v2.1h3.6v9.3l-1.2,0.2v-7.3h-1.9v7.7l-0.9,0.2l0.4,2.2
		c2.3-0.5,5.5-1.2,8.4-1.9l-0.2-2l-2.5,0.5v-3.7h2.1v-0.2c0.4,0.3,0.7,0.6,1,1c0.2-0.3,0.4-0.6,0.6-0.9c0.4,1.4,0.8,2.7,1.5,4
		c-1,1.2-2.2,2.2-3.7,2.8c0.5,0.6,0.9,1.2,1.2,1.9c1.4-0.7,2.7-1.6,3.7-2.8c0.9,1.1,2,2.1,3.2,2.7c0.4-0.7,0.9-1.3,1.5-1.8
		c-1.3-0.6-2.5-1.6-3.4-2.8c1.1-2.2,1.8-4.5,2.1-6.9L-16710.8-3634.8z M-16706.1-3636.3h13.1v-2h-6.1c-0.3-0.7-0.5-1.3-0.9-2
		l-2.2,0.6c0.2,0.4,0.4,0.9,0.6,1.4h-6.7v5.5c0,2.5-0.1,6-1.4,8.5c0.7,0.3,1.3,0.7,1.9,1.2c1.5-2.7,1.7-6.9,1.7-9.7L-16706.1-3636.3
		z M-16703.1-3636.2c-0.5,2-1.6,3.8-3,5.3c0.3,0.6,0.6,1.3,0.9,2c0.3-0.3,0.6-0.6,0.9-1v6.5h2v-9.4c0.5-0.9,0.9-1.9,1.3-2.9
		L-16703.1-3636.2z M-16701.3-3630.1c0.7,1.1,1.2,2.3,1.7,3.5l1.8-0.8c-0.5-1.1-1.1-2.3-1.8-3.3L-16701.3-3630.1z M-16693-3633.5
		h-1.7v-2.4h-2.1v2.4h-4.7v2h4.7v5.9c0,0.3-0.1,0.3-0.4,0.3c-0.3,0-1.3,0-2.2,0c0.3,0.7,0.5,1.4,0.7,2.1c1.1,0.1,2.1,0,3.1-0.4
		c0.7-0.3,0.9-0.9,0.9-2v-5.9h1.7L-16693-3633.5z M-16677.6-3633.7h-4v-1.1h4V-3633.7z M-16677.6-3631.1h-4v-1.2h4V-3631.1z
		 M-16677.6-3628.4h-4v-1.2h4V-3628.4z M-16684.9-3629.1c0.4-1.1,0.9-2.8,1.3-4.2l-1.3-0.3l-0.3,0.1h-0.9l0.5-0.7
		c-0.3-0.3-0.7-0.6-1.1-0.8c1-1,1.8-2.1,2.6-3.3v0.8h3.4c-0.1,0.4-0.1,0.8-0.2,1.2h-2.6v9.5h8v-9.5h-3.2c0.1-0.4,0.3-0.8,0.4-1.2
		h3.4v-1.8h-9.1v0.8l-1.2-0.9l-0.4,0.1h-5.5v1.9h4.2c-0.3,0.5-0.7,1-1.2,1.5c-0.6-0.3-1.1-0.6-1.7-0.8l-1.1,1.4
		c1.1,0.5,2.1,1.2,3.1,1.9h-3.9v1.9h2.7v6.1c0,0.2-0.1,0.3-0.3,0.3c-0.2,0-1.1,0-1.9,0c0.3,0.6,0.5,1.3,0.6,2.1
		c0.9,0.1,1.9-0.1,2.8-0.4c0.7-0.3,0.8-0.9,0.8-1.9v-6.1h1.1c-0.2,0.8-0.4,1.7-0.6,2.3L-16684.9-3629.1z M-16681.8-3626.8
		c-1.1,1-2.4,1.7-3.8,2.2c0.5,0.4,1,0.9,1.4,1.4c1.5-0.6,2.9-1.4,4.1-2.5L-16681.8-3626.8z M-16679.2-3625.7c1.1,0.7,2,1.5,3,2.4
		l1.7-1.2c-1-0.8-2-1.6-3.1-2.3L-16679.2-3625.7z M-16663.8-3635.9c0.5-0.5,0.9-1,1.3-1.5h2.1l-1,0.4c0.3,0.3,0.6,0.7,0.9,1.1
		L-16663.8-3635.9z M-16663.1-3627.9h-3.8v-1.1h3.8V-3627.9z M-16669-3630.9h8v0.7h-8V-3630.9z M-16669-3632.8h8v0.7h-8V-3632.8z
		 M-16669-3634.6h8v0.6h-8V-3634.6z M-16665.1-3637.4c-0.2,0.3-0.5,0.5-0.8,0.7c0.5,0.2,1.1,0.5,1.6,0.8h-3.7l1.2-0.4
		c-0.2-0.4-0.4-0.7-0.6-1.1H-16665.1z M-16657-3638.9h-4.6c0.1-0.3,0.3-0.5,0.4-0.8l-2.1-0.5c-0.4,1-1,2-1.8,2.8v-1.5h-4.3
		c0.1-0.2,0.2-0.4,0.3-0.7l-1.9-0.6c-0.7,1.4-1.6,2.7-2.8,3.6c0.5,0.5,1,1.1,1.4,1.7c0.8-0.7,1.5-1.6,2.1-2.5h2.2l-1.3,0.4
		c0.2,0.3,0.5,0.7,0.6,1.1h-2.5v6.9h2.2v1.1h-4.3v1.7h3.6c-0.9,0.8-2,1.2-3.2,1.4c0.5,0.5,1,1,1.3,1.6c2.7-0.7,4-1.8,4.4-3h4v2.9
		h2.2v-2.9h3.8v-1.7h-3.8v-1.1h2.1v-6.9h-0.8l1-0.4c-0.3-0.4-0.5-0.7-0.9-1.1h2.4L-16657-3638.9z M-16648.2-3639.8v2h2.9
		c0.7,1.6,1.6,3,2.7,4.3h-9.3c1.2-1.6,2.2-3.5,2.8-5.4l-2.3-0.5c-0.7,2.6-2.3,4.9-4.5,6.6c0.6,0.5,1.2,1,1.8,1.6
		c0.5-0.4,0.9-0.8,1.3-1.3v1.2h3c-0.4,2.6-1.3,5-5.4,6.3c0.6,0.6,1.1,1.2,1.4,2c4.7-1.7,5.8-4.8,6.3-8.3h3.5
		c-0.2,3.7-0.4,5.3-0.7,5.7c-0.2,0.2-0.5,0.3-0.7,0.3c-0.5,0-1.4,0-2.4-0.1c0.4,0.7,0.6,1.4,0.7,2.2c0.9,0.1,1.8,0,2.7-0.1
		c0.7,0,1.3-0.3,1.6-0.9c0.6-0.7,0.8-2.8,1-8.1c0.4,0.4,0.9,0.7,1.4,1c0.4-0.7,0.9-1.4,1.5-2c-2.5-1.4-4.3-3.7-5.2-6.5
		L-16648.2-3639.8z M-16635-3627.3h3.8v-1.6h-3.8V-3627.3z M-16632.7-3635.8h-0.8v-1.8h0.8V-3635.8z M-16630.7-3631.5
		c0,0-0.1,0-0.2,0h-0.4c-0.1,0-0.2,0-0.2-0.3v-2.3h0.8V-3631.5z M-16635.5-3626.1v-4.2c0.3,0.2,0.6,0.5,0.9,0.8
		c0.8-0.9,1.3-2,1.2-3.2v-1.3h0.8v2.4c0,1.2,0.3,1.5,1.2,1.5h0.8v4.1L-16635.5-3626.1z M-16634.6-3634.1v1.3
		c0.1,0.9-0.3,1.8-0.9,2.4v-3.7H-16634.6z M-16637.4-3637.6h2.3v1.8h-2v12.5h1.6v-1.2h4.9v0.9h1.7v-12.3h-2.1v-1.8h2.3v-1.8h-8.6
		L-16637.4-3637.6z M-16625.4-3625.5c-0.6,0-0.7-0.1-0.7-0.8v-5.2h4.7v-7.7h-6.9v2h4.8v3.6h-4.7v7.3c0,2.2,0.6,2.8,2.6,2.8h2.4
		c1.8,0,2.3-0.9,2.6-4c-0.7-0.2-1.3-0.5-1.9-0.8c-0.1,2.4-0.2,2.8-0.8,2.8H-16625.4z"/>
</g>
</svg>
